SplineFontDB: 3.2
FontName: onRouteBC_Configurations
FullName: onRouteBC Configurations
FamilyName: onRouteBC_Configurations
Weight: Regular
Copyright: Copyright (c) 2025, ubern
UComments: "2025-6-26: Created with FontForge (http://fontforge.org)"
Version: 001.001
ItalicAngle: 0
UnderlinePosition: -100
UnderlineWidth: 50
Ascent: 800
Descent: 200
InvalidEm: 0
LayerCount: 2
Layer: 0 0 "Back" 1
Layer: 1 0 "Fore" 0
XUID: [1021 666 -681924986 16657]
StyleMap: 0x0000
FSType: 0
OS2Version: 0
OS2_WeightWidthSlopeOnly: 0
OS2_UseTypoMetrics: 1
CreationTime: 1750976204
ModificationTime: 1751396524
OS2TypoAscent: 0
OS2TypoAOffset: 1
OS2TypoDescent: 0
OS2TypoDOffset: 1
OS2TypoLinegap: 90
OS2WinAscent: 0
OS2WinAOffset: 1
OS2WinDescent: 0
OS2WinDOffset: 1
HheadAscent: 0
HheadAOffset: 1
HheadDescent: 0
HheadDOffset: 1
Lookup: 4 0 1 "'liga' Standard Ligatures in Latin lookup 0" { "liga_Numbers"  "liga_Spacing"  "liga_Universal"  "liga_AxleUnits"  "liga_Cranes"  "liga_Boosters"  "liga_Trailers"  "liga_Drives"  "liga_Jeeps"  "liga_Trucks"  } ['liga' ('latn' <'dflt' > ) ]
MarkAttachClasses: 1
DEI: 91125
LangName: 1033
Encoding: Custom
Compacted: 1
UnicodeInterp: none
NameList: AGL For New Fonts
DisplaySize: -48
AntiAlias: 1
FitToEm: 0
WinInfo: 0 51 16
BeginPrivate: 0
EndPrivate
Grid
-1000 -120 m 4
 2000 -120 l 1028
  Named: "Bottom Spc Pipe"
EndSplineSet
BeginChars: 164 155

StartChar: T_T_one_S
Encoding: 84 -1 0
Width: 185
Flags: HMW
LayerCount: 2
Fore
SplineSet
245 -23 m 0
 248 -23 251 -26 251 -29 c 2
 251 -114 l 2
 251 -117 248 -120 245 -120 c 0
 242 -120 239 -117 239 -114 c 2
 239 -29 l 2
 239 -26 242 -23 245 -23 c 0
308 274 m 1
 308 211 l 1
 331 211 l 1
 331 274 l 1
 308 274 l 1
302 285 m 2
 336 285 l 2
 339 285 342 283 342 280 c 2
 342 205 l 2
 342 202 339 200 336 200 c 2
 302 200 l 2
 299 200 296 202 296 205 c 2
 296 280 l 2
 296 283 299 285 302 285 c 2
215 274 m 1
 191 211 l 1
 274 211 l 1
 274 274 l 1
 215 274 l 1
211 285 m 2
 279 285 l 2
 282 285 285 283 285 280 c 2
 285 205 l 2
 285 202 282 200 279 200 c 2
 182 200 l 2
 179 200 177 202 177 205 c 0
 177 206 177 207 177 208 c 2
 205 282 l 2
 206 284 209 285 211 285 c 2
199 302 m 2
 353 302 l 2
 356 302 359 300 359 297 c 2
 359 68 l 2
 359 65 356 63 353 63 c 2
 336 63 l 2
 333 63 331 65 331 68 c 0
 331 71 333 74 336 74 c 2
 348 74 l 1
 348 291 l 1
 203 291 l 1
 165 198 l 2
 164 196 163 194 161 194 c 2
 79 178 l 1
 74 102 l 2
 74 100 71 98 69 97 c 2
 51 93 l 1
 51 74 l 1
 159 74 l 2
 162 74 165 71 165 68 c 0
 165 65 162 63 159 63 c 2
 45 63 l 2
 42 63 40 65 40 68 c 2
 40 97 l 2
 40 100 42 102 44 103 c 2
 63 107 l 1
 68 183 l 2
 68 186 71 188 73 188 c 2
 155 205 l 1
 194 299 l 2
 195 301 197 302 199 302 c 2
245 95 m 0
 230 95 218 82 218 67 c 0
 218 52 230 40 245 40 c 0
 260 40 272 52 272 67 c 0
 272 82 260 95 245 95 c 0
245 106 m 0
 266 106 284 88 284 67 c 0
 284 46 266 29 245 29 c 0
 224 29 206 46 206 67 c 0
 206 88 224 106 245 106 c 0
245 123 m 0
 214 123 189 98 189 67 c 0
 189 36 214 11 245 11 c 0
 276 11 301 36 301 67 c 0
 301 98 276 123 245 123 c 0
245 135 m 0
 282 135 312 104 312 67 c 0
 312 30 282 0 245 0 c 0
 208 0 178 30 178 67 c 0
 178 104 208 135 245 135 c 0
EndSplineSet
Validated: 1
LCarets2: 3 0 0 0
Ligature2: "liga_Trucks" T T one S
EndChar

StartChar: one_J
Encoding: 88 -1 1
Width: 332
Flags: HMW
LayerCount: 2
Fore
SplineSet
242 -75 m 0
 242 -67 245 -51 264 -51 c 0
 266 -51 269 -52 271 -52 c 0
 273 -52 275 -53 277 -54 c 0
 278 -54 277 -54 277 -55 c 2
 275 -60 l 2
 275 -61 275 -61 274 -61 c 0
 273 -60 271 -59 269 -59 c 0
 267 -59 266 -58 264 -58 c 0
 251 -58 250 -75 250 -75 c 0
 250 -86 255 -91 264 -91 c 0
 266 -91 267 -90 268 -90 c 2
 271 -90 l 1
 271 -79 l 1
 263 -79 l 2
 262 -79 262 -79 262 -78 c 2
 262 -73 l 2
 262 -72 262 -72 263 -72 c 2
 277 -72 l 2
 278 -72 278 -72 278 -73 c 2
 278 -94 l 2
 278 -95 277 -96 277 -96 c 2
 275 -97 272 -97 270 -97 c 0
 268 -97 266 -98 263 -98 c 0
 259 -98 255 -97 252 -95 c 0
 249 -93 247 -90 245 -87 c 0
 243 -83 242 -80 242 -75 c 0
202 -52 m 2
 209 -52 l 1
 229 -85 l 1
 229 -53 l 2
 229 -52 229 -52 230 -52 c 2
 234 -52 l 2
 235 -52 236 -52 236 -53 c 2
 236 -96 l 2
 236 -97 235 -97 234 -97 c 2
 228 -97 l 1
 208 -64 l 1
 208 -96 l 2
 208 -97 208 -97 207 -97 c 2
 202 -97 l 2
 201 -97 201 -97 201 -96 c 2
 201 -53 l 2
 201 -52 201 -52 202 -52 c 2
180 -52 m 2
 195 -52 l 2
 196 -52 196 -52 196 -53 c 2
 196 -56 l 2
 196 -57 196 -57 195 -57 c 2
 191 -58 l 1
 191 -91 l 1
 195 -92 l 2
 196 -92 196 -92 196 -93 c 2
 196 -96 l 2
 196 -97 196 -97 195 -97 c 2
 180 -97 l 2
 179 -97 179 -97 179 -96 c 2
 179 -93 l 2
 179 -92 179 -92 180 -92 c 2
 184 -91 l 1
 184 -58 l 1
 180 -57 l 1
 180 -57 179 -57 179 -56 c 2
 179 -53 l 2
 179 -52 179 -52 180 -52 c 2
164 -98 m 0
 155 -98 144 -94 144 -74 c 0
 144 -70 147 -51 165 -51 c 0
 169 -51 173 -52 176 -54 c 0
 177 -54 177 -54 177 -55 c 2
 175 -60 l 2
 175 -61 174 -61 173 -61 c 0
 172 -60 171 -59 169 -59 c 0
 164 -56 155 -61 155 -63 c 0
 153 -66 152 -70 152 -75 c 0
 152 -80 153 -83 155 -86 c 2
 155 -87 l 2
 157 -90 161 -91 165 -91 c 0
 167 -91 167 -90 169 -90 c 0
 171 -90 172 -89 174 -89 c 0
 175 -89 175 -89 175 -90 c 2
 175 -96 l 2
 173 -97 172 -97 170 -97 c 0
 168 -97 166 -98 164 -98 c 0
125 -64 m 1
 124 -65 l 2
 120 -77 l 1
 130 -77 l 1
 126 -65 l 1
 126 -65 125 -65 125 -64 c 1
122 -52 m 1
 128 -52 l 1
 144 -96 l 2
 144 -97 144 -97 143 -97 c 2
 138 -97 l 1
 137 -96 l 1
 132 -84 l 1
 118 -84 l 1
 113 -96 l 1
 112 -97 l 1
 107 -97 l 2
 106 -97 106 -97 106 -96 c 2
 122 -52 l 1
100 -66 m 0
 100 -63 99 -59 91 -59 c 2
 87 -59 l 1
 87 -73 l 1
 90 -73 l 2
 99 -73 100 -72 100 -66 c 0
108 -66 m 0
 108 -70 106 -80 91 -80 c 2
 87 -80 l 1
 87 -96 l 2
 87 -97 87 -97 86 -97 c 2
 81 -97 l 2
 80 -97 80 -97 80 -96 c 2
 80 -53 l 2
 80 -52 80 -52 81 -52 c 2
 92 -52 l 2
 107 -52 108 -60 108 -66 c 0
55 -66 m 0
 55 -71 74 -71 74 -85 c 0
 74 -98 58 -98 58 -98 c 0
 56 -98 54 -97 52 -97 c 0
 48 -97 48 -97 46 -95 c 2
 46 -89 l 2
 46 -88 47 -88 48 -88 c 0
 49 -89 51 -89 53 -90 c 0
 55 -90 57 -91 59 -91 c 0
 64 -91 67 -88 67 -85 c 0
 67 -84 66 -83 66 -82 c 0
 66 -78 47 -78 47 -63 c 0
 47 -56 55 -51 61 -51 c 0
 63 -51 65 -52 67 -52 c 0
 69 -52 70 -53 72 -54 c 0
 73 -54 73 -54 73 -55 c 2
 71 -60 l 2
 71 -61 71 -61 70 -61 c 0
 69 -60 67 -59 65 -59 c 0
 63 -59 63 -58 61 -58 c 0
 58 -58 54 -60 54 -63 c 0
 54 -64 55 -65 55 -66 c 0
-54 -69 m 2
 14 -69 l 2
 17 -69 20 -72 20 -75 c 0
 20 -78 17 -81 14 -81 c 2
 -54 -81 l 2
 -57 -81 -60 -78 -60 -75 c 0
 -60 -72 -57 -69 -54 -69 c 2
391 -24 m 0
 394 -24 397 -26 397 -29 c 2
 397 -115 l 2
 397 -118 394 -121 391 -121 c 0
 388 -121 385 -118 385 -115 c 2
 385 -81 l 1
 311 -81 l 2
 308 -81 305 -78 305 -75 c 0
 305 -72 308 -69 311 -69 c 2
 385 -69 l 1
 385 -29 l 2
 385 -26 388 -24 391 -24 c 0
-127 228 m 1
 -127 223 l 1
 129 223 l 2
 131 223 133 221 134 220 c 2
 177 160 l 1
 459 160 l 2
 461 160 464 158 465 156 c 2
 498 74 l 1
 524 74 l 1
 551 155 l 1
 551 166 l 1
 232 166 l 2
 231 166 230 166 229 167 c 2
 139 228 l 1
 -127 228 l 1
-133 240 m 2
 141 240 l 2
 142 240 143 240 144 239 c 2
 234 177 l 1
 557 177 l 2
 560 177 562 174 562 171 c 2
 562 152 l 1
 533 67 l 2
 532 65 531 63 528 63 c 2
 494 63 l 2
 492 63 489 64 488 66 c 2
 456 148 l 1
 174 148 l 2
 172 148 170 150 169 151 c 2
 127 211 l 1
 -87 211 l 1
 -87 208 -90 205 -93 205 c 2
 -116 205 l 2
 -119 205 -122 208 -122 211 c 1
 -133 211 l 2
 -136 211 -139 214 -139 217 c 2
 -139 234 l 2
 -139 237 -136 240 -133 240 c 2
391 95 m 0
 376 95 364 82 364 67 c 0
 364 52 376 40 391 40 c 0
 406 40 418 52 418 67 c 0
 418 82 406 95 391 95 c 0
391 106 m 0
 412 106 430 88 430 67 c 0
 430 46 412 29 391 29 c 0
 370 29 352 46 352 67 c 0
 352 88 370 106 391 106 c 0
391 123 m 0
 360 123 335 98 335 67 c 0
 335 36 360 11 391 11 c 0
 422 11 447 36 447 67 c 0
 447 98 422 123 391 123 c 0
391 135 m 0
 428 135 458 104 458 67 c 0
 458 30 428 0 391 0 c 0
 354 0 324 30 324 67 c 0
 324 104 354 135 391 135 c 0
EndSplineSet
Validated: 1
LCarets2: 1 0
Ligature2: "liga_Jeeps" one J
EndChar

StartChar: one_D
Encoding: 92 -1 2
Width: 559
Flags: HMW
LayerCount: 2
Fore
SplineSet
70 177 m 2
 784 177 l 2
 787 177 789 174 789 171 c 2
 789 154 l 2
 789 153 789 153 789 152 c 2
 760 67 l 2
 759 65 758 63 755 63 c 2
 721 63 l 2
 719 63 717 64 716 66 c 2
 683 148 l 1
 548 148 l 1
 527 67 l 2
 526 65 524 63 521 63 c 2
 70 63 l 2
 67 63 64 66 64 69 c 2
 64 154 l 1
 64 171 l 2
 64 174 67 177 70 177 c 2
76 166 m 1
 76 160 l 1
 687 160 l 2
 689 160 691 158 692 156 c 2
 725 74 l 1
 751 74 l 1
 778 155 l 1
 778 166 l 1
 76 166 l 1
76 148 m 1
 76 74 l 1
 517 74 l 1
 536 148 l 1
 76 148 l 1
618 135 m 0
 655 135 686 104 686 67 c 0
 686 30 655 0 618 0 c 0
 581 0 551 30 551 67 c 0
 551 104 581 135 618 135 c 0
618 123 m 0
 587 123 562 98 562 67 c 0
 562 36 587 11 618 11 c 0
 649 11 674 36 674 67 c 0
 674 98 649 123 618 123 c 0
618 106 m 0
 639 106 657 88 657 67 c 0
 657 46 639 29 618 29 c 0
 597 29 579 46 579 67 c 0
 579 88 597 106 618 106 c 0
618 95 m 0
 603 95 591 82 591 67 c 0
 591 52 603 40 618 40 c 0
 633 40 645 52 645 67 c 0
 645 82 633 95 618 95 c 0
618 -24 m 0
 621 -24 624 -26 624 -29 c 2
 624 -75 l 1
 624 -115 l 2
 624 -118 621 -121 618 -121 c 0
 615 -121 612 -118 612 -115 c 2
 612 -81 l 1
 430 -81 l 2
 427 -81 424 -78 424 -75 c 0
 424 -72 427 -69 430 -69 c 2
 612 -69 l 1
 612 -29 l 2
 612 -26 615 -24 618 -24 c 0
-55 -69 m 2
 127 -69 l 2
 130 -69 133 -72 133 -75 c 0
 133 -78 130 -81 127 -81 c 2
 -55 -81 l 2
 -58 -81 -61 -78 -61 -75 c 0
 -61 -72 -58 -69 -55 -69 c 2
158 -63 m 0
 158 -59 160 -51 172 -51 c 2
 178 -51 l 2
 180 -51 182 -52 184 -53 c 0
 185 -53 184 -54 184 -55 c 2
 183 -59 l 2
 183 -60 182 -60 181 -60 c 0
 180 -59 179 -59 177 -59 c 0
 175 -59 174 -58 172 -58 c 0
 170 -58 165 -58 165 -63 c 0
 165 -64 166 -65 166 -66 c 0
 166 -72 185 -69 185 -84 c 0
 185 -87 185 -97 170 -97 c 2
 163 -97 l 2
 160 -97 158 -95 157 -94 c 1
 157 -89 l 2
 157 -88 158 -88 159 -88 c 0
 160 -89 162 -88 164 -89 c 0
 166 -89 168 -90 170 -90 c 0
 174 -90 178 -90 178 -84 c 0
 178 -83 177 -83 177 -82 c 0
 177 -76 158 -80 158 -63 c 0
219 -65 m 0
 219 -69 218 -80 202 -80 c 2
 198 -80 l 1
 198 -96 l 2
 198 -97 198 -97 197 -97 c 2
 192 -97 l 2
 191 -97 191 -97 191 -96 c 2
 191 -53 l 2
 191 -52 191 -51 192 -51 c 2
 203 -51 l 2
 205 -51 219 -52 219 -65 c 0
212 -65 m 0
 212 -63 212 -58 202 -58 c 2
 198 -58 l 1
 198 -73 l 1
 201 -73 l 2
 205 -73 212 -72 212 -65 c 0
234 -51 m 1
 239 -51 l 1
 240 -52 l 1
 255 -95 l 2
 255 -96 255 -97 254 -97 c 2
 249 -97 l 1
 248 -96 l 1
 243 -83 l 1
 229 -83 l 1
 224 -96 l 1
 223 -97 l 1
 218 -97 l 2
 217 -97 217 -96 217 -95 c 2
 233 -52 l 1
 234 -51 l 1
236 -62 m 1
 236 -63 235 -64 235 -65 c 2
 231 -76 l 1
 241 -76 l 1
 237 -65 l 1
 237 -64 l 1
 236 -62 l 1
256 -74 m 0
 256 -66 258 -51 276 -51 c 0
 280 -51 285 -51 288 -53 c 0
 289 -53 288 -54 288 -55 c 2
 286 -60 l 2
 286 -61 286 -60 285 -60 c 0
 273 -54 267 -62 267 -62 c 0
 265 -65 263 -69 263 -74 c 0
 263 -78 263 -90 276 -90 c 2
 281 -90 l 2
 283 -90 283 -89 285 -89 c 0
 286 -89 287 -89 287 -90 c 2
 287 -94 l 2
 287 -94 284 -97 281 -97 c 2
 275 -97 l 2
 267 -97 256 -94 256 -74 c 0
291 -51 m 2
 306 -51 l 2
 307 -51 307 -52 307 -53 c 2
 307 -56 l 2
 307 -57 307 -57 306 -57 c 2
 302 -58 l 1
 302 -90 l 1
 306 -91 l 2
 307 -91 307 -91 307 -92 c 2
 307 -96 l 2
 307 -97 307 -97 306 -97 c 2
 291 -97 l 2
 290 -97 290 -97 290 -96 c 2
 290 -92 l 2
 290 -91 290 -91 291 -91 c 2
 295 -90 l 1
 295 -58 l 1
 291 -57 l 2
 290 -57 290 -57 290 -56 c 2
 290 -53 l 2
 290 -52 290 -51 291 -51 c 2
314 -51 m 2
 320 -51 l 1
 320 -52 l 1
 340 -84 l 1
 340 -53 l 2
 340 -52 340 -51 341 -51 c 2
 346 -51 l 2
 347 -51 347 -52 347 -53 c 2
 347 -96 l 2
 347 -97 347 -97 346 -97 c 2
 340 -97 l 1
 339 -96 l 1
 319 -64 l 1
 319 -96 l 2
 319 -97 319 -97 318 -97 c 2
 314 -97 l 2
 313 -97 313 -97 313 -96 c 2
 313 -53 l 2
 313 -52 313 -51 314 -51 c 2
353 -74 m 0
 353 -60 363 -51 376 -51 c 2
 382 -51 l 2
 384 -51 386 -52 388 -53 c 0
 389 -53 389 -54 389 -55 c 2
 387 -60 l 2
 387 -61 386 -60 385 -60 c 0
 384 -59 383 -59 381 -59 c 0
 379 -59 377 -58 375 -58 c 0
 362 -58 361 -71 361 -74 c 0
 361 -79 361 -90 375 -90 c 2
 380 -90 l 2
 381 -90 381 -89 382 -89 c 1
 382 -79 l 1
 374 -79 l 2
 373 -79 373 -79 373 -78 c 2
 373 -73 l 2
 373 -72 373 -72 374 -72 c 2
 388 -72 l 2
 389 -72 389 -72 389 -73 c 2
 389 -95 l 1
 387 -96 384 -97 382 -97 c 2
 374 -97 l 2
 359 -97 353 -84 353 -74 c 0
EndSplineSet
Validated: 1
LCarets2: 1 0
Ligature2: "liga_Drives" one D
EndChar

StartChar: two_D
Encoding: 93 -1 3
Width: 485
Flags: W
HStem: -96 5<97.7664 111.598 206.125 217.117 230.938 238.062 304.148 317.841 491.047 493 493.004 504 572 586.955> -83 7<167 177 535 545.581> -57 6<101.694 119.977 134 145.937 226.999 238 302.151 324.998 501.069 512.185 535 545.61 572 584.768> 0 11<452.944 499.118 595.944 642.056> 29 11<460.082 492.613 602.995 635.005> 63 11<77 375 726 752> 95 11<460.344 491.913 603.257 634.743> 123 12<451.562 500.507 594.562 643.438> 148 12<77 395 406 684> 166 11<77 779>
VStem: 65 12<74 148 160 166> 94 7<-67.861 -57.7044> 114 7<-89.0093 -78.3818> 127 7<-95 -79 -72 -58> 148 7<-71.0814 -59.5873> 192 7<-85.0952 -61.0013> 226 17<-95 -90.0156 -90 -57 -56.9844 -52> 249 6<-95 -51> 276 7<-96 -52> 290 7<-85.5017 -61.4038> 309 16<-77.9949 -72> 318 7<-89.822 -78> 409 11<43.9437 90.1176> 438 11<51.0817 83.6133> 470 11<-120.966 -81 -69 -24.0232> 491 8<-69.1795 -59.3312> 504 11<51.3438 82.9126> 513 8<-90.8847 -80.8205> 527 8<-98 -81 -74 -59> 532 12<42.5622 91.5074> 550 8<-72.3159 -60.2644> 552 11<43.9437 90.1176> 564 8<-91 -59> 580 12<50.4064 83.8818> 594 8<-86.1021 -63.2593> 613 11<-120.966 -24.0232> 646 12<50.4064 83.8818> 675 11<43.9437 90.1176> 779 11<155 166>
LayerCount: 2
Fore
SplineSet
290 -73 m 0xfffff7c0fe
 290 -59 298 -50 312 -50 c 0
 314 -50 316 -51 318 -51 c 1
 320 -51 326 -52 325 -54 c 2
 325 -59 l 2
 325 -60 325 -60 317 -58 c 1
 315 -57 313 -57 311 -57 c 0
 307 -57 297 -58 297 -73 c 0
 297 -82 300 -90 311 -90 c 0
 313 -90 315 -90 318 -89 c 1
 318 -78 l 1xfffff7c0fe
 317 -78 309 -78 309 -77 c 2
 309 -72 l 2
 309 -71 309 -71 310 -71 c 2
 324 -71 l 2
 325 -71 325 -71 325 -72 c 2xfffffbc0fe
 325 -93 l 2
 325 -95 317 -97 310 -97 c 0
 306 -97 302 -96 299 -94 c 1
 294 -91 290 -85 290 -73 c 0xfffff7c0fe
250 -51 m 2
 256 -51 l 2
 276 -84 l 1
 276 -83 l 0
 276 -82 276 -80 276 -79 c 0
 276 -78 276 -77 276 -76 c 2
 276 -52 l 2
 276 -51 276 -51 277 -51 c 2
 282 -51 l 2
 283 -51 283 -51 283 -52 c 2
 283 -95 l 2
 283 -96 283 -96 282 -96 c 2
 276 -96 l 2
 275 -96 l 2
 255 -63 l 1
 255 -64 l 0
 255 -66 255 -69 255 -71 c 2
 255 -95 l 2
 255 -96 255 -96 254 -96 c 2
 250 -96 l 2
 249 -96 249 -96 249 -95 c 2
 249 -52 l 2
 249 -51 249 -51 250 -51 c 2
227 -51 m 2
 242 -51 l 2
 243 -51 243 -51 243 -52 c 2
 243 -55 l 2
 243 -56 243 -56 242 -56 c 2
 238 -57 l 1
 238 -90 l 1
 242 -91 l 2
 243 -91 243 -91 243 -92 c 2
 243 -95 l 2
 243 -96 243 -96 242 -96 c 2
 227 -96 l 2
 226 -96 226 -96 226 -95 c 2
 226 -92 l 2
 226 -91 226 -91 227 -91 c 2
 231 -90 l 1
 231 -57 l 1
 227 -56 l 2
 227 -56 226 -56 226 -55 c 2
 226 -52 l 2
 226 -51 226 -51 227 -51 c 2
194 -61 m 1
 196 -57 201 -50 212 -50 c 0
 218 -50 225 -52 224 -54 c 2
 224 -59 l 2
 223 -61 199 -48 199 -73 c 0
 199 -78 200 -82 202 -85 c 1
 204 -88 208 -90 212 -90 c 0
 219 -90 223 -86 223 -89 c 2
 223 -94 l 2
 223 -96 217 -97 211 -97 c 0
 197 -97 192 -86 192 -73 c 0
 192 -69 192 -64 194 -61 c 1
172 -62 m 2
 172 -63 171 -63 171 -64 c 0
 167 -76 l 1
 177 -76 l 1
 173 -64 l 2
 173 -64 173 -64 173 -63 c 0
 172 -62 l 2
170 -51 m 2
 175 -51 l 2
 176 -51 l 2
 191 -94 l 2
 191 -95 191 -96 190 -96 c 2
 185 -96 l 2
 184 -95 l 2
 179 -83 l 1
 165 -83 l 1
 160 -95 l 2
 159 -96 l 2
 154 -96 l 2
 153 -96 153 -95 153 -94 c 2
 169 -51 l 2
 170 -51 l 2
134 -58 m 1
 134 -72 l 1
 137 -72 l 2
 141 -72 143 -72 145 -71 c 0
 147 -70 148 -68 148 -65 c 0
 148 -62 147 -61 146 -60 c 1
 145 -59 142 -58 139 -58 c 2
 134 -58 l 1
128 -51 m 2
 139 -51 l 2
 144 -51 148 -52 151 -54 c 0
 154 -56 155 -61 155 -65 c 0
 155 -67 155 -68 154 -70 c 2
 153 -72 152 -74 151 -75 c 0
 150 -76 148 -77 146 -78 c 0
 144 -79 141 -79 138 -79 c 2
 134 -79 l 1
 134 -95 l 2
 134 -96 134 -96 133 -96 c 2
 128 -96 l 2
 127 -96 127 -96 127 -95 c 2
 127 -52 l 2
 127 -51 127 -51 128 -51 c 2
94 -62 m 0
 94 -55 99 -50 108 -50 c 0
 113 -50 121 -52 120 -54 c 2
 120 -59 l 2
 119 -61 114 -57 108 -57 c 0
 106 -57 101 -58 101 -62 c 0
 101 -66 103 -68 109 -70 c 1
 111 -71 118 -73 120 -77 c 1
 121 -79 121 -81 121 -83 c 0
 121 -85 121 -97 106 -97 c 0
 100 -97 93 -95 93 -93 c 2
 93 -88 l 2
 93 -86 99 -90 106 -90 c 0
 109 -90 114 -89 114 -84 c 0
 114 -74 94 -78 94 -62 c 0
-55 -69 m 2
 47 -69 l 2
 50 -69 53 -72 53 -75 c 0
 53 -78 50 -81 47 -81 c 2
 -55 -81 l 2
 -58 -81 -61 -78 -61 -75 c 0
 -61 -72 -58 -69 -55 -69 c 2
618 -24 m 0
 621 -24 624 -26 624 -29 c 2
 624 -115 l 2
 624 -118 621 -121 618 -121 c 0
 615 -121 613 -118 613 -115 c 2
 613 -29 l 2
 613 -26 615 -24 618 -24 c 0
476 -24 m 0
 479 -24 481 -26 481 -29 c 2
 481 -75 l 1
 481 -115 l 2
 481 -118 479 -121 476 -121 c 0
 473 -121 470 -118 470 -115 c 2
 470 -81 l 1
 367 -81 l 2
 364 -81 361 -78 361 -75 c 0
 361 -72 364 -69 367 -69 c 2
 470 -69 l 1
 470 -29 l 2
 470 -26 473 -24 476 -24 c 0
594 -75 m 0
 594 -66 590 -59 578 -59 c 2
 572 -59 l 1
 572 -91 l 1
 577 -91 l 2
 581 -91 594 -90 594 -75 c 0
602 -75 m 0
 602 -86 598 -98 578 -98 c 2
 566 -98 l 2
 565 -98 564 -98 564 -97 c 2
 564 -54 l 2
 564 -53 565 -52 566 -52 c 2
 579 -52 l 2
 592 -52 602 -62 602 -75 c 0
550 -67 m 0xfffff3cafe
 550 -64 549 -59 540 -59 c 2
 535 -59 l 1
 535 -74 l 1
 538 -74 l 2
 541 -74 550 -73 550 -67 c 0xfffff3cafe
553 -77 m 1
 545 -81 545 -81 539 -81 c 2
 535 -81 l 1
 535 -97 l 2
 535 -98 535 -98 534 -98 c 2
 529 -98 l 2
 528 -98 527 -98 527 -97 c 2
 527 -54 l 2
 527 -53 528 -52 529 -52 c 2
 540 -52 l 2
 557 -52 558 -64 558 -66 c 0
 558 -73 555 -76 554 -77 c 2
 553 -77 l 1
491 -64 m 0
 491 -58 495 -52 507 -52 c 2
 513 -52 l 2
 515 -52 517 -53 519 -54 c 0
 520 -54 520 -55 520 -56 c 2
 518 -60 l 2
 518 -61 517 -61 516 -61 c 0
 515 -60 514 -60 512 -60 c 0
 510 -60 508 -59 506 -59 c 0
 504 -59 499 -59 499 -64 c 0
 499 -65 500 -66 500 -67 c 0
 500 -71 521 -72 521 -86 c 0xfffff3d0fe
 521 -89 520 -99 504 -99 c 0
 501 -99 499 -98 497 -98 c 0
 493 -98 492 -97 491 -96 c 1
 491 -90 l 2
 491 -89 492 -89 493 -89 c 0
 493 -89 498 -92 504 -92 c 0xfffff3e0fe
 504 -92 513 -92 513 -86 c 0xfffff3d0fe
 513 -85 512 -84 512 -83 c 0
 512 -79 491 -78 491 -64 c 0
476 95 m 0
 461 95 449 82 449 67 c 0
 449 52 461 40 476 40 c 0
 491 40 504 52 504 67 c 0xfffff3e0fe
 504 82 491 95 476 95 c 0
476 106 m 0
 497 106 515 88 515 67 c 0
 515 46 497 29 476 29 c 0
 455 29 438 46 438 67 c 0
 438 88 455 106 476 106 c 0
476 123 m 0
 445 123 420 98 420 67 c 0
 420 36 445 11 476 11 c 0
 507 11 532 36 532 67 c 0xfffff3c4fe
 532 98 507 123 476 123 c 0
476 135 m 0
 513 135 544 104 544 67 c 0
 544 30 513 0 476 0 c 0
 439 0 409 30 409 67 c 0
 409 104 439 135 476 135 c 0
619 95 m 0
 604 95 592 82 592 67 c 0
 592 52 604 40 619 40 c 0
 634 40 646 52 646 67 c 0
 646 82 634 95 619 95 c 0
619 106 m 0
 640 106 658 88 658 67 c 0
 658 46 640 29 619 29 c 0
 598 29 580 46 580 67 c 0
 580 88 598 106 619 106 c 0
619 123 m 0
 588 123 563 98 563 67 c 0xfffff3c1fe
 563 36 588 11 619 11 c 0
 650 11 675 36 675 67 c 0
 675 98 650 123 619 123 c 0
619 135 m 0
 656 135 686 104 686 67 c 0
 686 30 656 0 619 0 c 0
 582 0 552 30 552 67 c 0
 552 104 582 135 619 135 c 0
77 148 m 1
 77 74 l 1
 375 74 l 1
 395 148 l 1
 77 148 l 1
77 166 m 1
 77 160 l 1
 687 160 l 2
 689 160 692 158 693 156 c 2
 726 74 l 1
 752 74 l 1
 779 155 l 1
 779 166 l 1
 77 166 l 1
71 177 m 2
 785 177 l 2
 788 177 790 174 790 171 c 2
 790 154 l 2
 790 153 790 153 790 152 c 2
 761 67 l 2
 760 65 759 63 756 63 c 2
 722 63 l 2
 720 63 717 64 716 66 c 2
 684 148 l 1
 406 148 l 1
 385 67 l 2
 384 65 382 63 379 63 c 2
 71 63 l 2
 68 63 65 65 65 68 c 2
 65 154 l 1
 65 171 l 2
 65 174 68 177 71 177 c 2
EndSplineSet
Validated: 1
LCarets2: 1 0
Ligature2: "liga_Drives" two D
EndChar

StartChar: three_D
Encoding: 94 -1 4
Width: 418
Flags: HMW
LayerCount: 2
Fore
SplineSet
69 177 m 2
 782 177 l 2
 785 177 788 174 788 171 c 2
 788 154 l 2
 788 153 788 153 788 152 c 2
 759 67 l 2
 758 65 757 63 754 63 c 2
 719 63 l 2
 717 63 715 64 714 66 c 2
 681 148 l 1
 267 148 l 1
 245 67 l 2
 244 65 243 63 240 63 c 2
 69 63 l 2
 66 63 63 65 63 68 c 2
 63 154 l 1
 63 171 l 2
 63 174 66 177 69 177 c 2
74 166 m 1
 74 160 l 1
 263 160 l 1
 685 160 l 2
 687 160 689 158 690 156 c 2
 723 74 l 1
 750 74 l 1
 777 155 l 1
 777 166 l 1
 74 166 l 1
74 148 m 1
 74 74 l 1
 236 74 l 1
 255 148 l 1
 74 148 l 1
617 135 m 0
 654 135 684 104 684 67 c 0
 684 30 654 0 617 0 c 0
 580 0 549 30 549 67 c 0
 549 104 580 135 617 135 c 0
617 123 m 0
 586 123 561 98 561 67 c 0
 561 36 586 11 617 11 c 0
 648 11 673 36 673 67 c 0
 673 98 648 123 617 123 c 0
617 106 m 0
 638 106 655 88 655 67 c 0
 655 46 638 29 617 29 c 0
 596 29 578 46 578 67 c 0
 578 88 596 106 617 106 c 0
617 95 m 0
 602 95 589 82 589 67 c 0
 589 52 602 40 617 40 c 0
 632 40 644 52 644 67 c 0
 644 82 632 95 617 95 c 0
474 135 m 0
 511 135 541 104 541 67 c 0
 541 30 511 0 474 0 c 0
 437 0 407 30 407 67 c 0
 407 104 437 135 474 135 c 0
474 123 m 0
 443 123 418 98 418 67 c 0
 418 36 443 11 474 11 c 0
 505 11 530 36 530 67 c 0
 530 98 505 123 474 123 c 0
474 106 m 0
 495 106 513 88 513 67 c 0
 513 46 495 29 474 29 c 0
 453 29 435 46 435 67 c 0
 435 88 453 106 474 106 c 0
474 95 m 0
 459 95 447 82 447 67 c 0
 447 52 459 40 474 40 c 0
 489 40 501 52 501 67 c 0
 501 82 489 95 474 95 c 0
331 135 m 0
 368 135 399 104 399 67 c 0
 399 30 368 0 331 0 c 0
 294 0 264 30 264 67 c 0
 264 104 294 135 331 135 c 0
331 123 m 0
 300 123 275 98 275 67 c 0
 275 36 300 11 331 11 c 0
 362 11 387 36 387 67 c 0
 387 98 362 123 331 123 c 0
331 106 m 0
 352 106 370 88 370 67 c 0
 370 46 352 29 331 29 c 0
 310 29 293 46 293 67 c 0
 293 88 310 106 331 106 c 0
331 95 m 0
 316 95 304 82 304 67 c 0
 304 52 316 40 331 40 c 0
 346 40 359 52 359 67 c 0
 359 82 346 95 331 95 c 0
325 -29 m 2
 325 -22 337 -22 337 -29 c 2
 337 -115 l 2
 337 -122 325 -122 325 -115 c 2
 325 -81 l 1
 287 -81 l 2
 280 -81 280 -69 287 -69 c 2
 325 -69 l 1
 325 -29 l 2
611 -29 m 2
 611 -22 622 -22 622 -29 c 2
 622 -115 l 2
 622 -122 611 -122 611 -115 c 2
 611 -29 l 2
-56 -69 m 2
 -6 -69 l 2
 1 -69 1 -81 -6 -81 c 2
 -56 -81 l 2
 -63 -81 -63 -69 -56 -69 c 2
34 -65 m 0
 34 -76 54 -69 54 -86 c 0
 54 -88 54 -100 39 -100 c 0
 33 -100 27 -98 27 -96 c 2
 27 -91 l 2
 27 -89 32 -93 39 -93 c 0
 42 -93 47 -92 47 -87 c 0
 47 -77 27 -81 27 -65 c 0
 27 -58 32 -53 41 -53 c 0
 60 -53 50 -62 50 -62 c 1
 48 -61 45 -60 41 -60 c 0
 39 -60 34 -61 34 -65 c 0
88 -67 m 0
 88 -71 87 -82 71 -82 c 2
 68 -82 l 1
 68 -98 l 2
 68 -99 67 -99 66 -99 c 2
 61 -99 l 2
 60 -99 60 -99 60 -98 c 2
 60 -55 l 2
 60 -54 60 -54 61 -54 c 2
 72 -54 l 2
 80 -54 88 -56 88 -67 c 0
81 -68 m 0
 81 -64 80 -61 72 -61 c 2
 68 -61 l 1
 68 -75 l 1
 71 -75 l 2
 81 -75 81 -71 81 -68 c 0
103 -53 m 1
 108 -53 l 1
 109 -54 l 1
 124 -97 l 2
 124 -98 124 -99 123 -99 c 2
 118 -99 l 1
 117 -98 l 1
 112 -86 l 1
 98 -86 l 1
 93 -98 l 1
 92 -99 l 1
 87 -99 l 2
 86 -99 86 -98 86 -97 c 2
 102 -54 l 1
 103 -53 l 1
105 -64 m 1
 105 -67 l 1
 101 -79 l 1
 110 -79 l 1
 106 -67 l 2
 106 -66 106 -66 105 -64 c 1
125 -76 m 0
 125 -68 127 -53 145 -53 c 0
 159 -53 157 -57 155 -62 c 1
 155 -62 132 -52 132 -76 c 0
 132 -80 132 -92 145 -92 c 0
 152 -92 156 -89 156 -92 c 2
 156 -97 l 2
 156 -99 150 -100 144 -100 c 0
 130 -100 125 -89 125 -76 c 0
164 -60 m 1
 159 -59 159 -59 159 -58 c 2
 159 -55 l 2
 159 -54 159 -54 160 -54 c 2
 175 -54 l 2
 176 -54 176 -54 176 -55 c 2
 176 -58 l 2
 176 -59 176 -59 171 -60 c 1
 171 -93 l 1
 176 -94 176 -94 176 -95 c 2
 176 -98 l 2
 176 -99 176 -99 175 -99 c 2
 160 -99 l 2
 159 -99 159 -99 159 -98 c 2
 159 -95 l 2
 159 -94 159 -94 164 -93 c 1
 164 -60 l 1
188 -66 m 1
 188 -68 189 -71 189 -74 c 2
 189 -98 l 2
 189 -99 188 -99 187 -99 c 2
 183 -99 l 2
 182 -99 182 -99 182 -98 c 2
 182 -55 l 2
 182 -54 182 -54 183 -54 c 2
 189 -54 l 1
 190 -54 l 1
 209 -86 l 1
 209 -81 209 -81 209 -79 c 2
 209 -55 l 2
 209 -54 209 -54 210 -54 c 2
 215 -54 l 2
 216 -54 216 -54 216 -55 c 2
 216 -98 l 2
 216 -99 216 -99 215 -99 c 2
 209 -99 l 1
 208 -98 l 1
 188 -66 l 1
243 -100 m 0
 228 -100 223 -88 223 -76 c 0
 223 -62 231 -53 245 -53 c 0
 247 -53 249 -54 251 -54 c 0
 258 -56 259 -55 256 -62 c 0
 256 -63 256 -63 250 -61 c 0
 248 -61 246 -60 244 -60 c 0
 240 -60 230 -61 230 -76 c 0
 230 -85 233 -93 244 -93 c 0
 246 -93 248 -93 251 -92 c 1
 251 -81 l 1
 250 -81 242 -81 242 -80 c 2
 242 -75 l 2
 242 -74 242 -74 243 -74 c 2
 257 -74 l 2
 258 -74 258 -74 258 -75 c 2
 258 -96 l 2
 258 -98 250 -100 243 -100 c 0
388 -64 m 0
 388 -74 407 -69 407 -85 c 0
 407 -87 406 -98 392 -98 c 0
 386 -98 380 -97 380 -95 c 2
 380 -90 l 2
 380 -88 385 -91 392 -91 c 0
 395 -91 400 -91 400 -86 c 0
 400 -76 380 -80 380 -64 c 0
 380 -57 385 -52 394 -52 c 0
 413 -52 403 -61 403 -61 c 1
 401 -60 398 -59 394 -59 c 0
 392 -59 388 -60 388 -64 c 0
441 -67 m 0
 441 -71 440 -81 424 -81 c 2
 420 -81 l 1
 420 -96 l 2
 420 -97 420 -98 419 -98 c 2
 414 -98 l 2
 413 -98 413 -97 413 -96 c 2
 413 -54 l 2
 413 -53 413 -53 414 -53 c 2
 425 -53 l 2
 433 -53 441 -56 441 -67 c 0
433 -67 m 0
 433 -64 432 -60 424 -60 c 2
 420 -60 l 1
 420 -74 l 1
 423 -74 l 2
 432 -74 433 -70 433 -67 c 0
474 -66 m 0
 474 -74 469 -77 467 -78 c 1
 477 -96 l 2
 477 -97 477 -98 476 -98 c 2
 470 -98 l 1
 469 -97 l 1
 460 -80 l 1
 454 -80 l 1
 454 -96 l 2
 454 -97 454 -98 453 -98 c 2
 448 -98 l 2
 447 -98 447 -97 447 -96 c 2
 447 -54 l 2
 447 -53 447 -53 448 -53 c 2
 459 -53 l 2
 465 -53 474 -54 474 -66 c 0
467 -66 m 0
 467 -63 466 -60 458 -60 c 2
 454 -60 l 1
 454 -73 l 1
 459 -73 l 2
 465 -73 467 -71 467 -66 c 0
482 -53 m 2
 505 -53 l 2
 506 -53 506 -53 506 -54 c 2
 506 -59 l 2
 506 -60 506 -60 505 -60 c 2
 489 -60 l 1
 489 -71 l 1
 504 -71 l 2
 505 -71 505 -71 505 -72 c 2
 505 -77 l 2
 505 -78 505 -78 504 -78 c 2
 489 -78 l 1
 489 -91 l 1
 505 -91 l 2
 506 -91 506 -91 506 -92 c 2
 506 -96 l 2
 506 -97 506 -98 505 -98 c 2
 482 -98 l 2
 481 -98 481 -97 481 -96 c 2
 481 -54 l 2
 481 -53 481 -53 482 -53 c 2
524 -53 m 1
 528 -53 l 1
 529 -53 l 1
 545 -96 l 2
 545 -97 545 -98 544 -98 c 2
 538 -98 l 1
 537 -97 l 1
 533 -84 l 1
 519 -84 l 1
 514 -97 l 1
 513 -98 l 1
 508 -98 l 2
 507 -98 507 -97 507 -96 c 2
 523 -53 l 1
 524 -53 l 1
526 -63 m 1
 525 -66 l 1
 521 -77 l 1
 531 -77 l 1
 527 -66 l 2
 527 -65 527 -65 526 -63 c 1
582 -75 m 0
 582 -83 579 -98 560 -98 c 2
 549 -98 l 2
 548 -98 548 -97 548 -96 c 2
 548 -54 l 2
 548 -53 548 -53 549 -53 c 2
 561 -53 l 2
 572 -53 582 -59 582 -75 c 0
575 -75 m 0
 575 -70 574 -60 561 -60 c 2
 555 -60 l 1
 555 -91 l 1
 560 -91 l 2
 570 -91 575 -85 575 -75 c 0
EndSplineSet
Validated: 1
LCarets2: 1 0
Ligature2: "liga_Drives" three D
EndChar

StartChar: four_D
Encoding: 95 -1 5
Width: 343
Flags: HMW
LayerCount: 2
Fore
SplineSet
498 -77 m 0
 498 -72 497 -62 484 -62 c 2
 479 -62 l 1
 479 -93 l 1
 483 -93 l 2
 493 -93 498 -87 498 -77 c 0
506 -77 m 0
 506 -85 503 -100 484 -100 c 2
 473 -100 l 2
 472 -100 472 -100 472 -99 c 2
 472 -56 l 2
 472 -55 472 -55 473 -55 c 2
 485 -55 l 2
 496 -55 506 -61 506 -77 c 0
449 -66 m 1
 449 -68 l 1
 445 -80 l 1
 454 -80 l 1
 450 -69 l 2
 450 -68 450 -68 449 -66 c 1
447 -55 m 1
 452 -55 l 1
 453 -56 l 1
 468 -98 l 2
 468 -99 468 -100 467 -100 c 2
 462 -100 l 1
 461 -99 l 1
 456 -87 l 1
 442 -87 l 1
 438 -99 l 1
 437 -100 l 1
 432 -100 l 2
 431 -100 431 -99 431 -98 c 2
 446 -56 l 1
 447 -55 l 1
406 -55 m 2
 428 -55 l 2
 429 -55 429 -55 429 -56 c 2
 429 -61 l 2
 429 -62 429 -62 428 -62 c 2
 412 -62 l 1
 412 -73 l 1
 427 -73 l 2
 428 -73 428 -73 428 -74 c 2
 428 -79 l 2
 428 -80 428 -80 427 -80 c 2
 412 -80 l 1
 412 -93 l 1
 428 -93 l 2
 429 -93 429 -93 429 -94 c 2
 429 -99 l 2
 429 -100 429 -100 428 -100 c 2
 406 -100 l 2
 405 -100 405 -100 405 -99 c 2
 405 -56 l 2
 405 -55 405 -55 406 -55 c 2
391 -69 m 0
 391 -66 390 -62 382 -62 c 2
 377 -62 l 1
 377 -76 l 1
 382 -76 l 2
 388 -76 391 -74 391 -69 c 0
398 -68 m 0
 398 -76 392 -79 390 -80 c 1
 401 -98 l 2
 401 -99 401 -100 400 -100 c 2
 394 -100 l 1
 393 -99 l 1
 384 -82 l 1
 377 -82 l 1
 377 -99 l 2
 377 -100 377 -100 376 -100 c 2
 371 -100 l 2
 370 -100 370 -100 370 -99 c 2
 370 -56 l 2
 370 -55 370 -55 371 -55 c 2
 382 -55 l 2
 388 -55 398 -56 398 -68 c 0
357 -69 m 0
 357 -66 356 -62 348 -62 c 2
 344 -62 l 1
 344 -77 l 1
 347 -77 l 2
 356 -77 357 -72 357 -69 c 0
364 -69 m 0
 364 -73 363 -83 347 -83 c 2
 344 -83 l 1
 344 -99 l 2
 344 -100 344 -100 343 -100 c 2
 338 -100 l 2
 337 -100 336 -100 336 -99 c 2
 336 -56 l 2
 336 -55 337 -55 338 -55 c 2
 348 -55 l 2
 356 -55 364 -58 364 -69 c 0
304 -67 m 0
 304 -60 309 -55 318 -55 c 0
 337 -55 327 -64 327 -64 c 1
 325 -63 321 -62 317 -62 c 0
 315 -62 311 -63 311 -67 c 0
 311 -75 324 -73 329 -81 c 0
 330 -83 331 -85 331 -87 c 0
 331 -89 329 -100 315 -100 c 0
 309 -100 303 -99 303 -97 c 2
 303 -92 l 2
 303 -90 309 -94 316 -94 c 0
 319 -94 323 -93 323 -88 c 0
 323 -78 304 -83 304 -67 c 0
-56 -69 m 2
 -5 -69 l 2
 2 -69 2 -81 -5 -81 c 2
 -56 -81 l 2
 -63 -81 -63 -69 -56 -69 c 2
612 -29 m 2
 612 -22 623 -22 623 -29 c 2
 623 -115 l 2
 623 -122 612 -122 612 -115 c 2
 612 -81 l 1
 537 -81 l 2
 530 -81 530 -69 537 -69 c 2
 612 -69 l 1
 612 -29 l 2
183 -29 m 2
 183 -22 195 -22 195 -29 c 2
 195 -69 l 1
 275 -69 l 2
 282 -69 282 -81 275 -81 c 2
 195 -81 l 1
 195 -115 l 2
 195 -122 183 -122 183 -115 c 2
 183 -81 l 1
 145 -81 l 2
 138 -81 138 -69 145 -69 c 2
 183 -69 l 1
 183 -29 l 2
189 95 m 0
 174 95 162 82 162 67 c 0
 162 52 174 40 189 40 c 0
 204 40 216 52 216 67 c 0
 216 82 204 95 189 95 c 0
189 106 m 0
 210 106 228 88 228 67 c 0
 228 46 210 29 189 29 c 0
 168 29 150 46 150 67 c 0
 150 88 168 106 189 106 c 0
189 124 m 0
 158 124 133 98 133 67 c 0
 133 36 158 11 189 11 c 0
 220 11 245 36 245 67 c 0
 245 98 220 124 189 124 c 0
189 135 m 0
 226 135 256 104 256 67 c 0
 256 30 226 0 189 0 c 0
 152 0 121 30 121 67 c 0
 121 104 152 135 189 135 c 0
332 95 m 0
 317 95 304 82 304 67 c 0
 304 52 317 40 332 40 c 0
 347 40 359 52 359 67 c 0
 359 82 347 95 332 95 c 0
332 106 m 0
 353 106 370 88 370 67 c 0
 370 46 353 29 332 29 c 0
 311 29 293 46 293 67 c 0
 293 88 311 106 332 106 c 0
332 124 m 0
 301 124 276 98 276 67 c 0
 276 36 301 11 332 11 c 0
 363 11 388 36 388 67 c 0
 388 98 363 124 332 124 c 0
332 135 m 0
 369 135 399 104 399 67 c 0
 399 30 369 0 332 0 c 0
 295 0 264 30 264 67 c 0
 264 104 295 135 332 135 c 0
474 95 m 0
 459 95 447 82 447 67 c 0
 447 52 459 40 474 40 c 0
 489 40 502 52 502 67 c 0
 502 82 489 95 474 95 c 0
474 106 m 0
 495 106 513 88 513 67 c 0
 513 46 495 29 474 29 c 0
 453 29 436 46 436 67 c 0
 436 88 453 106 474 106 c 0
474 124 m 0
 443 124 418 98 418 67 c 0
 418 36 443 11 474 11 c 0
 505 11 530 36 530 67 c 0
 530 98 505 124 474 124 c 0
474 135 m 0
 511 135 542 104 542 67 c 0
 542 30 511 0 474 0 c 0
 437 0 407 30 407 67 c 0
 407 104 437 135 474 135 c 0
617 95 m 0
 602 95 590 82 590 67 c 0
 590 52 602 40 617 40 c 0
 632 40 644 52 644 67 c 0
 644 82 632 95 617 95 c 0
617 106 m 0
 638 106 656 88 656 67 c 0
 656 46 638 29 617 29 c 0
 596 29 578 46 578 67 c 0
 578 88 596 106 617 106 c 0
617 124 m 0
 586 124 561 98 561 67 c 0
 561 36 586 11 617 11 c 0
 648 11 673 36 673 67 c 0
 673 98 648 124 617 124 c 0
617 135 m 0
 654 135 684 104 684 67 c 0
 684 30 654 0 617 0 c 0
 580 0 550 30 550 67 c 0
 550 104 580 135 617 135 c 0
75 148 m 1
 75 74 l 1
 93 74 l 1
 113 148 l 1
 75 148 l 1
75 166 m 1
 75 160 l 1
 685 160 l 2
 687 160 690 158 691 156 c 2
 724 74 l 1
 750 74 l 1
 777 155 l 1
 777 166 l 1
 75 166 l 1
69 177 m 2
 782 177 l 2
 785 177 788 174 788 171 c 2
 788 154 l 2
 788 153 788 153 788 152 c 2
 759 67 l 2
 758 65 757 63 754 63 c 2
 720 63 l 2
 718 63 715 64 714 66 c 2
 682 148 l 1
 125 148 l 1
 103 67 l 2
 102 65 101 63 98 63 c 2
 69 63 l 2
 66 63 63 66 63 69 c 2
 63 154 l 1
 63 171 l 2
 63 174 66 177 69 177 c 2
87 -75 m 0
 87 -61 95 -52 108 -52 c 0
 123 -52 121 -55 119 -60 c 0
 119 -61 119 -62 113 -60 c 0
 112 -60 110 -59 108 -59 c 0
 99 -59 95 -66 95 -75 c 0
 95 -80 96 -84 98 -87 c 0
 100 -90 103 -91 108 -91 c 0
 116 -91 120 -87 120 -90 c 2
 120 -95 l 2
 120 -97 114 -98 108 -98 c 0
 102 -98 93 -96 89 -87 c 0
 87 -84 87 -80 87 -75 c 0
74 -66 m 0
 74 -63 74 -59 65 -59 c 2
 60 -59 l 1
 60 -74 l 1
 64 -74 l 2
 74 -74 74 -69 74 -66 c 0
78 -76 m 0
 74 -80 69 -81 64 -81 c 2
 60 -81 l 1
 60 -96 l 2
 60 -97 60 -97 59 -97 c 2
 54 -97 l 2
 53 -97 53 -97 53 -96 c 2
 53 -54 l 2
 53 -53 53 -52 54 -52 c 2
 65 -52 l 2
 73 -52 82 -55 82 -66 c 0
 82 -68 82 -73 78 -76 c 0
46 -85 m 1
 46 -85 45 -98 30 -98 c 0
 24 -98 17 -97 17 -95 c 2
 17 -90 l 2
 17 -89 17 -88 24 -90 c 0
 26 -90 28 -91 30 -91 c 0
 32 -91 39 -90 39 -85 c 0
 39 -75 18 -80 18 -64 c 0
 18 -57 23 -52 32 -52 c 0
 53 -52 42 -61 42 -61 c 1
 39 -60 36 -59 32 -59 c 0
 31 -59 25 -59 25 -64 c 0
 25 -73 46 -70 46 -85 c 1
EndSplineSet
Validated: 1
LCarets2: 1 0
Ligature2: "liga_Drives" four D
EndChar

StartChar: one_T
Encoding: 96 -1 6
Width: 1175
Flags: HMW
LayerCount: 2
Fore
SplineSet
686 -100 m 0
 671 -100 665 -87 665 -76 c 0
 665 -69 668 -53 687 -53 c 0
 689 -53 692 -54 694 -54 c 0
 696 -54 698 -55 700 -56 c 0
 701 -56 700 -56 700 -57 c 2
 698 -62 l 2
 698 -63 698 -63 697 -63 c 0
 696 -62 694 -61 692 -61 c 0
 690 -61 689 -60 687 -60 c 0
 682 -60 673 -62 673 -76 c 0
 673 -81 673 -93 687 -93 c 0
 689 -93 690 -92 691 -92 c 2
 694 -92 l 1
 694 -81 l 1
 686 -81 l 2
 685 -81 685 -81 685 -80 c 2
 685 -75 l 2
 685 -74 685 -74 686 -74 c 2
 700 -74 l 2
 701 -74 701 -74 701 -75 c 2
 701 -96 l 2
 701 -97 700 -97 700 -97 c 2
 698 -98 695 -99 693 -99 c 0
 691 -99 689 -100 686 -100 c 0
657 -99 m 2
 650 -99 l 1
 631 -66 l 1
 631 -98 l 2
 631 -99 631 -99 630 -99 c 2
 625 -99 l 2
 624 -99 624 -99 624 -98 c 2
 624 -55 l 2
 624 -54 624 -54 625 -54 c 2
 632 -54 l 1
 652 -87 l 1
 652 -55 l 2
 652 -54 652 -54 653 -54 c 2
 657 -54 l 2
 658 -54 658 -54 658 -55 c 2
 658 -98 l 2
 658 -99 658 -99 657 -99 c 2
603 -54 m 2
 618 -54 l 2
 619 -54 619 -54 619 -55 c 2
 619 -58 l 2
 619 -59 619 -59 618 -59 c 2
 614 -60 l 1
 614 -93 l 1
 618 -94 l 2
 619 -94 619 -94 619 -95 c 2
 619 -98 l 2
 619 -99 619 -99 618 -99 c 2
 603 -99 l 2
 602 -99 602 -99 602 -98 c 2
 602 -95 l 2
 602 -94 602 -94 603 -94 c 2
 607 -93 l 1
 607 -60 l 1
 603 -59 l 1
 603 -59 602 -59 602 -58 c 2
 602 -55 l 2
 602 -54 602 -54 603 -54 c 2
567 -76 m 0
 567 -66 573 -53 588 -53 c 0
 592 -53 596 -54 599 -56 c 0
 600 -56 600 -56 600 -57 c 2
 598 -62 l 2
 598 -63 597 -63 596 -63 c 0
 595 -62 594 -61 592 -61 c 0
 587 -58 578 -63 578 -64 c 0
 576 -67 575 -71 575 -76 c 0
 575 -80 576 -93 588 -93 c 0
 590 -93 590 -92 592 -92 c 0
 594 -92 595 -91 597 -91 c 0
 598 -91 598 -91 598 -92 c 2
 598 -98 l 1
 596 -99 595 -99 593 -99 c 0
 591 -99 589 -100 587 -100 c 0
 578 -100 567 -96 567 -76 c 0
548 -66 m 1
 547 -67 l 2
 543 -79 l 1
 553 -79 l 1
 549 -67 l 1
 549 -67 548 -67 548 -66 c 1
545 -54 m 1
 551 -54 l 1
 567 -97 l 2
 567 -98 567 -99 566 -99 c 2
 561 -99 l 1
 560 -98 l 1
 555 -86 l 1
 541 -86 l 1
 536 -98 l 1
 535 -99 l 1
 530 -99 l 2
 529 -99 529 -98 529 -97 c 2
 545 -54 l 1
523 -68 m 0
 523 -65 522 -61 514 -61 c 2
 510 -61 l 1
 510 -75 l 1
 513 -75 l 2
 522 -75 523 -74 523 -68 c 0
531 -68 m 0
 531 -72 529 -82 514 -82 c 2
 510 -82 l 1
 510 -98 l 2
 510 -99 510 -99 509 -99 c 2
 504 -99 l 2
 503 -99 503 -99 503 -98 c 2
 503 -55 l 2
 503 -54 503 -54 504 -54 c 2
 515 -54 l 2
 530 -54 531 -62 531 -68 c 0
478 -68 m 0
 478 -72 497 -74 497 -86 c 0
 497 -99 483 -100 481 -100 c 0
 479 -100 477 -99 475 -99 c 0
 471 -99 470 -99 469 -96 c 1
 469 -91 l 2
 469 -90 470 -90 471 -90 c 0
 472 -91 474 -91 476 -92 c 0
 478 -92 480 -93 482 -93 c 0
 487 -93 490 -90 490 -87 c 0
 490 -86 489 -85 489 -84 c 0
 489 -80 470 -80 470 -65 c 0
 470 -58 478 -53 484 -53 c 0
 486 -53 488 -54 490 -54 c 0
 492 -54 493 -55 495 -56 c 0
 496 -56 496 -56 496 -57 c 2
 494 -62 l 2
 494 -63 494 -62 493 -62 c 0
 492 -61 490 -61 488 -61 c 0
 486 -61 486 -60 484 -60 c 0
 481 -60 477 -62 477 -65 c 0
 477 -66 478 -67 478 -68 c 0
1502 703 m 0
 1511 703 1513 703 1515 700 c 0
 1515 699 1513 698 1513 697 c 0
 1512 696 1512 694 1511 694 c 0
 1509 695 1506 696 1504 696 c 0
 1484 700 1480 660 1508 667 c 1
 1508 677 l 1
 1504 677 l 2
 1503 677 1501 676 1500 677 c 0
 1499 678 1500 679 1500 680 c 0
 1500 681 1499 684 1501 684 c 2
 1512 684 l 2
 1513 684 1515 685 1515 683 c 2
 1515 662 l 1
 1508 658 1485 656 1482 674 c 0
 1481 681 1478 703 1502 703 c 0
1444 703 m 2
 1449 703 l 1
 1450 702 l 1
 1469 672 l 1
 1469 673 l 2
 1469 674 1468 675 1468 676 c 2
 1468 702 l 2
 1468 703 1468 703 1469 703 c 2
 1474 703 l 2
 1475 703 1475 703 1475 702 c 2
 1475 661 l 2
 1475 660 1475 660 1474 660 c 2
 1468 660 l 1
 1467 661 l 1
 1449 691 l 1
 1449 661 l 2
 1449 660 1449 660 1448 660 c 2
 1444 660 l 2
 1443 660 1443 660 1443 661 c 2
 1443 702 l 2
 1443 703 1443 703 1444 703 c 2
1421 693 m 1
 1421 690 l 1
 1417 679 l 1
 1426 679 l 1
 1422 690 l 1
 1422 691 l 1
 1421 693 l 1
1424 703 m 1
 1425 702 l 1
 1439 662 l 1
 1439 661 l 2
 1439 660 1439 660 1438 660 c 2
 1433 660 l 1
 1432 661 l 1
 1428 673 l 1
 1414 673 l 1
 1410 661 l 1
 1409 660 l 1
 1404 660 l 2
 1403 660 1403 660 1403 661 c 2
 1403 662 l 1
 1418 702 l 1
 1419 703 l 1
 1424 703 l 1
1370 703 m 2
 1375 703 l 2
 1376 703 1376 703 1376 702 c 2
 1376 686 l 1
 1393 686 l 1
 1393 702 l 2
 1393 703 1393 703 1394 703 c 2
 1399 703 l 2
 1400 703 1400 703 1400 702 c 2
 1400 661 l 2
 1400 660 1400 660 1399 660 c 2
 1394 660 l 2
 1393 660 1393 660 1393 661 c 2
 1393 679 l 1
 1376 679 l 1
 1376 661 l 2
 1376 660 1376 660 1375 660 c 2
 1370 660 l 2
 1369 660 1369 660 1369 661 c 2
 1369 702 l 2
 1369 703 1369 703 1370 703 c 2
1355 690 m 0
 1355 696 1351 696 1347 696 c 2
 1342 696 l 1
 1342 683 l 1
 1347 683 l 2
 1348 683 1355 683 1355 690 c 0
1341 660 m 2
 1337 660 l 2
 1336 660 1336 660 1336 661 c 2
 1336 702 l 2
 1336 703 1336 703 1337 703 c 2
 1347 703 l 2
 1351 703 1362 703 1362 690 c 0
 1362 688 1362 686 1361 685 c 0
 1361 684 1361 684 1357 680 c 0
 1356 680 1356 679 1355 679 c 1
 1365 662 l 1
 1365 661 l 2
 1365 660 1365 660 1364 660 c 2
 1358 660 l 1
 1354 665 1351 671 1348 677 c 1
 1342 677 l 1
 1342 661 l 2
 1342 660 1342 660 1341 660 c 2
1307 703 m 2
 1328 703 l 2
 1329 703 1329 703 1329 702 c 2
 1329 697 l 2
 1329 696 1329 696 1328 696 c 2
 1313 696 l 1
 1313 686 l 1
 1327 686 l 2
 1328 686 1328 686 1328 685 c 2
 1328 680 l 2
 1328 679 1328 679 1327 679 c 2
 1313 679 l 1
 1313 667 l 1
 1328 667 l 2
 1329 667 1329 667 1329 666 c 2
 1329 661 l 2
 1329 660 1329 660 1328 660 c 2
 1307 660 l 2
 1306 660 1306 660 1306 661 c 2
 1306 702 l 2
 1306 703 1306 703 1307 703 c 2
1270 703 m 2
 1275 703 l 1
 1276 702 l 1
 1284 676 l 2
 1285 674 1286 672 1286 671 c 1
 1286 672 1286 674 1287 676 c 2
 1296 702 l 1
 1297 703 l 1
 1302 703 l 2
 1303 703 1303 703 1303 702 c 2
 1303 701 l 1
 1289 661 l 1
 1288 660 l 1
 1283 660 l 1
 1282 661 l 1
 1269 701 l 1
 1269 702 l 2
 1269 703 1269 703 1270 703 c 2
1249 666 m 0
 1254 666 1261 669 1261 681 c 0
 1261 686 1260 690 1258 693 c 0
 1256 696 1253 697 1249 697 c 0
 1245 697 1238 695 1238 681 c 0
 1238 677 1239 666 1249 666 c 0
1231 682 m 0
 1231 684 1231 696 1239 701 c 0
 1242 703 1245 703 1249 703 c 0
 1253 703 1268 703 1268 681 c 0
 1268 666 1259 659 1249 659 c 0
 1245 659 1242 660 1239 662 c 0
 1232 667 1231 678 1231 682 c 0
1349 751 m 0
 1349 754 1346 757 1341 757 c 2
 1337 757 l 1
 1337 744 l 1
 1341 744 l 2
 1342 744 1349 744 1349 751 c 0
1358 721 m 2
 1351 721 l 1
 1343 738 l 1
 1337 738 l 1
 1337 722 l 2
 1337 721 1337 721 1336 721 c 2
 1331 721 l 2
 1330 721 1330 721 1330 722 c 2
 1330 763 l 2
 1330 764 1330 764 1331 764 c 2
 1341 764 l 2
 1345 764 1356 764 1356 751 c 0
 1356 749 1356 747 1355 746 c 0
 1355 745 1355 744 1354 743 c 0
 1353 742 1352 742 1351 741 c 0
 1350 741 1350 740 1349 740 c 1
 1359 723 l 1
 1359 722 l 2
 1359 721 1359 721 1358 721 c 2
1308 753 m 1
 1308 751 l 1
 1304 740 l 1
 1313 740 l 1
 1309 751 l 1
 1309 752 l 1
 1308 753 l 1
1306 764 m 1
 1311 764 l 1
 1312 763 l 1
 1326 722 l 1
 1327 722 l 1
 1327 721 1326 721 1325 721 c 2
 1320 721 l 1
 1320 722 l 1
 1315 733 l 1
 1301 733 l 1
 1297 722 l 1
 1296 721 l 1
 1291 721 l 2
 1290 721 1290 721 1290 722 c 2
 1305 763 l 1
 1306 764 l 1
1267 764 m 2
 1288 764 l 2
 1289 764 1289 764 1289 763 c 2
 1289 758 l 2
 1289 757 1289 757 1288 757 c 2
 1273 757 l 1
 1273 746 l 1
 1287 746 l 2
 1288 746 1288 746 1288 745 c 2
 1288 741 l 2
 1288 740 1288 740 1287 740 c 2
 1273 740 l 1
 1273 728 l 1
 1288 728 l 2
 1289 728 1289 727 1289 726 c 2
 1289 722 l 2
 1289 721 1289 721 1288 721 c 2
 1267 721 l 2
 1266 721 1266 721 1266 722 c 2
 1266 763 l 2
 1266 764 1266 764 1267 764 c 2
1252 751 m 0
 1252 754 1249 757 1244 757 c 2
 1239 757 l 1
 1239 744 l 1
 1244 744 l 2
 1245 744 1252 744 1252 751 c 0
1261 721 m 2
 1254 721 l 1
 1245 738 l 1
 1239 738 l 1
 1239 722 l 2
 1239 721 1239 721 1238 721 c 2
 1234 721 l 2
 1233 721 1232 721 1232 722 c 2
 1232 763 l 2
 1232 764 1233 764 1234 764 c 2
 1244 764 l 2
 1248 764 1259 764 1259 751 c 0
 1259 749 1259 747 1258 746 c 0
 1258 745 1258 745 1254 741 c 0
 1253 741 1253 740 1252 740 c 1
 1262 723 l 1
 1262 722 l 2
 1262 721 1262 721 1261 721 c 2
-54 703 m 2
 -49 703 l 1
 -48 702 l 1
 -29 672 l 1
 -29 702 l 2
 -29 703 -29 703 -28 703 c 2
 -24 703 l 2
 -23 703 -23 703 -23 702 c 2
 -23 661 l 2
 -23 660 -23 660 -24 660 c 2
 -30 660 l 1
 -30 661 l 1
 -49 691 l 1
 -49 661 l 2
 -49 660 -49 660 -50 660 c 2
 -54 660 l 2
 -55 660 -55 660 -55 661 c 2
 -55 702 l 2
 -55 703 -55 703 -54 703 c 2
-80 666 m 0
 -70 666 -69 677 -69 681 c 0
 -69 686 -70 690 -72 693 c 0
 -74 696 -76 697 -80 697 c 0
 -83 697 -92 697 -92 681 c 0
 -92 674 -90 666 -80 666 c 0
-99 682 m 0
 -99 703 -85 703 -80 703 c 0
 -75 703 -67 703 -64 693 c 0
 -63 690 -62 685 -62 681 c 0
 -62 674 -64 659 -80 659 c 0
 -84 659 -88 660 -91 662 c 0
 -98 667 -99 678 -99 682 c 0
-117 703 m 2
 -103 703 l 2
 -102 703 -102 703 -102 702 c 2
 -102 699 l 2
 -102 698 -103 698 -103 698 c 1
 -107 697 l 1
 -107 666 l 1
 -103 665 l 1
 -103 665 -102 665 -102 664 c 2
 -102 661 l 2
 -102 660 -102 660 -103 660 c 2
 -117 660 l 2
 -118 660 -118 660 -118 661 c 2
 -118 664 l 2
 -118 665 -117 665 -117 665 c 1
 -114 666 l 1
 -114 697 l 1
 -117 698 l 1
 -117 698 -118 698 -118 699 c 2
 -118 702 l 2
 -118 703 -118 703 -117 703 c 2
-149 703 m 2
 -120 703 l 2
 -119 703 -119 703 -119 702 c 2
 -119 697 l 2
 -119 696 -119 696 -120 696 c 2
 -131 696 l 1
 -131 661 l 2
 -131 660 -131 660 -132 660 c 2
 -137 660 l 2
 -138 660 -138 660 -138 661 c 2
 -138 696 l 1
 -149 696 l 2
 -150 696 -150 696 -150 697 c 2
 -150 699 l 1
 -152 695 l 2
 -152 694 -152 695 -153 695 c 0
 -154 696 -156 696 -157 696 c 0
 -158 696 -159 697 -161 697 c 0
 -164 697 -173 697 -173 681 c 0
 -173 676 -172 673 -170 670 c 0
 -168 667 -165 666 -161 666 c 0
 -159 666 -158 667 -157 667 c 0
 -156 667 -153 668 -152 668 c 0
 -151 668 -151 668 -151 667 c 2
 -151 662 l 1
 -153 660 -153 660 -156 660 c 0
 -158 660 -160 659 -162 659 c 0
 -173 659 -178 667 -179 670 c 0
 -180 673 -181 677 -181 681 c 0
 -181 686 -180 703 -161 703 c 0
 -157 703 -153 703 -150 701 c 1
 -150 702 l 2
 -150 703 -150 703 -149 703 c 2
-207 703 m 2
 -186 703 l 2
 -185 703 -185 703 -185 702 c 2
 -185 697 l 2
 -185 696 -185 696 -186 696 c 2
 -202 696 l 1
 -202 686 l 1
 -187 686 l 2
 -186 686 -186 686 -186 685 c 2
 -186 680 l 2
 -186 679 -186 679 -187 679 c 2
 -202 679 l 1
 -202 667 l 1
 -186 667 l 2
 -185 667 -185 667 -185 666 c 2
 -185 661 l 2
 -185 660 -185 660 -186 660 c 2
 -207 660 l 2
 -208 660 -208 660 -208 661 c 2
 -208 702 l 2
 -208 703 -208 703 -207 703 c 2
-231 656 m 2
 -225 656 l 2
 -224 656 -224 657 -224 658 c 0
 -224 659 -223 659 -223 661 c 2
 -223 702 l 2
 -223 703 -223 703 -222 703 c 2
 -217 703 l 2
 -216 703 -216 703 -216 702 c 2
 -216 662 l 2
 -216 656 -218 649 -227 649 c 2
 -230 649 l 2
 -231 649 -231 650 -232 650 c 1
 -232 655 l 2
 -232 656 -232 656 -231 656 c 2
-248 666 m 0
 -237 666 -237 674 -237 681 c 0
 -237 686 -237 690 -239 693 c 0
 -241 696 -244 697 -248 697 c 0
 -251 697 -260 697 -260 681 c 0
 -260 674 -258 666 -248 666 c 0
-267 682 m 0
 -267 692 -264 703 -248 703 c 0
 -243 703 -235 703 -232 693 c 0
 -231 690 -229 685 -229 681 c 0
 -229 681 -230 659 -248 659 c 0
 -252 659 -255 660 -258 662 c 0
 -261 664 -267 668 -267 682 c 0
-279 690 m 0
 -279 696 -280 696 -287 696 c 2
 -291 696 l 1
 -291 683 l 1
 -286 683 l 2
 -279 683 -279 687 -279 690 c 0
-286 703 m 2
 -272 703 -272 696 -272 690 c 0
 -272 688 -271 686 -272 685 c 0
 -272 684 -273 683 -274 682 c 0
 -275 681 -276 681 -277 680 c 0
 -278 680 -278 679 -279 679 c 1
 -269 662 l 2
 -269 661 -269 660 -270 660 c 2
 -275 660 l 1
 -279 665 -282 671 -285 677 c 1
 -291 677 l 1
 -291 661 l 2
 -291 660 -291 660 -292 660 c 2
 -297 660 l 2
 -298 660 -298 660 -298 661 c 2
 -298 702 l 2
 -298 703 -298 703 -297 703 c 2
 -286 703 l 2
-311 690 m 0
 -311 696 -315 696 -320 696 c 2
 -324 696 l 1
 -324 682 l 1
 -321 682 l 2
 -313 682 -311 685 -311 690 c 0
-304 690 m 0
 -304 688 -305 676 -320 676 c 2
 -324 676 l 1
 -324 661 l 2
 -324 660 -324 660 -325 660 c 2
 -329 660 l 2
 -330 660 -330 660 -330 661 c 2
 -330 702 l 2
 -330 703 -330 703 -329 703 c 2
 -319 703 l 2
 -319 703 -304 703 -304 690 c 0
-191 764 m 2
 -162 764 l 2
 -161 764 -161 764 -161 763 c 2
 -161 758 l 2
 -161 757 -161 757 -162 757 c 2
 -173 757 l 1
 -173 722 l 2
 -173 721 -173 721 -174 721 c 2
 -179 721 l 2
 -180 721 -180 721 -180 722 c 2
 -180 757 l 1
 -191 757 l 2
 -192 757 -192 757 -192 758 c 2
 -192 763 l 2
 -192 764 -192 764 -191 764 c 2
-196 721 m 2
 -203 721 l 1
 -221 752 l 1
 -221 722 l 2
 -221 721 -221 721 -222 721 c 2
 -227 721 l 2
 -228 721 -228 721 -228 722 c 2
 -228 763 l 2
 -228 764 -228 764 -227 764 c 2
 -221 764 l 1
 -220 763 l 1
 -202 733 l 1
 -202 763 l 2
 -202 764 -202 764 -201 764 c 2
 -196 764 l 2
 -195 764 -195 764 -195 763 c 2
 -195 722 l 2
 -195 721 -195 721 -196 721 c 2
-253 727 m 0
 -248 727 -241 730 -241 742 c 0
 -241 747 -242 751 -244 754 c 0
 -246 757 -249 758 -253 758 c 0
 -257 758 -259 757 -261 754 c 0
 -263 751 -264 747 -264 742 c 0
 -264 737 -263 734 -261 731 c 0
 -259 728 -257 727 -253 727 c 0
-271 742 m 0
 -271 756 -265 759 -263 761 c 0
 -260 763 -257 764 -253 764 c 0
 -243 764 -234 759 -234 742 c 0
 -234 738 -235 734 -236 731 c 0
 -237 728 -241 720 -253 720 c 0
 -269 720 -271 735 -271 742 c 0
-283 751 m 0
 -283 754 -286 757 -291 757 c 2
 -296 757 l 1
 -296 744 l 1
 -291 744 l 2
 -290 744 -283 744 -283 751 c 0
-274 721 m 2
 -281 721 l 1
 -290 738 l 1
 -296 738 l 1
 -296 722 l 2
 -296 721 -296 721 -297 721 c 2
 -302 721 l 2
 -303 721 -303 721 -303 722 c 2
 -303 763 l 2
 -303 764 -303 764 -302 764 c 2
 -291 764 l 2
 -287 764 -276 764 -276 751 c 0
 -276 749 -276 747 -277 746 c 0
 -277 745 -278 744 -279 743 c 0
 -280 742 -281 742 -282 741 c 0
 -283 741 -282 740 -283 740 c 1
 -273 723 l 2
 -273 722 -273 721 -274 721 c 2
-329 764 m 2
 -308 764 l 2
 -307 764 -307 764 -307 763 c 2
 -307 758 l 2
 -307 757 -307 757 -308 757 c 2
 -324 757 l 1
 -324 745 l 1
 -309 745 l 2
 -308 745 -308 745 -308 744 c 2
 -308 739 l 2
 -308 738 -308 738 -309 738 c 2
 -324 738 l 1
 -324 722 l 2
 -324 721 -324 721 -325 721 c 2
 -329 721 l 2
 -330 721 -330 721 -330 722 c 2
 -330 763 l 2
 -330 764 -330 764 -329 764 c 2
1525 634 m 0
 1528 634 1531 631 1531 628 c 2
 1531 583 l 2
 1531 580 1528 577 1525 577 c 0
 1522 577 1519 580 1519 583 c 2
 1519 600 l 1
 1241 600 l 1
 1241 582 l 2
 1241 579 1238 577 1235 577 c 0
 1232 577 1229 579 1229 582 c 2
 1229 628 l 2
 1229 631 1232 634 1235 634 c 0
 1238 634 1241 631 1241 628 c 2
 1241 611 l 1
 1519 611 l 1
 1519 628 l 2
 1519 631 1522 634 1525 634 c 0
-324 634 m 0
 -321 634 -318 631 -318 628 c 2
 -318 611 l 1
 -112 611 l 1
 -112 628 l 2
 -112 631 -110 634 -107 634 c 0
 -104 634 -101 631 -101 628 c 2
 -101 583 l 2
 -101 580 -104 577 -107 577 c 0
 -110 577 -112 580 -112 583 c 2
 -112 600 l 1
 -318 600 l 1
 -318 583 l 2
 -318 580 -321 577 -324 577 c 0
 -327 577 -329 580 -329 583 c 2
 -329 628 l 2
 -329 631 -327 634 -324 634 c 0
1235 268 m 0
 1238 268 1241 266 1241 263 c 2
 1241 251 l 2
 1241 248 1238 246 1235 246 c 0
 1232 246 1229 248 1229 251 c 2
 1229 263 l 2
 1229 266 1232 268 1235 268 c 0
1235 314 m 0
 1238 314 1241 311 1241 308 c 2
 1241 297 l 2
 1241 294 1238 291 1235 291 c 0
 1232 291 1229 294 1229 297 c 2
 1229 308 l 2
 1229 311 1232 314 1235 314 c 0
-107 331 m 0
 -104 331 -101 329 -101 326 c 2
 -101 314 l 2
 -101 311 -104 309 -107 309 c 0
 -110 309 -112 311 -112 314 c 2
 -112 326 l 2
 -112 329 -110 331 -107 331 c 0
1235 360 m 0
 1238 360 1241 357 1241 354 c 2
 1241 343 l 2
 1241 340 1238 337 1235 337 c 0
 1232 337 1229 340 1229 343 c 2
 1229 354 l 2
 1229 357 1232 360 1235 360 c 0
-107 377 m 0
 -104 377 -101 374 -101 371 c 2
 -101 360 l 2
 -101 357 -104 354 -107 354 c 0
 -110 354 -112 357 -112 360 c 2
 -112 371 l 2
 -112 374 -110 377 -107 377 c 0
1235 405 m 0
 1238 405 1241 403 1241 400 c 2
 1241 388 l 2
 1241 385 1238 383 1235 383 c 0
 1232 383 1229 385 1229 388 c 2
 1229 400 l 2
 1229 403 1232 405 1235 405 c 0
-107 423 m 0
 -104 423 -101 420 -101 417 c 2
 -101 406 l 2
 -101 403 -104 400 -107 400 c 0
 -110 400 -112 403 -112 406 c 2
 -112 417 l 2
 -112 420 -110 423 -107 423 c 0
1235 451 m 0
 1238 451 1241 448 1241 445 c 2
 1241 434 l 2
 1241 431 1238 428 1235 428 c 0
 1232 428 1229 431 1229 434 c 2
 1229 445 l 2
 1229 448 1232 451 1235 451 c 0
-107 468 m 0
 -104 468 -101 466 -101 463 c 2
 -101 451 l 2
 -101 448 -104 446 -107 446 c 0
 -110 446 -112 448 -112 451 c 2
 -112 463 l 2
 -112 466 -110 468 -107 468 c 0
1235 497 m 0
 1238 497 1241 494 1241 491 c 2
 1241 480 l 2
 1241 477 1238 474 1235 474 c 0
 1232 474 1229 477 1229 480 c 2
 1229 491 l 2
 1229 494 1232 497 1235 497 c 0
-107 514 m 0
 -104 514 -101 511 -101 508 c 2
 -101 497 l 2
 -101 494 -104 491 -107 491 c 0
 -110 491 -112 494 -112 497 c 2
 -112 508 l 2
 -112 511 -110 514 -107 514 c 0
1235 542 m 0
 1238 542 1241 540 1241 537 c 2
 1241 525 l 2
 1241 522 1238 520 1235 520 c 0
 1232 520 1229 522 1229 525 c 2
 1229 537 l 2
 1229 540 1232 542 1235 542 c 0
-318 543 m 1
 -318 274 l 1
 -112 274 l 1
 -112 280 l 2
 -112 283 -110 286 -107 286 c 0
 -104 286 -101 283 -101 280 c 2
 -101 274 l 1
 150 274 l 2
 151 274 153 274 154 273 c 2
 243 211 l 1
 1229 211 l 1
 1229 217 l 2
 1229 220 1232 223 1235 223 c 0
 1238 223 1241 220 1241 217 c 2
 1241 211 l 1
 1521 211 l 1
 1521 543 l 1
 -101 543 l 1
 -101 540 -104 537 -107 537 c 0
 -110 537 -112 540 -112 543 c 1
 -318 543 l 1
-324 554 m 2
 1526 554 l 2
 1529 554 1532 551 1532 548 c 2
 1532 206 l 2
 1532 203 1529 200 1526 200 c 2
 242 200 l 2
 241 200 240 201 240 201 c 1
 238 201 l 1
 149 263 l 1
 -324 263 l 2
 -327 263 -329 266 -329 269 c 2
 -329 548 l 2
 -329 551 -327 554 -324 554 c 2
-55 -69 m 2
 424 -69 l 2
 427 -69 430 -72 430 -75 c 0
 430 -78 427 -81 424 -81 c 2
 -55 -81 l 2
 -58 -81 -61 -78 -61 -75 c 0
 -61 -72 -58 -69 -55 -69 c 2
1235 -24 m 0
 1238 -24 1241 -26 1241 -29 c 2
 1241 -115 l 2
 1241 -118 1238 -121 1235 -121 c 0
 1232 -121 1229 -118 1229 -115 c 2
 1229 -81 l 1
 744 -81 l 2
 741 -81 738 -78 738 -75 c 0
 738 -72 741 -69 744 -69 c 2
 1229 -69 l 1
 1229 -29 l 2
 1229 -26 1232 -24 1235 -24 c 0
-130 228 m 1
 -130 223 l 1
 127 223 l 2
 129 223 131 221 132 220 c 2
 175 160 l 1
 1304 160 l 2
 1306 160 1308 158 1309 156 c 2
 1342 74 l 1
 1368 74 l 1
 1395 155 l 1
 1395 166 l 1
 230 166 l 2
 229 166 228 166 227 167 c 2
 137 228 l 1
 -130 228 l 1
-135 240 m 2
 139 240 l 2
 140 240 141 240 142 239 c 2
 232 177 l 1
 1401 177 l 2
 1404 177 1406 174 1406 171 c 2
 1406 152 l 1
 1377 67 l 2
 1376 65 1375 63 1372 63 c 2
 1338 63 l 2
 1336 63 1333 64 1332 66 c 2
 1300 148 l 1
 172 148 l 2
 170 148 168 150 167 151 c 2
 124 211 l 1
 -90 211 l 1
 -90 208 -92 206 -95 206 c 2
 -118 206 l 2
 -121 206 -124 208 -124 211 c 1
 -135 211 l 2
 -138 211 -141 214 -141 217 c 2
 -141 234 l 2
 -141 237 -138 240 -135 240 c 2
1235 95 m 0
 1220 95 1208 82 1208 67 c 0
 1208 52 1220 40 1235 40 c 0
 1250 40 1262 52 1262 67 c 0
 1262 82 1250 95 1235 95 c 0
1235 106 m 0
 1256 106 1274 88 1274 67 c 0
 1274 46 1256 29 1235 29 c 0
 1214 29 1196 46 1196 67 c 0
 1196 88 1214 106 1235 106 c 0
1235 123 m 0
 1204 123 1179 98 1179 67 c 0
 1179 36 1204 11 1235 11 c 0
 1266 11 1291 36 1291 67 c 0
 1291 98 1266 123 1235 123 c 0
1235 135 m 0
 1272 135 1302 104 1302 67 c 0
 1302 30 1272 0 1235 0 c 0
 1198 0 1168 30 1168 67 c 0
 1168 104 1198 135 1235 135 c 0
EndSplineSet
Validated: 161
LCarets2: 1 0
Ligature2: "liga_Trailers" one T
EndChar

StartChar: two_T
Encoding: 97 -1 7
Width: 1101
Flags: HMW
LayerCount: 2
Fore
SplineSet
1212 -75 m 0
 1212 -70 1215 -59 1200 -59 c 2
 1191 -59 l 1
 1191 -91 l 1
 1212 -91 1212 -81 1212 -75 c 0
1220 -74 m 0
 1220 -82 1217 -98 1196 -98 c 2
 1184 -98 l 2
 1183 -98 1183 -98 1183 -97 c 2
 1183 -53 l 2
 1183 -52 1183 -52 1184 -52 c 2
 1198 -52 l 2
 1210 -52 1220 -58 1220 -74 c 0
1154 -59 m 1
 1154 -74 l 1
 1157 -74 l 2
 1161 -74 1164 -73 1166 -72 c 0
 1168 -71 1168 -69 1168 -66 c 0
 1168 -63 1168 -62 1166 -61 c 0
 1165 -60 1162 -59 1158 -59 c 2
 1154 -59 l 1
1147 -52 m 2
 1159 -52 l 2
 1165 -52 1169 -52 1172 -55 c 0
 1175 -57 1176 -62 1176 -66 c 0
 1176 -68 1176 -69 1175 -71 c 0
 1174 -73 1173 -75 1172 -76 c 0
 1170 -77 1168 -79 1166 -80 c 0
 1164 -81 1161 -81 1158 -81 c 2
 1154 -81 l 1
 1154 -97 l 2
 1154 -98 1154 -98 1153 -98 c 2
 1147 -98 l 2
 1146 -98 1146 -98 1146 -97 c 2
 1146 -53 l 2
 1146 -52 1146 -52 1147 -52 c 2
1110 -63 m 0
 1110 -56 1115 -51 1125 -51 c 0
 1131 -51 1139 -53 1138 -55 c 2
 1138 -60 l 2
 1137 -62 1132 -58 1125 -58 c 0
 1124 -58 1118 -58 1118 -63 c 0
 1118 -66 1120 -68 1127 -71 c 0
 1130 -72 1132 -73 1134 -74 c 1
 1136 -75 1137 -77 1138 -79 c 1
 1139 -81 1140 -83 1140 -85 c 0
 1140 -93 1133 -98 1123 -98 c 0
 1117 -98 1110 -97 1110 -95 c 2
 1110 -90 l 2
 1110 -89 1110 -88 1117 -90 c 1
 1119 -91 1121 -91 1123 -91 c 0
 1126 -91 1132 -90 1132 -85 c 0
 1132 -75 1110 -80 1110 -63 c 0
570 -75 m 4
 570 -61 578 -52 592 -52 c 4
 594 -52 596 -53 598 -53 c 5
 600 -53 606 -54 605 -56 c 6
 605 -61 l 6
 605 -62 605 -62 597 -60 c 5
 595 -59 593 -59 591 -59 c 4
 587 -59 577 -60 577 -75 c 4
 577 -84 580 -92 591 -92 c 4
 593 -92 595 -92 598 -91 c 5
 598 -80 l 5
 597 -80 589 -80 589 -79 c 6
 589 -74 l 6
 589 -73 589 -73 590 -73 c 6
 604 -73 l 6
 605 -73 605 -73 605 -74 c 6
 605 -95 l 6
 605 -97 597 -99 590 -99 c 4
 586 -99 582 -98 579 -96 c 5
 574 -93 570 -87 570 -75 c 4
530 -53 m 6
 536 -53 l 6
 536 -53 l 6
 556 -86 l 5
 556 -85 l 4
 556 -84 556 -82 556 -81 c 4
 556 -80 556 -79 556 -78 c 6
 556 -54 l 6
 556 -53 556 -53 557 -53 c 6
 562 -53 l 6
 563 -53 563 -53 563 -54 c 6
 563 -97 l 6
 563 -98 563 -98 562 -98 c 6
 556 -98 l 6
 555 -98 l 6
 535 -65 l 5
 535 -66 l 4
 535 -68 535 -71 535 -73 c 6
 535 -97 l 6
 535 -98 535 -98 534 -98 c 6
 530 -98 l 6
 529 -98 529 -98 529 -97 c 6
 529 -54 l 6
 529 -53 529 -53 530 -53 c 6
507 -53 m 6
 522 -53 l 6
 523 -53 523 -53 523 -54 c 6
 523 -57 l 6
 523 -58 523 -58 522 -58 c 6
 518 -59 l 5
 518 -92 l 5
 522 -93 l 6
 523 -93 523 -93 523 -94 c 6
 523 -97 l 6
 523 -98 523 -98 522 -98 c 6
 507 -98 l 6
 506 -98 506 -98 506 -97 c 6
 506 -94 l 6
 506 -93 506 -93 507 -93 c 6
 511 -92 l 5
 511 -59 l 5
 507 -58 l 6
 507 -58 506 -58 506 -57 c 6
 506 -54 l 6
 506 -53 506 -53 507 -53 c 6
474 -63 m 5
 476 -59 481 -52 492 -52 c 4
 498 -52 505 -54 504 -56 c 6
 504 -61 l 6
 503 -63 479 -50 479 -75 c 4
 479 -80 480 -84 482 -87 c 5
 484 -90 488 -92 492 -92 c 4
 499 -92 503 -88 503 -91 c 6
 503 -96 l 6
 503 -98 497 -99 491 -99 c 4
 477 -99 472 -88 472 -75 c 4
 472 -71 472 -66 474 -63 c 5
452 -64 m 6
 452 -65 451 -65 451 -66 c 4
 447 -78 l 5
 457 -78 l 5
 453 -66 l 6
 453 -66 453 -66 453 -65 c 4
 453 -65 l 4
 452 -64 l 6
450 -53 m 6
 455 -53 l 6
 456 -53 l 6
 471 -96 l 6
 471 -97 471 -98 470 -98 c 6
 465 -98 l 6
 464 -97 l 6
 459 -85 l 5
 445 -85 l 5
 440 -97 l 6
 439 -98 l 6
 434 -98 l 6
 433 -98 433 -97 433 -96 c 6
 449 -53 l 6
 450 -53 l 6
414 -60 m 5
 414 -74 l 5
 417 -74 l 6
 421 -74 423 -74 425 -73 c 4
 427 -72 428 -70 428 -67 c 4
 428 -64 427 -63 426 -62 c 5
 425 -61 422 -60 419 -60 c 6
 414 -60 l 5
408 -53 m 6
 419 -53 l 6
 424 -53 428 -54 431 -56 c 4
 434 -58 435 -63 435 -67 c 4
 435 -69 435 -70 434 -72 c 6
 433 -74 432 -76 431 -77 c 4
 430 -78 428 -79 426 -80 c 4
 424 -81 421 -81 418 -81 c 6
 414 -81 l 5
 414 -97 l 6
 414 -98 414 -98 413 -98 c 6
 408 -98 l 6
 407 -98 407 -98 407 -97 c 6
 407 -54 l 6
 407 -53 407 -53 408 -53 c 6
374 -64 m 4
 374 -57 379 -52 388 -52 c 4
 393 -52 401 -54 400 -56 c 6
 400 -61 l 6
 399 -63 394 -59 388 -59 c 4
 386 -59 381 -60 381 -64 c 4
 381 -68 383 -70 389 -72 c 5
 391 -73 398 -75 400 -79 c 5
 401 -81 401 -83 401 -85 c 4
 401 -87 401 -99 386 -99 c 4
 380 -99 373 -97 373 -95 c 6
 373 -90 l 6
 373 -88 379 -92 386 -92 c 4
 389 -92 394 -91 394 -86 c 4
 394 -76 374 -80 374 -64 c 4
1424 703 m 1
 1426 703 1428 704 1430 703 c 0
 1432 702 1435 702 1436 700 c 0
 1436 699 1435 698 1435 697 c 0
 1434 696 1434 694 1433 694 c 0
 1431 695 1428 696 1426 696 c 0
 1421 697 1416 696 1413 692 c 0
 1410 688 1409 681 1410 676 c 0
 1411 672 1414 668 1418 667 c 0
 1422 666 1426 666 1430 667 c 0
 1430 670 1430 674 1430 677 c 1
 1429 677 1426 677 1425 677 c 0
 1424 677 1423 676 1422 677 c 0
 1421 678 1421 679 1421 680 c 0
 1421 681 1420 684 1422 684 c 0
 1426 684 1430 684 1434 684 c 0
 1435 684 1437 685 1437 683 c 0
 1437 677 1437 672 1437 666 c 0
 1437 665 1436 663 1436 662 c 0
 1434 661 1431 661 1429 660 c 0
 1424 659 1419 659 1414 661 c 0
 1408 663 1404 668 1403 674 c 0
 1402 681 1403 690 1407 696 c 0
 1411 702 1418 703 1424 703 c 1
1365 703 m 2
 1371 703 l 0
 1372 702 l 2
 1390 672 l 1
 1390 673 l 0
 1390 674 1390 675 1390 676 c 0
 1390 677 1390 678 1390 679 c 2
 1390 702 l 2
 1390 703 1390 703 1391 703 c 2
 1395 703 l 2
 1396 703 1396 703 1396 702 c 2
 1396 661 l 1
 1396 660 1396 660 1395 660 c 2
 1390 660 l 0
 1389 661 l 2
 1370 691 l 1
 1370 690 l 0
 1370 688 1371 686 1371 684 c 2
 1371 661 l 2
 1371 660 1370 660 1369 660 c 2
 1365 660 l 2
 1364 660 1364 660 1364 661 c 2
 1364 702 l 2
 1364 703 1364 703 1365 703 c 2
1343 693 m 2
 1343 692 1342 691 1342 690 c 0
 1338 679 l 1
 1347 679 l 1
 1344 690 l 2
 1344 690 1343 690 1343 691 c 0
 1343 691 l 0
 1343 693 l 2
1341 703 m 2
 1345 703 l 1
 1346 702 l 2
 1361 662 l 2
 1361 661 l 0
 1361 660 1361 660 1360 660 c 2
 1355 660 l 2
 1354 661 l 2
 1350 673 l 1
 1336 673 l 1
 1332 661 l 0
 1331 660 l 0
 1326 660 l 1
 1325 660 1325 660 1325 661 c 0
 1325 662 l 2
 1340 702 l 0
 1341 703 l 2
1291 703 m 2
 1296 703 l 2
 1297 703 1297 703 1297 702 c 2
 1297 686 l 1
 1315 686 l 1
 1315 702 l 2
 1315 703 1315 703 1316 703 c 2
 1320 703 l 2
 1321 703 1321 703 1321 702 c 2
 1321 661 l 2
 1321 660 1321 660 1320 660 c 2
 1316 660 l 2
 1315 660 1315 660 1315 661 c 2
 1315 679 l 1
 1297 679 l 1
 1297 661 l 2
 1297 660 1297 660 1296 660 c 2
 1291 660 l 2
 1290 660 1290 660 1290 661 c 2
 1290 702 l 2
 1290 703 1290 703 1291 703 c 2
1264 696 m 1
 1264 683 l 1
 1269 683 l 2
 1272 683 1274 684 1275 685 c 0
 1276 686 1276 688 1276 690 c 0
 1276 692 1276 694 1275 695 c 0
 1274 696 1271 696 1268 696 c 2
 1264 696 l 1
1258 703 m 2
 1269 703 l 2
 1274 703 1277 702 1280 700 c 0
 1283 698 1283 694 1283 690 c 0
 1283 688 1284 686 1283 685 c 0
 1283 684 1282 683 1281 682 c 0
 1280 681 1279 681 1278 680 c 0
 1277 680 1277 679 1276 679 c 1
 1286 662 l 1
 1286 661 l 0
 1286 660 1286 660 1285 660 c 2
 1280 660 l 0
 1279 661 l 2
 1270 677 l 1
 1264 677 l 1
 1264 661 l 2
 1264 660 1264 660 1263 660 c 2
 1258 660 l 1
 1257 660 1257 660 1257 661 c 2
 1257 702 l 2
 1257 703 1257 703 1258 703 c 2
1228 703 m 2
 1250 703 l 2
 1251 703 1251 703 1251 702 c 2
 1251 697 l 2
 1251 696 1251 696 1250 696 c 2
 1234 696 l 1
 1234 686 l 1
 1249 686 l 2
 1250 686 1250 686 1250 685 c 2
 1250 680 l 2
 1250 679 1250 679 1249 679 c 2
 1234 679 l 1
 1234 667 l 1
 1250 667 l 2
 1251 667 1251 667 1251 666 c 2
 1251 661 l 2
 1251 660 1251 660 1250 660 c 2
 1228 660 l 2
 1227 660 1227 660 1227 661 c 2
 1227 702 l 2
 1227 703 1227 703 1228 703 c 2
1191 703 m 2
 1196 703 l 2
 1197 702 l 2
 1206 676 l 2
 1207 674 1207 672 1207 671 c 1
 1207 672 1207 674 1208 676 c 2
 1217 702 l 2
 1218 703 l 0
 1223 703 l 2
 1224 703 1224 703 1224 702 c 0
 1224 701 l 2
 1210 661 l 2
 1209 660 l 2
 1205 660 l 2
 1204 661 l 2
 1190 701 l 2
 1190 702 l 0
 1190 703 1190 703 1191 703 c 2
1258 757 m 1
 1258 744 l 1
 1263 744 l 2
 1266 744 1268 745 1269 746 c 0
 1270 747 1270 749 1270 751 c 0
 1270 753 1270 754 1269 755 c 0
 1268 756 1265 757 1262 757 c 2
 1258 757 l 1
1252 764 m 2
 1263 764 l 2
 1268 764 1271 763 1274 761 c 0
 1277 759 1278 755 1278 751 c 0
 1278 749 1278 747 1277 746 c 0
 1277 745 1276 744 1275 743 c 0
 1274 742 1273 742 1272 741 c 0
 1271 741 1271 740 1270 740 c 1
 1280 723 l 1
 1280 722 l 0
 1280 721 1280 721 1279 721 c 2
 1274 721 l 0
 1273 721 l 2
 1264 738 l 1
 1258 738 l 1
 1258 722 l 2
 1258 721 1258 721 1257 721 c 2
 1252 721 l 2
 1251 721 1251 721 1251 722 c 2
 1251 763 l 2
 1251 764 1251 764 1252 764 c 2
1230 753 m 1
 1230 752 1229 752 1229 751 c 0
 1225 740 l 1
 1234 740 l 1
 1231 751 l 2
 1231 751 1230 751 1230 752 c 0
 1230 752 l 0
 1230 753 l 1
1228 764 m 2
 1232 764 l 0
 1233 763 l 2
 1248 722 l 2
 1248 722 l 0
 1248 721 1248 721 1247 721 c 2
 1242 721 l 2
 1241 722 l 2
 1237 733 l 1
 1223 733 l 1
 1219 722 l 0
 1218 721 l 2
 1213 721 l 1
 1212 721 1212 721 1212 722 c 0
 1212 722 l 2
 1227 763 l 2
 1228 764 l 2
1188 764 m 2
 1210 764 l 2
 1211 764 1211 764 1211 763 c 2
 1211 758 l 2
 1211 757 1211 757 1210 757 c 2
 1194 757 l 1
 1194 746 l 1
 1209 746 l 2
 1210 746 1210 746 1210 745 c 2
 1210 741 l 2
 1210 740 1210 740 1209 740 c 2
 1194 740 l 1
 1194 728 l 1
 1210 728 l 2
 1211 728 1211 727 1211 726 c 2
 1211 722 l 2
 1211 721 1211 721 1210 721 c 2
 1188 721 l 2
 1187 721 1187 721 1187 722 c 2
 1187 763 l 2
 1187 764 1187 764 1188 764 c 2
1161 757 m 1
 1161 744 l 1
 1165 744 l 2
 1168 744 1171 745 1172 746 c 0
 1173 747 1173 749 1173 751 c 0
 1173 753 1173 754 1172 755 c 0
 1171 756 1168 757 1165 757 c 2
 1161 757 l 1
1155 764 m 2
 1165 764 l 2
 1170 764 1174 763 1177 761 c 0
 1180 759 1180 755 1180 751 c 0
 1180 749 1181 747 1180 746 c 2
 1180 745 1179 744 1178 743 c 0
 1177 742 1176 742 1175 741 c 0
 1174 741 1174 740 1173 740 c 1
 1183 723 l 1
 1183 722 l 0
 1183 721 1183 721 1182 721 c 0
 1177 721 l 1
 1176 721 l 2
 1167 738 l 1
 1161 738 l 1
 1161 722 l 2
 1161 721 1161 721 1160 721 c 2
 1155 721 l 2
 1154 721 1154 721 1154 722 c 2
 1154 763 l 2
 1154 764 1154 764 1155 764 c 2
-51 703 m 2
 -46 703 l 2
 -45 703 l 2
 -26 672 l 1
 -26 673 l 0
 -26 674 -26 675 -26 676 c 0
 -26 677 -27 678 -27 679 c 2
 -27 702 l 2
 -27 703 -26 703 -25 703 c 2
 -21 703 l 2
 -20 703 -20 703 -20 702 c 2
 -20 662 l 2
 -20 661 -20 661 -21 661 c 2
 -27 661 l 2
 -27 661 l 2
 -46 692 l 1
 -46 691 l 0
 -46 689 -46 686 -46 684 c 2
 -46 662 l 2
 -46 661 -46 661 -47 661 c 2
 -51 661 l 2
 -52 661 -52 661 -52 662 c 2
 -52 702 l 2
 -52 703 -52 703 -51 703 c 2
-77 667 m 0
 -70 667 -66 671 -66 682 c 0
 -66 687 -67 690 -69 693 c 1
 -71 696 -73 697 -77 697 c 0
 -84 697 -89 693 -89 682 c 0
 -89 673 -85 667 -77 667 c 0
-96 682 m 0
 -96 685 -96 704 -77 704 c 0
 -72 704 -65 702 -61 693 c 1
 -60 690 -59 686 -59 682 c 0
 -59 677 -60 660 -77 660 c 0
 -81 660 -85 661 -88 663 c 1
 -92 665 -96 671 -96 682 c 0
-114 703 m 2
 -100 703 l 2
 -99 703 -99 703 -99 702 c 2
 -99 699 l 2
 -99 698 -100 698 -100 698 c 2
 -104 697 l 1
 -104 667 l 1
 -100 666 l 2
 -100 666 -99 666 -99 665 c 2
 -99 662 l 2
 -99 661 -99 661 -100 661 c 2
 -114 661 l 2
 -115 661 -115 661 -115 662 c 2
 -115 665 l 2
 -115 666 -114 666 -114 666 c 2
 -111 667 l 1
 -111 697 l 1
 -114 698 l 2
 -114 698 -115 698 -115 699 c 2
 -115 702 l 2
 -115 703 -115 703 -114 703 c 2
-146 703 m 2
 -117 703 l 2
 -116 703 -116 703 -116 702 c 2
 -116 698 l 2
 -116 697 -116 697 -117 697 c 2
 -128 697 l 1
 -128 662 l 2
 -128 661 -128 661 -129 661 c 2
 -134 661 l 2
 -135 661 -135 661 -135 662 c 2
 -135 697 l 1
 -146 697 l 2
 -147 697 -147 697 -147 698 c 2
 -147 702 l 2
 -147 703 -147 703 -146 703 c 2
-158 704 m 1
 -154 704 -150 703 -147 701 c 0
 -146 701 -147 701 -147 700 c 2
 -149 696 l 2
 -149 695 -149 695 -150 695 c 0
 -151 696 -153 697 -154 697 c 0
 -155 697 -156 697 -158 697 c 0
 -162 697 -165 696 -167 693 c 0
 -169 690 -170 687 -170 682 c 0
 -170 677 -169 674 -167 671 c 1
 -165 668 -162 667 -158 667 c 0
 -156 667 -155 667 -154 667 c 0
 -153 667 -151 668 -150 668 c 0
 -149 668 -148 668 -148 667 c 2
 -148 663 l 2
 -149 662 l 0
 -150 661 -152 660 -154 660 c 1
 -156 660 -157 660 -159 660 c 0
 -163 660 -166 661 -169 663 c 0
 -172 665 -175 667 -176 670 c 0
 -177 673 -178 678 -178 682 c 0
 -178 686 -176 690 -175 693 c 0
 -173 696 -172 699 -169 701 c 0
 -166 703 -162 704 -158 704 c 1
-204 703 m 2
 -183 703 l 2
 -182 703 -182 703 -182 702 c 2
 -182 698 l 2
 -182 697 -182 697 -183 697 c 2
 -199 697 l 1
 -199 686 l 1
 -184 686 l 2
 -183 686 -183 686 -183 685 c 2
 -183 681 l 2
 -183 680 -183 680 -184 680 c 2
 -199 680 l 1
 -199 667 l 1
 -183 667 l 2
 -182 667 -182 667 -182 666 c 2
 -182 662 l 2
 -182 661 -182 661 -183 661 c 2
 -204 661 l 2
 -205 661 -205 661 -205 662 c 2
 -205 702 l 2
 -205 703 -205 703 -204 703 c 2
-219 703 m 2
 -214 703 l 2
 -213 703 -213 703 -213 702 c 2
 -213 662 l 2
 -213 658 -214 655 -216 653 c 0
 -218 651 -221 650 -224 650 c 0
 -225 650 -226 650 -227 650 c 0
 -227 650 l 0
 -228 650 -228 651 -229 651 c 0
 -229 652 l 2
 -229 656 l 2
 -229 657 -229 657 -228 657 c 0
 -227 657 -227 657 -226 657 c 0
 -226 657 l 0
 -225 657 -226 656 -225 656 c 0
 -224 656 -223 657 -222 657 c 0
 -221 657 -221 657 -221 658 c 0
 -221 659 -220 660 -220 662 c 2
 -220 702 l 2
 -220 703 -220 703 -219 703 c 2
-234 682 m 0
 -234 685 -234 697 -245 697 c 0
 -252 697 -257 693 -257 682 c 0
 -257 673 -253 667 -245 667 c 0
 -238 667 -234 671 -234 682 c 0
-264 682 m 0
 -264 689 -262 704 -245 704 c 0
 -240 704 -233 702 -229 693 c 1
 -228 690 -226 686 -226 682 c 0
 -226 677 -228 660 -245 660 c 0
 -249 660 -253 661 -256 663 c 1
 -260 666 -264 671 -264 682 c 0
-288 697 m 1
 -288 684 l 1
 -284 684 l 2
 -281 684 -278 685 -277 686 c 0
 -276 687 -276 689 -276 691 c 0
 -276 693 -276 694 -277 695 c 0
 -278 696 -281 697 -284 697 c 2
 -288 697 l 1
-294 703 m 2
 -284 703 l 2
 -279 703 -275 702 -272 700 c 0
 -269 698 -269 695 -269 691 c 0
 -269 689 -268 687 -269 686 c 0
 -269 685 -270 684 -271 683 c 0
 -272 682 -273 681 -274 680 c 2
 -275 680 -275 679 -276 679 c 1
 -266 662 l 2
 -266 661 -266 661 -267 661 c 2
 -272 661 l 2
 -273 661 l 2
 -282 677 l 1
 -288 677 l 1
 -288 662 l 2
 -288 661 -288 661 -289 661 c 2
 -294 661 l 2
 -295 661 -295 661 -295 662 c 2
 -295 702 l 2
 -295 703 -295 703 -294 703 c 2
-321 697 m 1
 -321 683 l 1
 -318 683 l 2
 -314 683 -311 684 -310 685 c 0
 -309 686 -308 687 -308 690 c 0
 -308 692 -309 694 -310 695 c 0
 -311 696 -314 697 -317 697 c 2
 -321 697 l 1
-326 703 m 2
 -316 703 l 2
 -311 703 -308 702 -305 700 c 0
 -302 698 -301 694 -301 690 c 0
 -301 688 -301 687 -302 685 c 0
 -303 683 -304 682 -305 681 c 0
 -306 680 -308 679 -310 678 c 0
 -312 677 -314 676 -317 676 c 2
 -321 676 l 1
 -321 662 l 2
 -321 661 -321 661 -322 661 c 2
 -326 661 l 2
 -327 661 -327 661 -327 662 c 2
 -327 702 l 2
 -327 703 -327 703 -326 703 c 2
-188 764 m 2
 -159 764 l 2
 -158 764 -158 764 -158 763 c 2
 -158 759 l 2
 -158 758 -158 757 -159 757 c 2
 -170 757 l 1
 -170 722 l 2
 -170 721 -170 721 -171 721 c 2
 -176 721 l 2
 -177 721 -177 721 -177 722 c 2
 -177 757 l 1
 -188 757 l 2
 -189 757 -189 758 -189 759 c 2
 -189 763 l 2
 -189 764 -189 764 -188 764 c 2
-198 764 m 2
 -193 764 l 2
 -192 764 -192 764 -192 763 c 2
 -192 722 l 2
 -192 721 -192 721 -193 721 c 2
 -199 721 l 2
 -200 722 l 2
 -218 752 l 1
 -218 751 l 0
 -218 749 -218 747 -218 745 c 2
 -218 722 l 2
 -218 721 -218 721 -219 721 c 2
 -224 721 l 2
 -225 721 -225 721 -225 722 c 2
 -225 763 l 2
 -225 764 -225 764 -224 764 c 2
 -218 764 l 2
 -217 764 l 2
 -199 733 l 1
 -199 734 l 0
 -199 735 -199 736 -199 737 c 0
 -199 738 -199 739 -199 740 c 2
 -199 763 l 2
 -199 764 -199 764 -198 764 c 2
-250 727 m 0
 -244 727 -238 731 -238 743 c 0
 -238 748 -239 751 -241 754 c 1
 -243 757 -246 758 -250 758 c 1
 -254 758 -256 757 -258 754 c 1
 -260 751 -261 748 -261 743 c 0
 -261 738 -260 734 -258 731 c 1
 -256 728 -254 727 -250 727 c 0
-268 743 m 0
 -268 749 -267 757 -260 762 c 1
 -257 764 -254 765 -250 765 c 0
 -237 765 -231 755 -231 743 c 0
 -231 739 -232 734 -233 731 c 1
 -235 727 -240 721 -250 721 c 0
 -264 721 -268 732 -268 743 c 0
-293 758 m 1
 -293 745 l 1
 -288 745 l 2
 -285 745 -283 745 -282 746 c 0
 -281 747 -280 749 -280 751 c 0
 -280 753 -281 755 -282 756 c 0
 -283 757 -285 758 -288 758 c 2
 -293 758 l 1
-299 764 m 2
 -288 764 l 2
 -283 764 -280 763 -277 761 c 0
 -274 759 -273 756 -273 752 c 0
 -273 750 -273 748 -274 747 c 0
 -274 746 -275 744 -276 743 c 0
 -277 742 -278 742 -279 741 c 1
 -280 741 -279 740 -280 740 c 1
 -270 723 l 2
 -270 722 -270 721 -271 721 c 2
 -277 721 l 2
 -278 722 l 2
 -287 738 l 1
 -293 738 l 1
 -293 722 l 2
 -293 721 -293 721 -294 721 c 2
 -299 721 l 2
 -300 721 -300 721 -300 722 c 2
 -300 763 l 2
 -300 764 -300 764 -299 764 c 2
-326 764 m 2
 -305 764 l 2
 -304 764 -304 764 -304 763 c 2
 -304 759 l 2
 -304 758 -304 757 -305 757 c 2
 -321 757 l 1
 -321 745 l 1
 -306 745 l 2
 -305 745 -305 745 -305 744 c 2
 -305 740 l 2
 -305 739 -305 739 -306 739 c 2
 -321 739 l 1
 -321 722 l 2
 -321 721 -321 721 -322 721 c 2
 -326 721 l 2
 -327 721 -327 721 -327 722 c 2
 -327 763 l 2
 -327 764 -327 764 -326 764 c 2
1165 628 m 0
 1168 628 1171 625 1171 622 c 2
 1171 605 l 1
 1519 605 l 1
 1519 622 l 2
 1519 625 1522 628 1525 628 c 0
 1528 628 1531 625 1531 622 c 2
 1531 577 l 2
 1531 574 1528 571 1525 571 c 0
 1522 571 1519 574 1519 577 c 2
 1519 594 l 1
 1171 594 l 1
 1171 577 l 2
 1171 574 1168 571 1165 571 c 0
 1162 571 1160 574 1160 577 c 2
 1160 622 l 2
 1160 625 1162 628 1165 628 c 0
-325 628 m 0
 -322 628 -319 625 -319 622 c 2
 -319 605 l 1
 -113 605 l 1
 -113 622 l 2
 -113 625 -111 628 -108 628 c 0
 -105 628 -102 625 -102 622 c 2
 -102 577 l 2
 -102 574 -105 571 -108 571 c 0
 -111 571 -113 574 -113 577 c 2
 -113 594 l 1
 -319 594 l 1
 -319 577 l 2
 -319 574 -322 571 -325 571 c 0
 -328 571 -330 574 -330 577 c 2
 -330 622 l 2
 -330 625 -328 628 -325 628 c 0
1165 263 m 0
 1168 263 1171 260 1171 257 c 2
 1171 246 l 2
 1171 243 1168 240 1165 240 c 0
 1162 240 1160 243 1160 246 c 2
 1160 257 l 2
 1160 260 1162 263 1165 263 c 0
1165 308 m 0
 1168 308 1171 306 1171 303 c 2
 1171 291 l 2
 1171 288 1168 286 1165 286 c 0
 1162 286 1160 288 1160 291 c 2
 1160 303 l 2
 1160 306 1162 308 1165 308 c 0
-108 326 m 0
 -105 326 -102 323 -102 320 c 2
 -102 308 l 2
 -102 305 -105 303 -108 303 c 0
 -111 303 -113 305 -113 308 c 2
 -113 320 l 2
 -113 323 -111 326 -108 326 c 0
1165 354 m 0
 1168 354 1171 351 1171 348 c 2
 1171 337 l 2
 1171 334 1168 331 1165 331 c 0
 1162 331 1160 334 1160 337 c 2
 1160 348 l 2
 1160 351 1162 354 1165 354 c 0
-108 371 m 0
 -105 371 -102 369 -102 366 c 2
 -102 354 l 2
 -102 351 -105 348 -108 348 c 0
 -111 348 -113 351 -113 354 c 2
 -113 366 l 2
 -113 369 -111 371 -108 371 c 0
1165 400 m 0
 1168 400 1171 397 1171 394 c 2
 1171 383 l 2
 1171 380 1168 377 1165 377 c 0
 1162 377 1160 380 1160 383 c 2
 1160 394 l 2
 1160 397 1162 400 1165 400 c 0
-108 417 m 0
 -105 417 -102 414 -102 411 c 2
 -102 400 l 2
 -102 397 -105 394 -108 394 c 0
 -111 394 -113 397 -113 400 c 2
 -113 411 l 2
 -113 414 -111 417 -108 417 c 0
1165 445 m 0
 1168 445 1171 443 1171 440 c 2
 1171 428 l 2
 1171 425 1168 423 1165 423 c 0
 1162 423 1160 425 1160 428 c 2
 1160 440 l 2
 1160 443 1162 445 1165 445 c 0
-108 463 m 0
 -105 463 -102 460 -102 457 c 2
 -102 445 l 2
 -102 442 -105 440 -108 440 c 0
 -111 440 -113 442 -113 445 c 2
 -113 457 l 2
 -113 460 -111 463 -108 463 c 0
1165 491 m 0
 1168 491 1171 488 1171 485 c 2
 1171 474 l 2
 1171 471 1168 468 1165 468 c 0
 1162 468 1160 471 1160 474 c 2
 1160 485 l 2
 1160 488 1162 491 1165 491 c 0
-108 508 m 0
 -105 508 -102 506 -102 503 c 2
 -102 491 l 2
 -102 488 -105 485 -108 485 c 0
 -111 485 -113 488 -113 491 c 2
 -113 503 l 2
 -113 506 -111 508 -108 508 c 0
1165 537 m 0
 1168 537 1171 534 1171 531 c 2
 1171 520 l 2
 1171 517 1168 514 1165 514 c 0
 1162 514 1160 517 1160 520 c 2
 1160 531 l 2
 1160 534 1162 537 1165 537 c 0
-319 537 m 1
 -319 268 l 1
 -113 268 l 1
 -113 274 l 2
 -113 277 -111 280 -108 280 c 0
 -105 280 -102 277 -102 274 c 2
 -102 268 l 1
 149 268 l 1
 150 268 152 268 153 267 c 2
 242 206 l 1
 1160 206 l 1
 1160 211 l 2
 1160 214 1162 217 1165 217 c 0
 1168 217 1171 214 1171 211 c 2
 1171 206 l 1
 1519 206 l 1
 1519 537 l 1
 1165 537 l 1
 -102 537 l 1
 -102 534 -105 531 -108 531 c 0
 -111 531 -113 534 -113 537 c 1
 -319 537 l 1
-325 548 m 2
 -108 548 l 1
 1525 548 l 2
 1528 548 1531 545 1531 542 c 2
 1531 200 l 2
 1531 197 1528 194 1525 194 c 2
 1165 194 l 1
 241 194 l 1
 240 194 239 195 239 195 c 0
 238 195 238 195 237 195 c 2
 148 257 l 1
 -108 257 l 1
 -325 257 l 2
 -328 257 -330 260 -330 263 c 2
 -330 542 l 2
 -330 545 -328 548 -325 548 c 2
-56 -69 m 2
 338 -69 l 2
 341 -69 344 -72 344 -75 c 0
 344 -78 341 -81 338 -81 c 2
 -56 -81 l 2
 -59 -81 -62 -78 -62 -75 c 0
 -62 -72 -59 -69 -56 -69 c 2
1234 -24 m 0
 1237 -24 1240 -26 1240 -29 c 2
 1240 -115 l 2
 1240 -118 1237 -121 1234 -121 c 0
 1231 -121 1228 -118 1228 -115 c 2
 1228 -29 l 2
 1228 -26 1231 -24 1234 -24 c 0
1091 -24 m 0
 1094 -24 1097 -26 1097 -29 c 2
 1097 -115 l 2
 1097 -118 1094 -121 1091 -121 c 0
 1088 -121 1085 -118 1085 -115 c 2
 1085 -81 l 1
 658 -81 l 2
 655 -81 652 -78 652 -75 c 0
 652 -72 655 -69 658 -69 c 2
 1085 -69 l 1
 1085 -29 l 2
 1085 -26 1088 -24 1091 -24 c 0
1091 95 m 0
 1076 95 1064 82 1064 67 c 0
 1064 52 1076 40 1091 40 c 0
 1106 40 1119 52 1119 67 c 0
 1119 82 1106 95 1091 95 c 0
1091 106 m 0
 1112 106 1130 88 1130 67 c 0
 1130 46 1112 29 1091 29 c 0
 1070 29 1053 46 1053 67 c 0
 1053 88 1070 106 1091 106 c 0
1091 123 m 0
 1060 123 1035 98 1035 67 c 0
 1035 36 1060 11 1091 11 c 0
 1122 11 1147 36 1147 67 c 0
 1147 98 1122 123 1091 123 c 0
1091 135 m 0
 1128 135 1159 104 1159 67 c 0
 1159 30 1128 0 1091 0 c 0
 1054 0 1024 30 1024 67 c 0
 1024 104 1054 135 1091 135 c 0
1234 95 m 0
 1219 95 1207 82 1207 67 c 0
 1207 52 1219 40 1234 40 c 0
 1249 40 1261 52 1261 67 c 0
 1261 82 1249 95 1234 95 c 0
1234 106 m 0
 1255 106 1273 88 1273 67 c 0
 1273 46 1255 29 1234 29 c 0
 1213 29 1195 46 1195 67 c 0
 1195 88 1213 106 1234 106 c 0
1234 123 m 0
 1203 123 1178 98 1178 67 c 0
 1178 36 1203 11 1234 11 c 0
 1265 11 1290 36 1290 67 c 0
 1290 98 1265 123 1234 123 c 0
1234 135 m 0
 1271 135 1301 104 1301 67 c 0
 1301 30 1271 0 1234 0 c 0
 1197 0 1167 30 1167 67 c 0
 1167 104 1197 135 1234 135 c 0
-130 229 m 1
 -130 223 l 1
 126 223 l 0
 128 223 130 221 131 220 c 2
 175 160 l 1
 1303 160 l 0
 1305 160 1307 158 1308 156 c 2
 1341 74 l 1
 1367 74 l 1
 1394 155 l 1
 1394 166 l 1
 229 166 l 1
 228 166 227 166 226 167 c 2
 136 229 l 1
 -130 229 l 1
-136 240 m 2
 138 240 l 1
 139 240 140 240 141 239 c 2
 231 177 l 1
 1400 177 l 2
 1403 177 1405 174 1405 171 c 2
 1405 154 l 1
 1405 153 1405 153 1405 152 c 2
 1376 67 l 0
 1375 65 1374 63 1371 63 c 2
 1337 63 l 0
 1335 63 1332 65 1331 67 c 2
 1299 149 l 1
 172 149 l 0
 170 149 169 150 168 151 c 2
 124 211 l 1
 -90 211 l 1
 -90 208 -93 206 -96 206 c 2
 -119 206 l 2
 -122 206 -125 208 -125 211 c 1
 -136 211 l 2
 -139 211 -142 214 -142 217 c 2
 -142 234 l 2
 -142 237 -139 240 -136 240 c 2
1182 681 m 0
 1182 692 1178 697 1171 697 c 0
 1164 697 1159 692 1159 681 c 0
 1159 672 1162 666 1171 666 c 0
 1177 666 1182 669 1182 681 c 0
1152 682 m 0
 1152 688 1153 696 1160 701 c 0
 1163 703 1167 703 1171 703 c 0
 1184 703 1189 693 1189 681 c 0
 1189 676 1188 659 1171 659 c 0
 1165 659 1152 662 1152 682 c 0
EndSplineSet
Validated: 133
LCarets2: 1 0
Ligature2: "liga_Trailers" two T
EndChar

StartChar: three_T
Encoding: 98 -1 8
Width: 1034
Flags: HMW
LayerCount: 2
Fore
SplineSet
1335 682 m 0
 1335 688 1337 704 1356 704 c 0
 1362 704 1367 702 1368 701 c 0
 1368 700 1367 698 1367 697 c 0
 1366 696 1366 695 1365 695 c 0
 1363 696 1360 697 1358 697 c 0
 1357 697 1355 697 1354 697 c 0
 1350 697 1342 696 1342 683 c 0
 1342 675 1344 667 1358 667 c 1
 1362 667 l 1
 1362 677 l 1
 1358 677 l 2
 1356 677 1354 677 1354 679 c 0
 1354 680 1354 680 1354 681 c 0
 1354 681 1354 682 1354 683 c 0
 1354 684 1354 684 1355 684 c 2
 1366 684 l 2
 1366 684 1367 684 1368 684 c 0
 1369 684 1369 684 1369 683 c 2
 1369 663 l 2
 1369 663 1359 660 1353 660 c 0
 1345 661 1335 663 1335 682 c 0
1328 661 m 2
 1321 661 l 1
 1303 692 l 1
 1303 662 l 2
 1303 661 1303 661 1302 661 c 2
 1297 661 l 2
 1296 661 1296 661 1296 662 c 2
 1296 702 l 2
 1296 703 1296 703 1297 703 c 2
 1304 703 l 1
 1322 672 l 1
 1322 702 l 2
 1322 703 1322 703 1323 703 c 2
 1328 703 l 2
 1329 703 1329 703 1329 702 c 2
 1329 662 l 2
 1329 661 1329 661 1328 661 c 2
1275 693 m 1
 1275 692 1274 692 1274 691 c 2
 1271 680 l 1
 1280 680 l 1
 1276 691 l 1
 1276 692 l 1
 1275 693 l 1
1264 661 m 1
 1258 661 l 2
 1257 661 1257 661 1257 662 c 2
 1272 703 l 1
 1273 704 l 1
 1277 704 l 1
 1278 703 l 1
 1293 662 l 2
 1293 661 1293 661 1292 661 c 2
 1286 661 l 1
 1282 673 l 1
 1268 673 l 1
 1264 661 l 1
1224 703 m 2
 1228 703 l 2
 1229 703 1230 703 1230 702 c 2
 1230 686 l 1
 1247 686 l 1
 1247 702 l 2
 1247 703 1247 703 1248 703 c 2
 1253 703 l 2
 1254 703 1254 703 1254 702 c 2
 1254 662 l 2
 1254 661 1254 661 1253 661 c 2
 1248 661 l 2
 1247 661 1247 661 1247 662 c 2
 1247 680 l 1
 1230 680 l 1
 1230 662 l 2
 1230 661 1229 661 1228 661 c 2
 1224 661 l 2
 1223 661 1223 661 1223 662 c 2
 1223 702 l 2
 1223 703 1223 703 1224 703 c 2
1209 691 m 0
 1209 694 1206 697 1201 697 c 2
 1196 697 l 1
 1196 684 l 1
 1201 684 l 2
 1202 684 1209 684 1209 691 c 0
1218 661 m 2
 1211 661 l 1
 1202 677 l 1
 1196 677 l 1
 1196 662 l 2
 1196 661 1196 661 1195 661 c 2
 1190 661 l 2
 1189 661 1189 661 1189 662 c 2
 1189 702 l 2
 1189 703 1189 703 1190 703 c 2
 1201 703 l 2
 1208 703 1216 701 1216 691 c 0
 1216 689 1216 687 1215 686 c 0
 1215 685 1211 680 1211 680 c 0
 1210 680 1210 679 1209 679 c 1
 1219 662 l 2
 1219 661 1219 661 1218 661 c 2
1161 703 m 2
 1182 703 l 2
 1183 703 1183 703 1183 702 c 2
 1183 698 l 2
 1183 697 1183 697 1182 697 c 2
 1167 697 l 1
 1167 686 l 1
 1181 686 l 2
 1182 686 1182 686 1182 685 c 2
 1182 681 l 2
 1182 680 1182 680 1181 680 c 2
 1167 680 l 1
 1167 667 l 1
 1182 667 l 2
 1183 667 1183 667 1183 666 c 2
 1183 662 l 2
 1183 661 1183 661 1182 661 c 2
 1161 661 l 2
 1160 661 1160 661 1160 662 c 2
 1160 702 l 2
 1160 703 1160 703 1161 703 c 2
1143 661 m 1
 1136 661 l 1
 1122 702 l 2
 1122 703 1122 703 1123 703 c 2
 1129 703 l 1
 1138 677 l 2
 1139 675 1139 673 1139 672 c 1
 1139 673 1140 675 1141 677 c 2
 1149 703 l 1
 1155 703 l 2
 1156 703 1157 703 1157 702 c 1
 1156 702 l 1
 1143 661 l 1
1115 682 m 0
 1115 689 1113 697 1103 697 c 0
 1092 697 1092 689 1092 682 c 0
 1092 675 1092 667 1103 667 c 0
 1108 667 1115 670 1115 682 c 0
1103 660 m 0
 1095 660 1084 666 1084 682 c 0
 1084 700 1097 704 1103 704 c 0
 1113 704 1122 697 1122 682 c 0
 1122 667 1113 660 1103 660 c 0
1203 751 m 0
 1203 752 1203 758 1195 758 c 2
 1190 758 l 1
 1190 745 l 1
 1195 745 l 2
 1199 745 1203 745 1203 751 c 0
1209 747 m 0
 1209 746 1205 741 1205 741 c 0
 1204 741 1204 740 1203 740 c 1
 1213 723 l 2
 1213 722 1213 721 1212 721 c 2
 1206 721 l 1
 1202 726 1199 732 1196 738 c 1
 1190 738 l 1
 1190 723 l 2
 1190 722 1190 721 1189 721 c 2
 1185 721 l 2
 1184 721 1183 722 1183 723 c 2
 1183 763 l 2
 1183 764 1184 764 1185 764 c 2
 1195 764 l 2
 1202 764 1210 762 1210 752 c 0
 1210 750 1210 748 1209 747 c 0
1162 754 m 1
 1162 752 l 1
 1161 752 l 1
 1158 741 l 1
 1167 741 l 1
 1163 751 l 1
 1163 753 l 1
 1162 754 l 1
1159 764 m 1
 1165 764 l 1
 1180 723 l 2
 1180 722 1180 721 1179 721 c 2
 1174 721 l 1
 1173 722 l 1
 1169 734 l 1
 1155 734 l 1
 1151 722 l 1
 1150 721 l 1
 1145 721 l 2
 1144 721 1144 722 1144 723 c 2
 1159 764 l 1
1121 764 m 2
 1142 764 l 2
 1143 764 1143 764 1143 763 c 2
 1143 759 l 2
 1143 758 1143 757 1142 757 c 2
 1126 757 l 1
 1126 747 l 1
 1141 747 l 2
 1142 747 1142 747 1142 746 c 2
 1142 742 l 2
 1142 741 1142 740 1141 740 c 2
 1126 740 l 1
 1126 728 l 1
 1142 728 l 2
 1143 728 1143 728 1143 727 c 2
 1143 723 l 2
 1143 722 1143 721 1142 721 c 2
 1121 721 l 2
 1120 721 1120 722 1120 723 c 2
 1120 763 l 2
 1120 764 1120 764 1121 764 c 2
1106 751 m 0
 1106 752 1106 758 1098 758 c 2
 1093 758 l 1
 1093 745 l 1
 1098 745 l 2
 1102 745 1106 745 1106 751 c 0
1112 747 m 0
 1112 746 1112 746 1107 741 c 0
 1106 741 1107 740 1106 740 c 1
 1116 723 l 2
 1116 722 1116 721 1115 721 c 2
 1109 721 l 1
 1105 726 1102 732 1099 738 c 1
 1093 738 l 1
 1093 723 l 2
 1093 722 1093 721 1092 721 c 2
 1087 721 l 2
 1086 721 1086 722 1086 723 c 2
 1086 763 l 2
 1086 764 1086 764 1087 764 c 2
 1098 764 l 2
 1105 764 1113 762 1113 752 c 0
 1113 750 1113 748 1112 747 c 0
1191 -76 m 0
 1191 -68 1187 -61 1177 -61 c 2
 1172 -61 l 1
 1172 -92 l 1
 1176 -92 l 2
 1189 -92 1191 -81 1191 -76 c 0
1198 -76 m 0
 1198 -82 1198 -99 1176 -99 c 2
 1165 -99 l 2
 1164 -99 1164 -99 1164 -98 c 2
 1164 -55 l 2
 1164 -54 1164 -54 1165 -54 c 2
 1178 -54 l 2
 1185 -54 1198 -57 1198 -76 c 0
1142 -65 m 1
 1142 -66 1141 -66 1141 -67 c 2
 1137 -79 l 1
 1147 -79 l 1
 1143 -68 l 1
 1143 -66 l 1
 1142 -65 l 1
1140 -54 m 1
 1144 -54 l 1
 1145 -55 l 1
 1161 -97 l 2
 1161 -98 1161 -99 1160 -99 c 2
 1155 -99 l 1
 1154 -98 l 1
 1149 -86 l 1
 1135 -86 l 1
 1130 -98 l 1
 1129 -99 l 1
 1124 -99 l 2
 1123 -99 1123 -98 1123 -97 c 2
 1139 -55 l 1
 1140 -54 l 1
1099 -54 m 2
 1121 -54 l 2
 1122 -54 1122 -54 1122 -55 c 2
 1122 -60 l 2
 1122 -61 1122 -61 1121 -61 c 2
 1105 -61 l 1
 1105 -72 l 1
 1120 -72 l 2
 1121 -72 1121 -72 1121 -73 c 2
 1121 -78 l 2
 1121 -79 1121 -79 1120 -79 c 2
 1105 -79 l 1
 1105 -92 l 1
 1121 -92 l 2
 1122 -92 1122 -92 1122 -93 c 2
 1122 -98 l 2
 1122 -99 1122 -99 1121 -99 c 2
 1099 -99 l 2
 1098 -99 1098 -99 1098 -98 c 2
 1098 -55 l 2
 1098 -54 1098 -54 1099 -54 c 2
1083 -68 m 0
 1083 -66 1082 -61 1075 -61 c 2
 1070 -61 l 1
 1070 -75 l 1
 1075 -75 l 2
 1076 -75 1083 -75 1083 -68 c 0
1075 -54 m 2
 1079 -54 1091 -54 1091 -67 c 0
 1091 -69 1091 -71 1090 -72 c 0
 1090 -73 1089 -75 1088 -76 c 0
 1087 -77 1086 -77 1085 -78 c 0
 1084 -78 1084 -79 1083 -79 c 1
 1093 -97 l 2
 1093 -98 1093 -99 1093 -99 c 0
 1087 -99 l 1
 1086 -98 l 1
 1076 -81 l 1
 1070 -81 l 1
 1070 -98 l 2
 1070 -99 1070 -99 1069 -99 c 2
 1064 -99 l 2
 1063 -99 1063 -99 1063 -98 c 2
 1063 -55 l 2
 1063 -54 1063 -54 1064 -54 c 2
 1075 -54 l 2
1050 -68 m 0
 1050 -67 1048 -61 1040 -61 c 2
 1036 -61 l 1
 1036 -76 l 1
 1039 -76 l 2
 1043 -76 1050 -75 1050 -68 c 0
1057 -68 m 0
 1057 -72 1055 -82 1040 -82 c 2
 1036 -82 l 1
 1036 -98 l 2
 1036 -99 1036 -99 1035 -99 c 2
 1030 -99 l 2
 1029 -99 1029 -99 1029 -98 c 2
 1029 -55 l 2
 1029 -54 1029 -54 1030 -54 c 2
 1041 -54 l 2
 1043 -54 1057 -55 1057 -68 c 0
1016 -84 m 2
 1016 -79 997 -82 997 -66 c 0
 997 -60 998 -54 1010 -54 c 2
 1017 -54 l 2
 1019 -54 1020 -55 1022 -56 c 0
 1022 -56 1022 -57 1022 -58 c 2
 1021 -62 l 2
 1021 -63 1020 -63 1019 -63 c 0
 1018 -62 1017 -61 1015 -61 c 2
 1010 -61 l 2
 1005 -61 1004 -62 1004 -66 c 2
 1004 -69 l 2
 1004 -73 1023 -71 1023 -86 c 0
 1023 -89 1023 -99 1008 -99 c 2
 1002 -99 l 2
 999 -99 997 -97 996 -96 c 1
 996 -91 l 2
 996 -90 997 -90 998 -90 c 0
 999 -91 1000 -91 1002 -92 c 0
 1004 -92 1006 -93 1008 -93 c 0
 1013 -93 1016 -90 1016 -87 c 2
 1016 -84 l 2
520 -101 m 0
 505 -101 499 -88 499 -78 c 0
 499 -70 502 -54 521 -54 c 0
 523 -54 526 -55 528 -55 c 0
 530 -55 532 -56 534 -57 c 0
 534 -57 534 -57 534 -58 c 2
 532 -63 l 2
 532 -64 532 -64 531 -64 c 0
 530 -63 528 -62 526 -62 c 0
 524 -62 523 -61 521 -61 c 0
 515 -61 507 -64 507 -78 c 0
 507 -89 512 -94 521 -94 c 0
 523 -94 524 -93 525 -93 c 2
 528 -93 l 1
 528 -82 l 1
 520 -82 l 2
 519 -82 519 -82 519 -81 c 2
 519 -76 l 2
 519 -75 519 -75 520 -75 c 2
 534 -75 l 2
 535 -75 535 -75 535 -76 c 2
 535 -97 l 2
 535 -98 534 -99 534 -99 c 1
 532 -100 529 -100 527 -100 c 0
 525 -100 523 -101 520 -101 c 0
491 -100 m 2
 484 -100 l 1
 465 -67 l 1
 465 -99 l 2
 465 -100 465 -100 464 -100 c 2
 459 -100 l 2
 458 -100 458 -100 458 -99 c 2
 458 -56 l 2
 458 -55 458 -55 459 -55 c 2
 466 -55 l 1
 486 -88 l 1
 486 -56 l 2
 486 -55 486 -55 487 -55 c 2
 491 -55 l 2
 492 -55 492 -55 492 -56 c 2
 492 -99 l 2
 492 -100 492 -100 491 -100 c 2
437 -55 m 2
 452 -55 l 2
 453 -55 453 -55 453 -56 c 2
 453 -59 l 2
 453 -60 453 -60 452 -60 c 2
 448 -61 l 1
 448 -94 l 1
 452 -95 l 2
 453 -95 453 -95 453 -96 c 2
 453 -99 l 2
 453 -100 453 -100 452 -100 c 2
 437 -100 l 2
 436 -100 436 -100 436 -99 c 2
 436 -96 l 2
 436 -95 436 -95 437 -95 c 2
 441 -94 l 1
 441 -61 l 1
 437 -60 l 1
 437 -60 436 -60 436 -59 c 2
 436 -56 l 2
 436 -55 436 -55 437 -55 c 2
401 -77 m 0
 401 -73 404 -54 422 -54 c 0
 426 -54 430 -55 433 -57 c 0
 434 -57 434 -57 434 -58 c 2
 432 -63 l 2
 432 -64 431 -64 430 -64 c 0
 429 -63 428 -62 426 -62 c 0
 425 -61 423 -61 422 -61 c 0
 418 -62 412 -63 412 -66 c 0
 410 -69 409 -73 409 -78 c 0
 409 -80 410 -94 422 -94 c 0
 424 -94 424 -93 426 -93 c 0
 428 -93 429 -92 431 -92 c 0
 432 -92 432 -92 432 -93 c 2
 432 -99 l 1
 430 -100 429 -100 427 -100 c 0
 425 -100 423 -101 421 -101 c 0
 412 -101 401 -97 401 -77 c 0
382 -67 m 1
 381 -68 l 2
 377 -80 l 1
 387 -80 l 1
 383 -68 l 1
 383 -68 382 -68 382 -67 c 1
379 -55 m 1
 385 -55 l 1
 401 -99 l 2
 401 -100 401 -100 400 -100 c 2
 395 -100 l 1
 394 -99 l 1
 389 -87 l 1
 375 -87 l 1
 370 -99 l 1
 369 -100 l 1
 364 -100 l 2
 363 -100 363 -100 363 -99 c 2
 379 -55 l 1
357 -69 m 0
 357 -66 356 -62 348 -62 c 2
 344 -62 l 1
 344 -76 l 1
 347 -76 l 2
 356 -76 357 -75 357 -69 c 0
365 -69 m 0
 365 -73 363 -83 348 -83 c 2
 344 -83 l 1
 344 -99 l 2
 344 -100 344 -100 343 -100 c 2
 338 -100 l 2
 337 -100 337 -100 337 -99 c 2
 337 -56 l 2
 337 -55 337 -55 338 -55 c 2
 349 -55 l 2
 364 -55 365 -63 365 -69 c 0
312 -69 m 0
 312 -74 331 -74 331 -88 c 0
 331 -101 315 -101 315 -101 c 0
 313 -101 311 -100 309 -100 c 0
 305 -100 305 -100 303 -98 c 1
 303 -92 l 2
 303 -91 304 -91 305 -91 c 0
 306 -92 308 -92 310 -93 c 0
 312 -93 314 -94 316 -94 c 0
 321 -94 324 -91 324 -88 c 0
 324 -87 323 -86 323 -85 c 0
 323 -81 304 -81 304 -66 c 0
 304 -59 312 -54 318 -54 c 0
 320 -54 322 -55 324 -55 c 0
 326 -55 327 -56 329 -57 c 0
 330 -57 330 -57 330 -58 c 2
 328 -63 l 2
 328 -64 328 -64 327 -64 c 0
 326 -63 324 -62 322 -62 c 0
 320 -62 320 -61 318 -61 c 0
 315 -61 311 -63 311 -66 c 0
 311 -67 312 -68 312 -69 c 0
1094 628 m 0
 1097 628 1100 625 1100 622 c 2
 1100 605 l 1
 1521 605 l 1
 1521 622 l 2
 1521 625 1524 628 1527 628 c 0
 1530 628 1532 625 1532 622 c 2
 1532 577 l 2
 1532 574 1530 571 1527 571 c 0
 1524 571 1521 574 1521 577 c 2
 1521 594 l 1
 1100 594 l 1
 1100 577 l 2
 1100 574 1097 571 1094 571 c 0
 1091 571 1088 574 1088 577 c 2
 1088 622 l 2
 1088 625 1091 628 1094 628 c 0
-322 628 m 0
 -319 628 -316 625 -316 622 c 2
 -316 605 l 1
 -111 605 l 1
 -111 622 l 2
 -111 625 -108 628 -105 628 c 0
 -102 628 -99 625 -99 622 c 2
 -99 577 l 2
 -99 574 -102 571 -105 571 c 0
 -108 571 -111 574 -111 577 c 2
 -111 594 l 1
 -316 594 l 1
 -316 577 l 2
 -316 574 -319 571 -322 571 c 0
 -325 571 -328 574 -328 577 c 2
 -328 622 l 2
 -328 625 -325 628 -322 628 c 0
1094 263 m 0
 1097 263 1100 260 1100 257 c 2
 1100 245 l 2
 1100 242 1097 240 1094 240 c 0
 1091 240 1088 242 1088 245 c 2
 1088 257 l 2
 1088 260 1091 263 1094 263 c 0
1094 308 m 0
 1097 308 1100 306 1100 303 c 2
 1100 291 l 2
 1100 288 1097 285 1094 285 c 0
 1091 285 1088 288 1088 291 c 2
 1088 303 l 2
 1088 306 1091 308 1094 308 c 0
-105 325 m 0
 -102 325 -99 323 -99 320 c 2
 -99 308 l 2
 -99 305 -102 303 -105 303 c 0
 -108 303 -111 305 -111 308 c 2
 -111 320 l 2
 -111 323 -108 325 -105 325 c 0
1094 354 m 0
 1097 354 1100 351 1100 348 c 2
 1100 337 l 2
 1100 334 1097 331 1094 331 c 0
 1091 331 1088 334 1088 337 c 2
 1088 348 l 2
 1088 351 1091 354 1094 354 c 0
-105 371 m 0
 -102 371 -99 368 -99 365 c 2
 -99 354 l 2
 -99 351 -102 348 -105 348 c 0
 -108 348 -111 351 -111 354 c 2
 -111 365 l 2
 -111 368 -108 371 -105 371 c 0
1094 400 m 0
 1097 400 1100 397 1100 394 c 2
 1100 382 l 2
 1100 379 1097 377 1094 377 c 0
 1091 377 1088 379 1088 382 c 2
 1088 394 l 2
 1088 397 1091 400 1094 400 c 0
-105 417 m 0
 -102 417 -99 414 -99 411 c 2
 -99 400 l 2
 -99 397 -102 394 -105 394 c 0
 -108 394 -111 397 -111 400 c 2
 -111 411 l 2
 -111 414 -108 417 -105 417 c 0
1094 445 m 0
 1097 445 1100 443 1100 440 c 2
 1100 428 l 2
 1100 425 1097 422 1094 422 c 0
 1091 422 1088 425 1088 428 c 2
 1088 440 l 2
 1088 443 1091 445 1094 445 c 0
-105 462 m 0
 -102 462 -99 460 -99 457 c 2
 -99 445 l 2
 -99 442 -102 440 -105 440 c 0
 -108 440 -111 442 -111 445 c 2
 -111 457 l 2
 -111 460 -108 462 -105 462 c 0
1094 491 m 0
 1097 491 1100 488 1100 485 c 2
 1100 474 l 2
 1100 471 1097 468 1094 468 c 0
 1091 468 1088 471 1088 474 c 2
 1088 485 l 2
 1088 488 1091 491 1094 491 c 0
-105 508 m 0
 -102 508 -99 505 -99 502 c 2
 -99 491 l 2
 -99 488 -102 485 -105 485 c 0
 -108 485 -111 488 -111 491 c 2
 -111 502 l 2
 -111 505 -108 508 -105 508 c 0
-316 537 m 1
 -316 268 l 1
 -111 268 l 1
 -111 274 l 2
 -111 277 -108 280 -105 280 c 0
 -102 280 -99 277 -99 274 c 2
 -99 268 l 1
 152 268 l 2
 153 268 154 268 155 267 c 2
 245 206 l 1
 1088 206 l 1
 1088 211 l 2
 1088 214 1091 217 1094 217 c 0
 1097 217 1100 214 1100 211 c 2
 1100 206 l 1
 1522 206 l 1
 1522 537 l 1
 1094 537 l 1
 1097 537 1100 534 1100 531 c 2
 1100 520 l 2
 1100 517 1097 514 1094 514 c 0
 1091 514 1088 517 1088 520 c 2
 1088 531 l 2
 1088 534 1091 537 1094 537 c 1
 -99 537 l 1
 -99 534 -102 531 -105 531 c 0
 -108 531 -111 534 -111 537 c 1
 -316 537 l 1
-322 548 m 2
 1528 548 l 2
 1531 548 1534 545 1534 542 c 2
 1534 200 l 2
 1534 197 1531 194 1528 194 c 2
 243 194 l 2
 242 194 242 195 242 195 c 1
 240 195 l 1
 150 257 l 1
 -322 257 l 2
 -325 257 -328 260 -328 263 c 2
 -328 542 l 2
 -328 545 -325 548 -322 548 c 2
-53 -69 m 2
 263 -69 l 2
 266 -69 269 -72 269 -75 c 0
 269 -78 266 -81 263 -81 c 2
 -53 -81 l 2
 -56 -81 -59 -78 -59 -75 c 0
 -59 -72 -56 -69 -53 -69 c 2
1237 -24 m 0
 1240 -24 1243 -26 1243 -29 c 2
 1243 -115 l 2
 1243 -118 1240 -121 1237 -121 c 0
 1234 -121 1231 -118 1231 -115 c 2
 1231 -29 l 2
 1231 -26 1234 -24 1237 -24 c 0
951 -24 m 0
 954 -24 957 -26 957 -29 c 2
 957 -115 l 2
 957 -118 954 -121 951 -121 c 0
 948 -121 946 -118 946 -115 c 2
 946 -81 l 1
 583 -81 l 2
 580 -81 577 -78 577 -75 c 0
 577 -72 580 -69 583 -69 c 2
 946 -69 l 1
 946 -29 l 2
 946 -26 948 -24 951 -24 c 0
951 95 m 0
 936 95 924 82 924 67 c 0
 924 52 936 40 951 40 c 0
 966 40 979 52 979 67 c 0
 979 82 966 95 951 95 c 0
951 106 m 0
 972 106 990 88 990 67 c 0
 990 46 972 29 951 29 c 0
 930 29 913 46 913 67 c 0
 913 88 930 106 951 106 c 0
951 123 m 0
 920 123 895 98 895 67 c 0
 895 36 920 11 951 11 c 0
 982 11 1007 36 1007 67 c 0
 1007 98 982 123 951 123 c 0
951 135 m 0
 988 135 1019 104 1019 67 c 0
 1019 30 988 0 951 0 c 0
 914 0 884 30 884 67 c 0
 884 104 914 135 951 135 c 0
1094 95 m 0
 1079 95 1067 82 1067 67 c 0
 1067 52 1079 40 1094 40 c 0
 1109 40 1121 52 1121 67 c 0
 1121 82 1109 95 1094 95 c 0
1094 106 m 0
 1115 106 1133 88 1133 67 c 0
 1133 46 1115 29 1094 29 c 0
 1073 29 1055 46 1055 67 c 0
 1055 88 1073 106 1094 106 c 0
1094 123 m 0
 1063 123 1038 98 1038 67 c 0
 1038 36 1063 11 1094 11 c 0
 1125 11 1150 36 1150 67 c 0
 1150 98 1125 123 1094 123 c 0
1094 135 m 0
 1131 135 1161 104 1161 67 c 0
 1161 30 1131 0 1094 0 c 0
 1057 0 1027 30 1027 67 c 0
 1027 104 1057 135 1094 135 c 0
1237 95 m 0
 1222 95 1209 82 1209 67 c 0
 1209 52 1222 40 1237 40 c 0
 1252 40 1264 52 1264 67 c 0
 1264 82 1252 95 1237 95 c 0
1237 106 m 0
 1258 106 1275 88 1275 67 c 0
 1275 46 1258 29 1237 29 c 0
 1216 29 1198 46 1198 67 c 0
 1198 88 1216 106 1237 106 c 0
1237 123 m 0
 1206 123 1181 98 1181 67 c 0
 1181 36 1206 11 1237 11 c 0
 1268 11 1293 36 1293 67 c 0
 1293 98 1268 123 1237 123 c 0
1237 135 m 0
 1274 135 1304 104 1304 67 c 0
 1304 30 1274 0 1237 0 c 0
 1200 0 1169 30 1169 67 c 0
 1169 104 1200 135 1237 135 c 0
-128 228 m 1
 -128 223 l 1
 129 223 l 2
 131 223 133 221 134 220 c 2
 178 160 l 1
 1305 160 l 2
 1307 160 1310 158 1311 156 c 2
 1343 74 l 1
 1370 74 l 1
 1397 155 l 1
 1397 166 l 1
 232 166 l 2
 231 166 230 166 229 167 c 2
 139 228 l 1
 -128 228 l 1
-133 240 m 2
 141 240 l 2
 142 240 143 240 144 239 c 2
 234 177 l 1
 1402 177 l 2
 1405 177 1408 174 1408 171 c 2
 1408 152 l 1
 1379 67 l 2
 1378 65 1377 63 1374 63 c 2
 1339 63 l 2
 1337 63 1335 64 1334 66 c 2
 1301 148 l 1
 175 148 l 2
 173 148 171 150 170 151 c 2
 126 211 l 1
 -88 211 l 1
 -88 208 -90 206 -93 206 c 2
 -116 206 l 2
 -119 206 -122 208 -122 211 c 1
 -133 211 l 2
 -136 211 -139 214 -139 217 c 2
 -139 234 l 2
 -139 237 -136 240 -133 240 c 2
-23 661 m 2
 -30 661 l 1
 -48 692 l 1
 -48 662 l 2
 -48 661 -48 661 -49 661 c 2
 -54 661 l 2
 -55 661 -55 661 -55 662 c 2
 -55 702 l 2
 -55 703 -55 703 -54 703 c 2
 -47 703 l 1
 -29 672 l 1
 -29 702 l 2
 -29 703 -29 703 -28 703 c 2
 -23 703 l 2
 -22 703 -22 703 -22 702 c 2
 -22 662 l 2
 -22 661 -22 661 -23 661 c 2
-68 682 m 0
 -68 689 -70 697 -80 697 c 0
 -90 697 -91 686 -91 682 c 0
 -91 678 -90 667 -80 667 c 0
 -75 667 -68 670 -68 682 c 0
-80 660 m 0
 -94 660 -98 673 -98 682 c 0
 -98 689 -96 704 -80 704 c 0
 -75 704 -61 702 -61 682 c 0
 -61 676 -62 660 -80 660 c 0
-173 682 m 0
 -173 675 -171 667 -161 667 c 2
 -156 667 l 2
 -155 667 -153 668 -152 668 c 0
 -151 668 -151 668 -151 667 c 2
 -151 662 l 1
 -152 661 -154 660 -156 660 c 2
 -161 660 l 2
 -170 660 -176 665 -178 670 c 1
 -178 671 l 1
 -179 674 -180 678 -180 682 c 0
 -180 695 -172 704 -161 704 c 0
 -157 704 -153 703 -150 701 c 0
 -149 701 -149 701 -149 700 c 1
 -149 702 l 2
 -149 703 -149 703 -148 703 c 2
 -119 703 l 2
 -118 703 -118 703 -118 702 c 1
 -118 703 -118 703 -117 703 c 2
 -103 703 l 2
 -102 703 -102 703 -102 702 c 2
 -102 699 l 2
 -102 698 -103 698 -103 698 c 1
 -106 697 l 1
 -106 667 l 1
 -103 666 l 1
 -103 666 -102 666 -102 665 c 2
 -102 662 l 2
 -102 661 -102 661 -103 661 c 2
 -117 661 l 2
 -118 661 -118 661 -118 662 c 2
 -118 665 l 2
 -118 666 -117 666 -117 666 c 1
 -113 667 l 1
 -113 697 l 1
 -117 698 l 1
 -117 698 -118 698 -118 699 c 1
 -118 698 l 2
 -118 697 -118 697 -119 697 c 2
 -130 697 l 1
 -130 662 l 2
 -130 661 -130 661 -131 661 c 2
 -136 661 l 2
 -137 661 -137 661 -137 662 c 2
 -137 697 l 1
 -148 697 l 2
 -149 697 -149 697 -149 698 c 2
 -149 700 l 1
 -151 696 l 2
 -151 695 -151 695 -152 695 c 0
 -153 696 -155 697 -156 697 c 2
 -161 697 l 2
 -166 697 -173 694 -173 682 c 0
-207 703 m 2
 -185 703 l 2
 -184 703 -184 703 -184 702 c 2
 -184 698 l 2
 -184 697 -184 697 -185 697 c 2
 -201 697 l 1
 -201 686 l 1
 -186 686 l 2
 -185 686 -185 686 -185 685 c 2
 -185 681 l 2
 -185 680 -185 680 -186 680 c 2
 -201 680 l 1
 -201 667 l 1
 -185 667 l 2
 -184 667 -184 667 -184 666 c 2
 -184 662 l 2
 -184 661 -184 661 -185 661 c 2
 -207 661 l 2
 -208 661 -208 661 -208 662 c 2
 -208 702 l 2
 -208 703 -208 703 -207 703 c 2
-216 662 m 2
 -216 658 -217 650 -227 650 c 2
 -229 650 l 2
 -230 650 -230 651 -231 651 c 2
 -232 652 l 1
 -232 656 l 2
 -232 657 -231 657 -230 657 c 2
 -229 657 l 2
 -228 657 -228 656 -227 656 c 0
 -226 656 -226 657 -225 657 c 0
 -224 657 -223 657 -223 658 c 2
 -223 702 l 2
 -223 703 -223 703 -222 703 c 2
 -217 703 l 2
 -216 703 -216 703 -216 702 c 2
 -216 662 l 2
-236 682 m 0
 -236 686 -237 697 -247 697 c 0
 -252 697 -259 694 -259 682 c 0
 -259 675 -257 667 -247 667 c 0
 -237 667 -236 678 -236 682 c 0
-247 660 m 0
 -265 660 -266 676 -266 682 c 0
 -266 688 -265 704 -247 704 c 0
 -245 704 -229 703 -229 682 c 0
 -229 675 -231 660 -247 660 c 0
-278 691 m 0
 -278 694 -281 697 -286 697 c 2
 -291 697 l 1
 -291 684 l 1
 -286 684 l 2
 -285 684 -278 684 -278 691 c 0
-269 661 m 2
 -276 661 l 1
 -285 677 l 1
 -291 677 l 1
 -291 662 l 2
 -291 661 -291 661 -292 661 c 2
 -296 661 l 2
 -297 661 -297 661 -297 662 c 2
 -297 702 l 2
 -297 703 -297 703 -296 703 c 2
 -286 703 l 2
 -279 703 -271 701 -271 691 c 0
 -271 689 -271 687 -272 686 c 0
 -272 685 -276 680 -276 680 c 0
 -277 680 -277 679 -278 679 c 1
 -268 662 l 2
 -268 661 -268 661 -269 661 c 2
-310 690 m 0
 -310 692 -311 697 -319 697 c 2
 -323 697 l 1
 -323 683 l 1
 -320 683 l 2
 -311 683 -310 689 -310 690 c 0
-303 690 m 0
 -303 678 -318 676 -320 676 c 2
 -323 676 l 1
 -323 662 l 2
 -323 661 -323 661 -324 661 c 2
 -329 661 l 2
 -330 661 -330 661 -330 662 c 2
 -330 702 l 2
 -330 703 -330 703 -329 703 c 2
 -319 703 l 2
 -315 703 -303 703 -303 690 c 0
-190 764 m 2
 -161 764 l 2
 -160 764 -160 764 -160 763 c 2
 -160 759 l 2
 -160 758 -160 757 -161 757 c 2
 -172 757 l 1
 -172 722 l 2
 -172 721 -172 721 -173 721 c 2
 -178 721 l 2
 -179 721 -179 721 -179 722 c 2
 -179 757 l 1
 -190 757 l 2
 -191 757 -191 758 -191 759 c 2
 -191 763 l 2
 -191 764 -191 764 -190 764 c 2
-200 764 m 2
 -196 764 l 2
 -195 764 -195 764 -195 763 c 2
 -195 722 l 2
 -195 721 -195 721 -196 721 c 2
 -201 721 l 1
 -202 722 l 1
 -221 752 l 1
 -221 751 l 2
 -221 749 -220 747 -220 745 c 2
 -220 722 l 2
 -220 721 -221 721 -222 721 c 2
 -226 721 l 2
 -227 721 -227 721 -227 722 c 2
 -227 763 l 2
 -227 764 -227 764 -226 764 c 2
 -220 764 l 1
 -201 733 l 1
 -201 763 l 2
 -201 764 -201 764 -200 764 c 2
-264 743 m 0
 -264 739 -264 727 -252 727 c 0
 -241 727 -241 735 -241 743 c 0
 -241 750 -241 758 -252 758 c 0
 -257 758 -264 755 -264 743 c 0
-233 743 m 0
 -233 743 -234 721 -252 721 c 0
 -256 721 -271 722 -271 743 c 0
 -271 761 -258 765 -252 765 c 0
 -234 765 -233 743 -233 743 c 0
-283 751 m 0
 -283 754 -283 758 -291 758 c 2
 -295 758 l 1
 -295 745 l 1
 -290 745 l 2
 -284 745 -283 745 -283 751 c 0
-290 764 m 2
 -276 764 -276 757 -276 752 c 0
 -276 751 -276 749 -276 748 c 0
 -276 747 -276 747 -276 747 c 0
 -276 746 -277 744 -278 743 c 0
 -279 742 -280 742 -281 741 c 0
 -282 741 -282 740 -283 740 c 1
 -273 723 l 2
 -273 722 -273 721 -274 721 c 2
 -279 721 l 1
 -283 726 -286 732 -289 738 c 1
 -295 738 l 1
 -295 722 l 2
 -295 721 -295 721 -296 721 c 2
 -301 721 l 2
 -302 721 -302 721 -302 722 c 2
 -302 763 l 2
 -302 764 -302 764 -301 764 c 2
 -290 764 l 2
-329 764 m 2
 -307 764 l 2
 -306 764 -306 764 -306 763 c 2
 -306 759 l 2
 -306 758 -306 757 -307 757 c 2
 -323 757 l 1
 -323 745 l 1
 -308 745 l 2
 -307 745 -307 745 -307 744 c 2
 -307 740 l 2
 -307 739 -307 739 -308 739 c 2
 -323 739 l 1
 -323 722 l 2
 -323 721 -323 721 -324 721 c 2
 -329 721 l 2
 -330 721 -330 721 -330 722 c 2
 -330 763 l 2
 -330 764 -330 764 -329 764 c 2
EndSplineSet
Validated: 133
LCarets2: 1 0
Ligature2: "liga_Trailers" three T
EndChar

StartChar: four_T
Encoding: 99 -1 9
Width: 870
Flags: HMW
LayerCount: 2
Fore
SplineSet
-147 241 m 2
 112 241 l 2
 113 241 114 241 115 240 c 2
 200 178 l 1
 1304 178 l 2
 1307 178 1309 175 1309 172 c 2
 1309 155 l 2
 1309 153 1308 151 1308 151 c 1
 1282 67 l 2
 1281 65 1279 63 1277 63 c 2
 1245 63 l 2
 1243 63 1240 65 1239 67 c 2
 1209 149 l 1
 144 149 l 2
 142 149 141 151 140 152 c 2
 98 212 l 1
 -104 212 l 1
 -104 209 -106 206 -109 206 c 2
 -131 206 l 2
 -134 206 -136 209 -136 212 c 1
 -147 212 l 2
 -150 212 -152 215 -152 218 c 2
 -152 235 l 2
 -152 238 -150 241 -147 241 c 2
-141 229 m 1
 -141 224 l 1
 101 224 l 2
 103 224 105 222 106 221 c 2
 147 160 l 1
 1212 160 l 2
 1214 160 1216 159 1217 157 c 2
 1248 75 l 1
 1273 75 l 1
 1298 155 l 1
 1298 167 l 1
 198 167 l 2
 197 167 196 166 195 167 c 2
 110 229 l 1
 -141 229 l 1
743 135 m 0
 778 135 807 105 807 68 c 0
 807 31 778 0 743 0 c 0
 708 0 679 31 679 68 c 0
 679 105 708 135 743 135 c 0
743 124 m 0
 714 124 690 99 690 68 c 0
 690 37 714 11 743 11 c 0
 772 11 797 37 797 68 c 0
 797 99 772 124 743 124 c 0
743 106 m 0
 763 106 780 90 780 68 c 0
 780 46 763 29 743 29 c 0
 723 29 706 46 706 68 c 0
 706 90 723 106 743 106 c 0
743 95 m 0
 728 95 717 83 717 68 c 0
 717 53 728 40 743 40 c 0
 758 40 769 53 769 68 c 0
 769 83 758 95 743 95 c 0
878 135 m 0
 913 135 942 105 942 68 c 0
 942 31 913 0 878 0 c 0
 843 0 814 31 814 68 c 0
 814 105 843 135 878 135 c 0
878 124 m 0
 849 124 825 99 825 68 c 0
 825 37 849 11 878 11 c 0
 907 11 932 37 932 68 c 0
 932 99 907 124 878 124 c 0
878 106 m 0
 898 106 915 90 915 68 c 0
 915 46 898 29 878 29 c 0
 858 29 841 46 841 68 c 0
 841 90 858 106 878 106 c 0
878 95 m 0
 863 95 852 83 852 68 c 0
 852 53 863 40 878 40 c 0
 893 40 904 53 904 68 c 0
 904 83 893 95 878 95 c 0
1013 135 m 0
 1048 135 1077 105 1077 68 c 0
 1077 31 1048 0 1013 0 c 0
 978 0 949 31 949 68 c 0
 949 105 978 135 1013 135 c 0
1013 124 m 0
 984 124 960 99 960 68 c 0
 960 37 984 11 1013 11 c 0
 1042 11 1067 37 1067 68 c 0
 1067 99 1042 124 1013 124 c 0
1013 106 m 0
 1033 106 1050 90 1050 68 c 0
 1050 46 1033 29 1013 29 c 0
 993 29 976 46 976 68 c 0
 976 90 993 106 1013 106 c 0
1013 95 m 0
 998 95 987 83 987 68 c 0
 987 53 998 40 1013 40 c 0
 1028 40 1039 53 1039 68 c 0
 1039 83 1028 95 1013 95 c 0
1147 135 m 0
 1182 135 1211 105 1211 68 c 0
 1211 31 1182 0 1147 0 c 0
 1112 0 1083 31 1083 68 c 0
 1083 105 1112 135 1147 135 c 0
1147 124 m 0
 1118 124 1094 99 1094 68 c 0
 1094 37 1118 11 1147 11 c 0
 1176 11 1201 37 1201 68 c 0
 1201 99 1176 124 1147 124 c 0
1147 106 m 0
 1167 106 1184 90 1184 68 c 0
 1184 46 1167 29 1147 29 c 0
 1127 29 1110 46 1110 68 c 0
 1110 90 1127 106 1147 106 c 0
1147 95 m 0
 1132 95 1121 83 1121 68 c 0
 1121 53 1132 40 1147 40 c 0
 1162 40 1173 53 1173 68 c 0
 1173 83 1162 95 1147 95 c 0
850 -65 m 0
 850 -61 852 -53 864 -53 c 2
 870 -53 l 2
 872 -53 874 -54 876 -55 c 2
 876 -57 l 2
 875 -61 875 -61 874 -62 c 2
 873 -62 l 2
 872 -61 871 -60 869 -60 c 2
 864 -60 l 2
 859 -60 858 -61 858 -65 c 2
 858 -68 l 2
 858 -73 877 -68 877 -86 c 0
 877 -99 862 -99 862 -99 c 2
 860 -99 857 -98 855 -98 c 0
 853 -98 851 -97 850 -96 c 2
 850 -90 l 2
 850 -89 850 -89 851 -89 c 0
 852 -90 854 -90 856 -91 c 0
 858 -91 860 -92 862 -92 c 0
 867 -92 870 -89 870 -86 c 0
 870 -85 869 -84 869 -83 c 0
 869 -79 850 -79 850 -65 c 0
911 -67 m 0
 911 -78 899 -82 894 -82 c 2
 890 -82 l 1
 890 -97 l 2
 890 -98 890 -98 889 -98 c 2
 884 -98 l 2
 883 -98 883 -98 883 -97 c 2
 883 -54 l 2
 883 -53 883 -53 884 -53 c 2
 895 -53 l 2
 897 -53 911 -54 911 -67 c 0
903 -67 m 0
 903 -65 902 -60 894 -60 c 2
 890 -60 l 1
 890 -75 l 1
 893 -75 l 2
 903 -75 903 -70 903 -67 c 0
929 -53 m 2
 930 -53 944 -53 944 -67 c 0
 944 -69 945 -70 944 -71 c 0
 944 -72 943 -74 942 -75 c 0
 941 -76 940 -76 939 -77 c 0
 938 -77 938 -78 937 -78 c 1
 947 -96 l 1
 947 -97 l 2
 947 -98 947 -98 946 -98 c 2
 940 -98 l 1
 936 -93 933 -87 930 -81 c 1
 924 -81 l 1
 924 -97 l 2
 924 -98 924 -98 923 -98 c 2
 918 -98 l 2
 917 -98 917 -98 917 -97 c 2
 917 -54 l 2
 917 -53 917 -53 918 -53 c 2
 929 -53 l 2
937 -67 m 0
 937 -65 936 -60 929 -60 c 2
 924 -60 l 1
 924 -74 l 1
 929 -74 l 2
 930 -74 937 -74 937 -67 c 0
952 -53 m 2
 975 -53 l 2
 976 -53 976 -53 976 -54 c 2
 976 -59 l 2
 976 -60 976 -60 975 -60 c 2
 959 -60 l 1
 959 -71 l 1
 974 -71 l 2
 975 -71 975 -71 975 -72 c 2
 975 -77 l 2
 975 -78 975 -78 974 -78 c 2
 959 -78 l 1
 959 -91 l 1
 975 -91 l 2
 976 -91 976 -91 976 -92 c 2
 976 -97 l 2
 976 -98 976 -98 975 -98 c 2
 952 -98 l 2
 951 -98 951 -98 951 -97 c 2
 951 -54 l 2
 951 -53 951 -53 952 -53 c 2
994 -53 m 1
 998 -53 l 1
 999 -54 l 1
 1015 -96 l 1
 1015 -97 l 2
 1015 -98 1015 -98 1014 -98 c 2
 1008 -98 l 1
 1007 -97 l 1
 1003 -85 l 1
 989 -85 l 1
 984 -97 l 1
 983 -98 l 1
 978 -98 l 2
 977 -98 977 -98 977 -97 c 2
 977 -96 l 1
 993 -54 l 1
 994 -53 l 1
996 -65 m 1
 996 -66 995 -66 995 -67 c 2
 991 -78 l 1
 1001 -78 l 1
 997 -67 l 1
 997 -67 996 -66 996 -65 c 1
1052 -75 m 0
 1052 -80 1050 -98 1030 -98 c 2
 1019 -98 l 2
 1018 -98 1018 -98 1018 -97 c 2
 1018 -54 l 2
 1018 -53 1018 -53 1019 -53 c 2
 1031 -53 l 2
 1037 -53 1052 -55 1052 -75 c 0
1045 -75 m 0
 1045 -67 1041 -60 1031 -60 c 2
 1025 -60 l 1
 1025 -91 l 1
 1030 -91 l 2
 1043 -91 1045 -80 1045 -75 c 0
743 -23 m 0
 746 -23 749 -26 749 -29 c 2
 749 -69 l 1
 824 -69 l 2
 827 -69 829 -71 829 -74 c 0
 829 -77 827 -80 824 -80 c 2
 749 -80 l 1
 749 -115 l 2
 749 -118 746 -120 743 -120 c 0
 740 -120 738 -118 738 -115 c 2
 738 -80 l 1
 466 -80 l 2
 463 -80 460 -77 460 -74 c 0
 460 -71 463 -69 466 -69 c 2
 738 -69 l 1
 738 -29 l 2
 738 -26 740 -23 743 -23 c 0
1148 -23 m 0
 1151 -23 1153 -26 1153 -29 c 2
 1153 -115 l 2
 1153 -118 1151 -120 1148 -120 c 0
 1145 -120 1142 -118 1142 -115 c 2
 1142 -80 l 1
 1072 -80 l 2
 1069 -80 1067 -77 1067 -74 c 0
 1067 -71 1069 -69 1072 -69 c 2
 1142 -69 l 1
 1142 -29 l 2
 1142 -26 1145 -23 1148 -23 c 0
204 -63 m 0
 204 -56 212 -51 218 -51 c 0
 220 -51 222 -52 224 -52 c 0
 226 -52 227 -53 229 -54 c 2
 230 -55 l 1
 228 -60 l 1
 227 -61 l 1
 226 -60 225 -59 223 -59 c 0
 221 -59 220 -58 218 -58 c 0
 215 -58 211 -60 211 -63 c 0
 211 -64 212 -65 212 -66 c 0
 212 -73 231 -69 231 -84 c 0
 231 -98 217 -98 216 -98 c 0
 214 -98 214 -98 212 -98 c 0
 208 -98 205 -97 203 -95 c 2
 203 -89 l 2
 203 -88 203 -88 204 -88 c 2
 205 -88 l 2
 206 -89 208 -89 210 -90 c 0
 212 -90 214 -91 216 -91 c 0
 221 -91 224 -88 224 -85 c 0
 224 -84 223 -83 223 -82 c 0
 223 -77 204 -79 204 -63 c 0
265 -66 m 0
 265 -70 263 -80 248 -80 c 2
 244 -80 l 1
 244 -96 l 2
 244 -97 244 -97 243 -97 c 2
 238 -97 l 2
 237 -97 237 -97 237 -96 c 2
 237 -53 l 2
 237 -52 237 -52 238 -52 c 2
 249 -52 l 2
 264 -52 265 -60 265 -66 c 0
258 -66 m 0
 258 -62 254 -59 248 -59 c 2
 244 -59 l 1
 244 -73 l 1
 247 -73 l 2
 253 -73 258 -73 258 -66 c 0
279 -52 m 1
 285 -52 l 1
 301 -96 l 2
 301 -97 301 -97 300 -97 c 2
 295 -97 l 1
 294 -96 l 1
 289 -84 l 1
 275 -84 l 1
 270 -96 l 1
 269 -97 l 1
 264 -97 l 2
 263 -97 263 -97 263 -96 c 2
 279 -52 l 1
282 -64 m 1
 282 -64 281 -64 281 -65 c 2
 277 -77 l 1
 287 -77 l 1
 283 -65 l 1
 283 -65 282 -65 282 -64 c 1
301 -74 m 0
 301 -64 307 -51 322 -51 c 0
 326 -51 331 -52 334 -54 c 2
 334 -55 l 1
 332 -60 l 1
 331 -61 l 1
 330 -60 329 -59 327 -59 c 2
 326 -59 l 1
 321 -55 312 -62 312 -63 c 0
 310 -66 309 -69 309 -74 c 0
 309 -78 310 -91 322 -91 c 0
 324 -91 325 -90 327 -90 c 0
 329 -90 329 -89 331 -89 c 0
 332 -89 333 -89 333 -90 c 2
 333 -95 l 2
 333 -96 332 -96 332 -96 c 2
 330 -97 329 -97 327 -97 c 0
 325 -97 323 -98 321 -98 c 0
 301 -98 301 -76 301 -74 c 0
337 -52 m 2
 352 -52 l 2
 353 -52 353 -52 353 -53 c 2
 353 -56 l 2
 353 -57 352 -57 352 -57 c 1
 348 -58 l 1
 348 -91 l 1
 352 -92 l 1
 352 -92 353 -92 353 -93 c 2
 353 -96 l 2
 353 -97 353 -97 352 -97 c 2
 337 -97 l 2
 336 -97 336 -97 336 -96 c 2
 336 -93 l 2
 336 -92 337 -92 337 -92 c 1
 341 -91 l 1
 341 -58 l 1
 337 -57 l 1
 337 -57 336 -57 336 -56 c 2
 336 -53 l 2
 336 -52 336 -52 337 -52 c 2
392 -97 m 2
 385 -97 l 1
 365 -64 l 1
 365 -96 l 2
 365 -97 365 -97 364 -97 c 2
 359 -97 l 2
 358 -97 358 -97 358 -96 c 2
 358 -53 l 2
 358 -52 358 -52 359 -52 c 2
 366 -52 l 1
 386 -85 l 1
 386 -53 l 2
 386 -52 386 -52 387 -52 c 2
 392 -52 l 2
 393 -52 393 -52 393 -53 c 2
 393 -96 l 2
 393 -97 393 -97 392 -97 c 2
399 -74 m 0
 399 -59 410 -51 421 -51 c 0
 423 -51 426 -52 428 -52 c 0
 430 -52 432 -53 434 -54 c 2
 435 -55 l 1
 434 -55 l 1
 433 -60 433 -60 432 -61 c 2
 431 -61 l 2
 430 -60 428 -59 426 -59 c 0
 424 -59 423 -58 421 -58 c 0
 409 -58 407 -71 407 -74 c 0
 407 -79 407 -91 421 -91 c 0
 423 -91 424 -90 425 -90 c 2
 428 -90 l 1
 428 -79 l 1
 420 -79 l 2
 419 -79 419 -79 419 -78 c 2
 419 -73 l 2
 419 -72 419 -72 420 -72 c 2
 434 -72 l 2
 435 -72 435 -72 435 -73 c 2
 435 -94 l 2
 435 -95 434 -95 434 -95 c 2
 432 -96 430 -97 428 -97 c 0
 426 -97 423 -98 420 -98 c 0
 405 -98 399 -85 399 -74 c 0
-71 -69 m 2
 169 -69 l 2
 172 -69 175 -71 175 -74 c 0
 175 -77 172 -80 169 -80 c 2
 -71 -80 l 2
 -74 -80 -77 -77 -77 -74 c 0
 -77 -71 -74 -69 -71 -69 c 2
-325 550 m 2
 1422 550 l 2
 1425 550 1427 548 1427 545 c 2
 1427 201 l 2
 1427 198 1425 195 1422 195 c 2
 209 195 l 2
 208 195 208 195 207 196 c 2
 206 196 l 1
 121 258 l 1
 -325 258 l 2
 -328 258 -330 261 -330 264 c 2
 -330 545 l 2
 -330 548 -328 550 -325 550 c 2
-319 539 m 1
 -319 270 l 1
 -125 270 l 1
 -125 275 l 2
 -125 278 -123 281 -120 281 c 0
 -117 281 -114 278 -114 275 c 2
 -114 270 l 1
 123 270 l 1
 123 269 l 1
 124 269 125 269 126 268 c 2
 211 206 l 1
 937 206 l 1
 937 212 l 2
 937 215 939 218 942 218 c 0
 945 218 948 215 948 212 c 2
 948 206 l 1
 1417 206 l 1
 1417 539 l 1
 -114 539 l 1
 -114 536 -117 533 -120 533 c 0
 -123 533 -125 536 -125 539 c 1
 -319 539 l 1
942 538 m 0
 945 538 948 536 948 533 c 2
 948 522 l 2
 948 519 945 516 942 516 c 0
 939 516 937 519 937 522 c 2
 937 533 l 2
 937 536 939 538 942 538 c 0
-120 510 m 0
 -117 510 -114 507 -114 504 c 2
 -114 493 l 2
 -114 490 -117 487 -120 487 c 0
 -123 487 -125 490 -125 493 c 2
 -125 504 l 2
 -125 507 -123 510 -120 510 c 0
942 493 m 0
 945 493 948 490 948 487 c 2
 948 476 l 2
 948 473 945 470 942 470 c 0
 939 470 937 473 937 476 c 2
 937 487 l 2
 937 490 939 493 942 493 c 0
-120 464 m 0
 -117 464 -114 462 -114 459 c 2
 -114 447 l 2
 -114 444 -117 441 -120 441 c 0
 -123 441 -125 444 -125 447 c 2
 -125 459 l 2
 -125 462 -123 464 -120 464 c 0
942 447 m 0
 945 447 948 444 948 441 c 2
 948 430 l 2
 948 427 945 424 942 424 c 0
 939 424 937 427 937 430 c 2
 937 441 l 2
 937 444 939 447 942 447 c 0
-120 418 m 0
 -117 418 -114 416 -114 413 c 2
 -114 401 l 2
 -114 398 -117 396 -120 396 c 0
 -123 396 -125 398 -125 401 c 2
 -125 413 l 2
 -125 416 -123 418 -120 418 c 0
942 401 m 0
 945 401 948 399 948 396 c 2
 948 384 l 2
 948 381 945 378 942 378 c 0
 939 378 937 381 937 384 c 2
 937 396 l 2
 937 399 939 401 942 401 c 0
-120 373 m 0
 -117 373 -114 370 -114 367 c 2
 -114 355 l 2
 -114 352 -117 350 -120 350 c 0
 -123 350 -125 352 -125 355 c 2
 -125 367 l 2
 -125 370 -123 373 -120 373 c 0
942 355 m 0
 945 355 948 353 948 350 c 2
 948 338 l 2
 948 335 945 333 942 333 c 0
 939 333 937 335 937 338 c 2
 937 350 l 2
 937 353 939 355 942 355 c 0
-120 327 m 0
 -117 327 -114 324 -114 321 c 2
 -114 310 l 2
 -114 307 -117 304 -120 304 c 0
 -123 304 -125 307 -125 310 c 2
 -125 321 l 2
 -125 324 -123 327 -120 327 c 0
942 310 m 0
 945 310 948 307 948 304 c 2
 948 292 l 2
 948 289 945 287 942 287 c 0
 939 287 937 289 937 292 c 2
 937 304 l 2
 937 307 939 310 942 310 c 0
942 264 m 0
 945 264 948 261 948 258 c 2
 948 247 l 2
 948 244 945 241 942 241 c 0
 939 241 937 244 937 247 c 2
 937 258 l 2
 937 261 939 264 942 264 c 0
-325 768 m 2
 -304 768 l 2
 -303 768 -303 768 -303 767 c 2
 -303 762 l 2
 -303 761 -303 761 -304 761 c 2
 -320 761 l 1
 -320 749 l 1
 -305 749 l 2
 -304 749 -304 749 -304 748 c 2
 -304 743 l 2
 -304 742 -304 742 -305 742 c 2
 -320 742 l 1
 -320 726 l 2
 -320 725 -320 725 -321 725 c 2
 -325 725 l 2
 -326 725 -327 725 -327 726 c 2
 -327 767 l 2
 -327 768 -326 768 -325 768 c 2
-287 768 m 2
 -283 768 -272 768 -272 755 c 0
 -272 753 -272 752 -273 751 c 0
 -273 750 -274 748 -275 747 c 0
 -276 746 -277 746 -278 745 c 0
 -279 745 -278 744 -279 744 c 1
 -270 727 l 2
 -270 726 -269 725 -270 725 c 2
 -276 725 l 1
 -280 730 -283 736 -286 742 c 1
 -292 742 l 1
 -292 726 l 2
 -292 725 -292 725 -293 725 c 2
 -298 725 l 2
 -299 725 -299 725 -299 726 c 2
 -299 767 l 2
 -299 768 -299 768 -298 768 c 2
 -287 768 l 2
-279 755 m 0
 -279 761 -283 761 -287 761 c 2
 -292 761 l 1
 -292 748 l 1
 -287 748 l 2
 -286 748 -279 748 -279 755 c 0
-267 747 m 0
 -267 768 -253 768 -249 768 c 0
 -243 768 -230 768 -230 746 c 0
 -230 731 -239 724 -249 724 c 0
 -253 724 -267 726 -267 747 c 0
-237 746 m 0
 -237 750 -237 762 -249 762 c 0
 -253 762 -260 760 -260 746 c 0
 -260 742 -259 731 -249 731 c 0
 -244 731 -237 734 -237 746 c 0
-197 768 m 2
 -192 768 l 2
 -191 768 -191 768 -191 767 c 2
 -191 726 l 2
 -191 725 -191 725 -192 725 c 2
 -198 725 l 1
 -199 726 l 1
 -217 756 l 1
 -217 726 l 2
 -217 725 -217 725 -218 725 c 2
 -223 725 l 2
 -224 725 -224 725 -224 726 c 2
 -224 767 l 2
 -224 768 -224 768 -223 768 c 2
 -217 768 l 1
 -216 767 l 1
 -198 737 l 1
 -198 767 l 2
 -198 768 -198 768 -197 768 c 2
-187 768 m 2
 -158 768 l 2
 -157 768 -157 768 -157 767 c 2
 -157 762 l 2
 -157 761 -157 761 -158 761 c 2
 -169 761 l 1
 -169 726 l 2
 -169 725 -169 725 -170 725 c 2
 -175 725 l 2
 -176 725 -176 725 -176 726 c 2
 -176 761 l 1
 -187 761 l 2
 -188 761 -188 761 -188 762 c 2
 -188 767 l 2
 -188 768 -188 768 -187 768 c 2
-300 694 m 0
 -300 692 -301 680 -316 680 c 2
 -320 680 l 1
 -320 665 l 2
 -320 664 -320 664 -321 664 c 2
 -325 664 l 2
 -326 664 -327 664 -327 665 c 2
 -327 706 l 2
 -327 707 -326 707 -325 707 c 2
 -315 707 l 2
 -311 707 -300 707 -300 694 c 0
-307 694 m 0
 -307 700 -311 700 -316 700 c 2
 -320 700 l 1
 -320 687 l 1
 -317 687 l 2
 -310 687 -307 687 -307 694 c 0
-283 707 m 2
 -268 707 -268 700 -268 694 c 0
 -268 692 -267 691 -268 690 c 0
 -268 689 -269 687 -270 686 c 0
 -271 685 -272 685 -273 684 c 0
 -274 684 -274 683 -275 683 c 1
 -265 666 l 2
 -265 665 -265 664 -266 664 c 2
 -271 664 l 1
 -275 669 -278 675 -281 681 c 1
 -287 681 l 1
 -287 665 l 2
 -287 664 -287 664 -288 664 c 2
 -293 664 l 2
 -294 664 -294 664 -294 665 c 2
 -294 706 l 2
 -294 707 -294 707 -293 707 c 2
 -283 707 l 2
-275 694 m 0
 -275 700 -276 700 -283 700 c 2
 -287 700 l 1
 -287 688 l 1
 -283 688 l 2
 -276 688 -275 688 -275 694 c 0
-263 686 m 0
 -263 692 -262 708 -244 708 c 0
 -226 708 -225 686 -225 686 c 2
 -225 683 -226 664 -244 664 c 0
 -250 664 -263 664 -263 686 c 0
-233 686 m 0
 -233 693 -233 701 -244 701 c 0
 -249 701 -256 698 -256 686 c 0
 -256 682 -256 670 -244 670 c 0
 -233 670 -233 678 -233 686 c 0
-228 654 m 1
 -228 660 l 2
 -228 661 -228 661 -227 661 c 0
 -226 661 -226 660 -225 660 c 2
 -224 660 l 2
 -223 660 -222 661 -221 661 c 0
 -220 661 -220 661 -220 662 c 0
 -220 663 -219 664 -219 666 c 2
 -219 706 l 2
 -219 707 -219 707 -218 707 c 2
 -214 707 l 2
 -213 707 -212 707 -212 706 c 2
 -212 666 l 2
 -212 662 -215 653 -223 653 c 0
 -224 653 -225 654 -226 654 c 2
 -228 654 l 1
-203 707 m 2
 -182 707 l 2
 -181 707 -181 707 -181 706 c 2
 -181 701 l 2
 -181 700 -181 700 -182 700 c 2
 -198 700 l 1
 -198 690 l 1
 -183 690 l 2
 -182 690 -182 690 -182 689 c 2
 -182 684 l 2
 -182 683 -182 683 -183 683 c 2
 -198 683 l 1
 -198 671 l 1
 -182 671 l 2
 -181 671 -181 671 -181 670 c 2
 -181 665 l 2
 -181 664 -181 664 -182 664 c 2
 -203 664 l 2
 -204 664 -205 664 -205 665 c 2
 -205 706 l 2
 -205 707 -204 707 -203 707 c 2
-177 686 m 0
 -177 698 -170 708 -157 708 c 0
 -153 708 -154 708 -151 707 c 0
 -148 706 -147 705 -147 704 c 2
 -149 699 l 2
 -149 699 -149 699 -153 700 c 0
 -156 701 -156 701 -157 701 c 0
 -170 701 -170 686 -170 686 c 1
 -170 686 -170 670 -157 670 c 0
 -155 670 -154 671 -153 671 c 0
 -152 671 -150 672 -149 672 c 0
 -148 672 -147 672 -147 671 c 2
 -147 666 l 2
 -149 664 -149 664 -153 664 c 2
 -158 664 l 2
 -162 664 -177 664 -177 686 c 0
-145 707 m 2
 -116 707 l 2
 -115 707 -115 707 -115 706 c 2
 -115 701 l 2
 -115 700 -115 700 -116 700 c 2
 -127 700 l 1
 -127 665 l 2
 -127 664 -127 664 -128 664 c 2
 -133 664 l 2
 -134 664 -134 664 -134 665 c 2
 -134 700 l 1
 -145 700 l 2
 -146 700 -146 700 -146 701 c 2
 -146 706 l 2
 -146 707 -146 707 -145 707 c 2
-113 707 m 2
 -99 707 l 2
 -98 707 -98 707 -98 706 c 2
 -98 703 l 2
 -98 702 -99 702 -99 702 c 1
 -103 701 l 1
 -103 670 l 1
 -99 669 l 1
 -99 669 -98 669 -98 668 c 2
 -98 665 l 2
 -98 664 -98 664 -99 664 c 2
 -113 664 l 2
 -114 664 -114 664 -114 665 c 2
 -114 668 l 2
 -114 669 -113 669 -113 669 c 1
 -110 670 l 1
 -110 701 l 1
 -113 702 l 1
 -113 702 -114 702 -114 703 c 2
 -114 706 l 2
 -114 707 -114 707 -113 707 c 2
-95 686 m 0
 -95 692 -94 708 -76 708 c 0
 -60 708 -58 693 -58 686 c 0
 -58 664 -71 664 -76 664 c 0
 -82 664 -95 664 -95 686 c 0
-65 686 m 0
 -65 690 -66 701 -76 701 c 0
 -81 701 -88 698 -88 686 c 0
 -88 682 -88 670 -76 670 c 0
 -72 670 -65 672 -65 686 c 0
-25 676 m 1
 -25 680 l 2
 -25 681 -26 682 -26 683 c 2
 -26 706 l 2
 -26 707 -25 707 -24 707 c 2
 -20 707 l 2
 -19 707 -19 707 -19 706 c 2
 -19 665 l 2
 -19 664 -19 664 -20 664 c 2
 -26 664 l 1
 -27 665 l 1
 -45 695 l 1
 -45 665 l 2
 -45 664 -45 664 -46 664 c 2
 -50 664 l 2
 -51 664 -51 664 -51 665 c 2
 -51 706 l 2
 -51 707 -51 707 -50 707 c 2
 -44 707 l 1
 -25 676 l 1
963 725 m 2
 957 725 l 1
 948 741 l 1
 942 741 l 1
 942 726 l 2
 942 725 942 725 941 725 c 2
 936 725 l 2
 935 725 935 725 935 726 c 2
 935 766 l 2
 935 767 935 767 936 767 c 2
 947 767 l 2
 954 767 962 765 962 755 c 0
 962 753 962 751 961 750 c 0
 961 749 961 749 956 744 c 0
 955 744 956 743 955 743 c 1
 964 726 l 1
 965 726 l 1
 965 725 964 725 963 725 c 2
955 755 m 0
 955 759 951 761 946 761 c 2
 942 761 l 1
 942 748 l 1
 947 748 l 2
 948 748 955 748 955 755 c 0
969 767 m 2
 991 767 l 2
 992 767 992 767 992 766 c 2
 992 762 l 2
 992 761 992 761 991 761 c 2
 975 761 l 1
 975 750 l 1
 990 750 l 2
 991 750 991 750 991 749 c 2
 991 745 l 2
 991 744 991 744 990 744 c 2
 975 744 l 1
 975 731 l 1
 991 731 l 2
 992 731 992 731 992 730 c 2
 992 726 l 2
 992 725 992 725 991 725 c 2
 969 725 l 2
 968 725 968 725 968 726 c 2
 968 766 l 2
 968 767 968 767 969 767 c 2
1000 725 m 1
 994 725 l 2
 993 725 993 725 993 726 c 2
 1008 767 l 1
 1009 768 l 1
 1013 768 l 1
 1014 767 l 1
 1029 726 l 2
 1029 725 1029 725 1028 725 c 2
 1022 725 l 1
 1018 737 l 1
 1004 737 l 1
 1000 725 l 1
1011 756 m 1
 1010 755 l 1
 1007 744 l 1
 1016 744 l 1
 1012 755 l 1
 1012 755 1011 755 1011 756 c 1
1061 725 m 2
 1054 725 l 1
 1045 741 l 1
 1039 741 l 1
 1039 726 l 2
 1039 725 1039 725 1038 725 c 2
 1033 725 l 2
 1032 725 1032 725 1032 726 c 2
 1032 766 l 2
 1032 767 1032 767 1033 767 c 2
 1044 767 l 2
 1051 767 1059 765 1059 755 c 0
 1059 753 1059 751 1058 750 c 0
 1058 749 1058 749 1053 744 c 0
 1052 744 1053 743 1052 743 c 1
 1062 726 l 2
 1062 725 1062 725 1061 725 c 2
1052 755 m 0
 1052 758 1049 761 1044 761 c 2
 1039 761 l 1
 1039 748 l 1
 1044 748 l 2
 1045 748 1052 748 1052 755 c 0
933 685 m 0
 933 694 936 707 952 707 c 0
 970 707 971 685 971 685 c 1
 971 685 970 663 952 663 c 0
 934 663 933 679 933 685 c 0
963 685 m 0
 963 693 963 701 952 701 c 0
 949 701 940 701 940 685 c 0
 940 678 942 670 952 670 c 0
 963 670 963 678 963 685 c 0
972 707 m 2
 977 707 l 1
 978 706 l 1
 987 680 l 2
 988 678 988 676 988 675 c 1
 988 676 989 678 990 680 c 2
 998 706 l 1
 999 707 l 1
 1004 707 l 2
 1005 707 1005 707 1005 706 c 2
 1005 705 l 1
 992 665 l 1
 991 664 l 1
 986 664 l 1
 985 665 l 1
 971 705 l 1
 971 706 l 2
 971 707 971 707 972 707 c 2
1010 707 m 2
 1031 707 l 2
 1032 707 1032 707 1032 706 c 2
 1032 701 l 2
 1032 700 1032 700 1031 700 c 2
 1015 700 l 1
 1015 689 l 1
 1030 689 l 2
 1031 689 1031 689 1031 688 c 2
 1031 684 l 2
 1031 683 1031 683 1030 683 c 2
 1015 683 l 1
 1015 671 l 1
 1031 671 l 2
 1032 671 1032 670 1032 669 c 2
 1032 665 l 2
 1032 664 1032 664 1031 664 c 2
 1010 664 l 2
 1009 664 1008 664 1008 665 c 2
 1008 706 l 2
 1008 707 1009 707 1010 707 c 2
1067 664 m 2
 1060 664 l 1
 1051 681 l 1
 1045 681 l 1
 1045 665 l 2
 1045 664 1045 664 1044 664 c 2
 1039 664 l 2
 1038 664 1038 664 1038 665 c 2
 1038 706 l 2
 1038 707 1038 707 1039 707 c 2
 1050 707 l 2
 1054 707 1065 707 1065 694 c 0
 1065 692 1065 690 1064 689 c 0
 1064 688 1063 687 1062 686 c 0
 1061 685 1060 685 1059 684 c 0
 1058 684 1059 683 1058 683 c 1
 1067 666 l 1
 1068 665 l 2
 1068 664 1068 664 1067 664 c 2
1058 694 m 0
 1058 697 1055 700 1050 700 c 2
 1045 700 l 1
 1045 687 l 1
 1050 687 l 2
 1051 687 1058 687 1058 694 c 0
1073 707 m 2
 1077 707 l 2
 1078 707 1078 707 1078 706 c 2
 1078 689 l 1
 1096 689 l 1
 1096 706 l 2
 1096 707 1096 707 1097 707 c 2
 1102 707 l 2
 1103 707 1103 707 1103 706 c 2
 1103 665 l 2
 1103 664 1103 664 1102 664 c 2
 1097 664 l 2
 1096 664 1096 664 1096 665 c 2
 1096 683 l 1
 1078 683 l 1
 1078 665 l 2
 1078 664 1078 664 1077 664 c 2
 1073 664 l 2
 1072 664 1071 664 1071 665 c 2
 1071 706 l 2
 1071 707 1072 707 1073 707 c 2
1122 707 m 1
 1126 707 l 1
 1127 706 l 1
 1142 665 l 2
 1142 664 1142 664 1141 664 c 2
 1136 664 l 1
 1135 665 l 1
 1131 676 l 1
 1117 676 l 1
 1113 665 l 1
 1112 664 l 1
 1107 664 l 2
 1106 664 1106 664 1106 665 c 2
 1121 706 l 1
 1122 707 l 1
1124 695 m 1
 1123 694 l 1
 1120 683 l 1
 1129 683 l 1
 1125 694 l 1
 1125 694 1124 694 1124 695 c 1
1177 664 m 2
 1170 664 l 1
 1152 695 l 1
 1152 665 l 2
 1152 664 1152 664 1151 664 c 2
 1146 664 l 2
 1145 664 1145 664 1145 665 c 2
 1145 706 l 2
 1145 707 1145 707 1146 707 c 2
 1152 707 l 1
 1153 706 l 1
 1171 676 l 1
 1171 706 l 2
 1171 707 1171 707 1172 707 c 2
 1177 707 l 2
 1178 707 1178 707 1178 706 c 2
 1178 665 l 2
 1178 664 1178 664 1177 664 c 2
1205 707 m 0
 1208 707 1216 705 1217 704 c 0
 1217 703 1216 702 1216 701 c 0
 1215 700 1215 698 1214 698 c 0
 1212 699 1209 700 1207 700 c 0
 1186 704 1189 674 1199 671 c 0
 1203 670 1207 670 1211 671 c 1
 1211 681 l 1
 1207 681 l 2
 1206 681 1204 680 1203 681 c 0
 1202 682 1203 683 1203 684 c 0
 1203 685 1202 687 1204 687 c 2
 1215 687 l 2
 1216 687 1218 688 1218 686 c 2
 1218 666 l 2
 1216 665 1189 656 1185 678 c 0
 1184 686 1183 707 1205 707 c 0
-325 631 m 0
 -322 631 -319 628 -319 625 c 2
 -319 608 l 1
 -125 608 l 1
 -125 625 l 2
 -125 628 -123 631 -120 631 c 0
 -117 631 -114 628 -114 625 c 2
 -114 579 l 2
 -114 576 -117 573 -120 573 c 0
 -123 573 -125 576 -125 579 c 2
 -125 596 l 1
 -319 596 l 1
 -319 579 l 2
 -319 576 -322 573 -325 573 c 0
 -328 573 -330 576 -330 579 c 2
 -330 625 l 2
 -330 628 -328 631 -325 631 c 0
942 631 m 0
 945 631 948 628 948 625 c 2
 948 608 l 1
 1416 608 l 1
 1416 625 l 2
 1416 628 1418 631 1421 631 c 0
 1424 631 1426 628 1426 625 c 2
 1426 579 l 2
 1426 576 1424 573 1421 573 c 0
 1418 573 1416 576 1416 579 c 2
 1416 596 l 1
 948 596 l 1
 948 579 l 2
 948 576 945 573 942 573 c 0
 939 573 937 576 937 579 c 2
 937 625 l 2
 937 628 939 631 942 631 c 0
-149 699 m 1
 -149 699 l 1
EndSplineSet
Validated: 161
LCarets2: 1 0
Ligature2: "liga_Trailers" four T
EndChar

StartChar: T_T_two_S
Encoding: 85 -1 10
Width: 174
Flags: MW
LayerCount: 2
Fore
SplineSet
303 -23 m 0
 306 -23 309 -26 309 -29 c 2
 309 -114 l 2
 309 -117 306 -120 303 -120 c 0
 300 -120 297 -117 297 -114 c 2
 297 -29 l 2
 297 -26 300 -23 303 -23 c 0
160 -23 m 0
 163 -23 166 -26 166 -29 c 2
 166 -114 l 2
 166 -117 163 -120 160 -120 c 0
 157 -120 155 -117 155 -114 c 2
 155 -29 l 2
 155 -26 157 -23 160 -23 c 0
257 -59 m 1
 257 -91 l 1
 262 -91 l 2
 268 -91 271 -90 274 -87 c 0
 277 -84 278 -80 278 -74 c 0
 278 -68 277 -64 274 -62 c 0
 271 -60 268 -59 263 -59 c 2
 257 -59 l 1
250 -52 m 2
 264 -52 l 2
 269 -52 273 -52 276 -54 c 0
 279 -56 282 -59 284 -62 c 0
 286 -65 286 -69 286 -74 c 0
 286 -82 284 -88 280 -92 c 0
 276 -96 269 -98 262 -98 c 2
 250 -98 l 2
 249 -98 249 -97 249 -96 c 2
 249 -53 l 2
 249 -52 249 -52 250 -52 c 2
220 -59 m 1
 220 -74 l 1
 223 -74 l 2
 227 -74 230 -73 232 -72 c 0
 234 -71 234 -69 234 -66 c 0
 234 -63 234 -61 232 -60 c 0
 231 -59 228 -59 224 -59 c 2
 220 -59 l 1
213 -52 m 2
 225 -52 l 2
 231 -52 235 -52 238 -55 c 0
 241 -57 242 -62 242 -66 c 0
 242 -68 242 -69 241 -71 c 0
 240 -73 239 -75 238 -76 c 0
 236 -77 234 -78 232 -79 c 0
 230 -80 227 -81 224 -81 c 2
 220 -81 l 1
 220 -96 l 2
 220 -97 220 -98 219 -98 c 2
 213 -98 l 2
 212 -98 212 -97 212 -96 c 2
 212 -53 l 2
 212 -52 212 -52 213 -52 c 2
191 -51 m 0
 193 -51 196 -52 198 -52 c 0
 200 -52 202 -52 204 -53 c 2
 205 -55 l 1
 203 -60 l 1
 203 -60 203 -60 202 -60 c 2
 201 -60 l 2
 200 -59 198 -59 196 -59 c 0
 194 -59 193 -58 191 -58 c 0
 188 -58 187 -59 186 -60 c 0
 185 -61 184 -61 184 -63 c 0
 184 -64 185 -65 185 -66 c 0
 185 -67 186 -68 187 -69 c 0
 188 -70 191 -70 193 -71 c 0
 196 -72 198 -73 200 -74 c 0
 202 -75 203 -76 204 -78 c 0
 205 -80 206 -83 206 -85 c 0
 206 -89 204 -93 201 -95 c 0
 198 -97 194 -98 189 -98 c 0
 186 -98 184 -98 182 -98 c 0
 180 -98 178 -97 176 -96 c 2
 176 -95 l 1
 176 -90 l 2
 176 -89 176 -88 177 -88 c 1
 177 -89 l 2
 178 -90 181 -89 183 -90 c 0
 185 -91 187 -91 189 -91 c 0
 192 -91 195 -90 196 -89 c 0
 197 -88 198 -87 198 -85 c 0
 198 -84 197 -83 197 -82 c 0
 197 -81 195 -81 194 -80 c 0
 193 -79 191 -78 188 -77 c 0
 184 -76 181 -74 179 -72 c 0
 177 -70 176 -67 176 -63 c 0
 176 -61 177 -59 178 -57 c 0
 179 -55 182 -53 184 -52 c 0
 186 -51 188 -51 191 -51 c 0
371 274 m 1
 371 211 l 1
 389 211 l 1
 389 274 l 1
 371 274 l 1
366 285 m 2
 394 285 l 2
 397 285 400 283 400 280 c 2
 400 205 l 2
 400 202 397 200 394 200 c 2
 366 200 l 2
 363 200 360 202 360 205 c 2
 360 280 l 2
 360 283 363 285 366 285 c 2
278 274 m 1
 254 211 l 1
 337 211 l 1
 337 274 l 1
 278 274 l 1
274 285 m 2
 343 285 l 2
 346 285 349 283 349 280 c 2
 349 205 l 2
 349 202 346 200 343 200 c 2
 246 200 l 2
 243 200 240 202 240 205 c 0
 240 206 241 207 241 208 c 2
 269 282 l 2
 270 284 272 285 274 285 c 2
262 303 m 2
 411 303 l 2
 414 303 417 300 417 297 c 2
 417 68 l 2
 417 65 414 63 411 63 c 2
 383 63 l 2
 380 63 377 65 377 68 c 0
 377 71 380 74 383 74 c 2
 406 74 l 1
 406 291 l 1
 265 291 l 1
 228 203 l 2
 227 201 226 200 224 200 c 2
 80 178 l 1
 69 102 l 2
 69 100 67 98 65 97 c 2
 52 93 l 1
 52 74 l 1
 76 74 l 2
 79 74 82 71 82 68 c 0
 82 65 79 63 76 63 c 2
 46 63 l 2
 43 63 40 65 40 68 c 2
 40 97 l 2
 40 100 42 101 44 102 c 2
 58 107 l 1
 69 183 l 2
 69 185 72 188 74 188 c 2
 219 211 l 1
 256 299 l 2
 257 301 260 303 262 303 c 2
303 95 m 0
 288 95 276 82 276 67 c 0
 276 52 288 40 303 40 c 0
 318 40 330 52 330 67 c 0
 330 82 318 95 303 95 c 0
303 106 m 0
 324 106 342 88 342 67 c 0
 342 46 324 29 303 29 c 0
 282 29 264 46 264 67 c 0
 264 88 282 106 303 106 c 0
303 123 m 0
 272 123 247 98 247 67 c 0
 247 36 272 11 303 11 c 0
 334 11 359 36 359 67 c 0
 359 98 334 123 303 123 c 0
303 135 m 0
 340 135 370 104 370 67 c 0
 370 30 340 0 303 0 c 0
 266 0 236 30 236 67 c 0
 236 104 266 135 303 135 c 0
160 95 m 0
 145 95 133 82 133 67 c 0
 133 52 145 40 160 40 c 0
 175 40 188 52 188 67 c 0
 188 82 175 95 160 95 c 0
160 106 m 0
 181 106 199 88 199 67 c 0
 199 46 181 29 160 29 c 0
 139 29 122 46 122 67 c 0
 122 88 139 106 160 106 c 0
160 123 m 0
 129 123 104 98 104 67 c 0
 104 36 129 11 160 11 c 0
 191 11 216 36 216 67 c 0
 216 98 191 123 160 123 c 0
160 135 m 0
 197 135 228 104 228 67 c 0
 228 30 197 0 160 0 c 0
 123 0 93 30 93 67 c 0
 93 104 123 135 160 135 c 0
EndSplineSet
Validated: 1
LCarets2: 3 0 0 0
Ligature2: "liga_Trucks" T T two S
EndChar

StartChar: T_T_three_S
Encoding: 86 -1 11
Width: 246
Flags: MW
LayerCount: 2
Fore
SplineSet
380 -62 m 1
 380 -93 l 1
 384 -93 l 2
 389 -93 393 -92 395 -89 c 0
 397 -86 399 -82 399 -77 c 0
 399 -72 397 -68 395 -66 c 0
 393 -64 390 -62 385 -62 c 2
 380 -62 l 1
374 -55 m 2
 386 -55 l 2
 390 -55 394 -56 397 -58 c 0
 400 -60 402 -62 404 -65 c 0
 406 -68 407 -72 407 -77 c 0
 407 -84 405 -90 401 -94 c 0
 397 -98 392 -100 385 -100 c 2
 374 -100 l 2
 373 -100 372 -100 372 -99 c 2
 372 -56 l 2
 372 -55 373 -55 374 -55 c 2
350 -66 m 1
 350 -67 350 -67 350 -68 c 2
 346 -80 l 1
 355 -80 l 1
 351 -68 l 1
 351 -68 351 -68 351 -67 c 2
 350 -66 l 1
348 -55 m 1
 353 -55 l 1
 354 -56 l 1
 369 -98 l 2
 369 -99 369 -100 368 -100 c 2
 363 -100 l 1
 362 -99 l 1
 357 -87 l 1
 343 -87 l 1
 339 -99 l 1
 338 -100 l 1
 332 -100 l 2
 331 -100 331 -99 331 -98 c 2
 347 -56 l 1
 348 -55 l 1
307 -55 m 2
 329 -55 l 2
 330 -55 330 -55 330 -56 c 2
 330 -61 l 2
 330 -62 330 -62 329 -62 c 2
 313 -62 l 1
 313 -73 l 1
 328 -73 l 2
 329 -73 329 -73 329 -74 c 2
 329 -79 l 2
 329 -80 329 -80 328 -80 c 2
 313 -80 l 1
 313 -93 l 1
 329 -93 l 2
 330 -93 330 -93 330 -94 c 2
 330 -99 l 2
 330 -100 330 -100 329 -100 c 2
 307 -100 l 2
 306 -100 306 -100 306 -99 c 2
 306 -56 l 2
 306 -55 306 -55 307 -55 c 2
278 -62 m 1
 278 -75 l 1
 283 -75 l 2
 286 -75 289 -75 290 -74 c 0
 291 -73 291 -71 291 -69 c 0
 291 -66 291 -65 290 -64 c 0
 289 -63 286 -62 283 -62 c 2
 278 -62 l 1
272 -55 m 2
 283 -55 l 2
 288 -55 292 -56 295 -58 c 0
 298 -60 299 -64 299 -68 c 0
 299 -70 299 -72 298 -73 c 0
 298 -74 297 -76 296 -77 c 0
 295 -78 294 -78 293 -79 c 0
 292 -79 292 -80 291 -80 c 1
 302 -98 l 2
 302 -99 302 -100 301 -100 c 2
 295 -100 l 1
 294 -99 l 1
 285 -82 l 1
 278 -82 l 1
 278 -99 l 2
 278 -100 278 -100 277 -100 c 2
 272 -100 l 2
 271 -100 271 -100 271 -99 c 2
 271 -56 l 2
 271 -55 271 -55 272 -55 c 2
245 -62 m 1
 245 -76 l 1
 247 -76 l 2
 251 -76 253 -76 255 -75 c 0
 257 -74 258 -72 258 -69 c 0
 258 -67 257 -65 256 -64 c 0
 255 -63 252 -62 249 -62 c 2
 245 -62 l 1
238 -55 m 2
 249 -55 l 2
 254 -55 258 -57 261 -59 c 0
 264 -61 265 -65 265 -69 c 0
 265 -71 265 -72 264 -74 c 0
 263 -76 262 -78 261 -79 c 0
 260 -80 258 -81 256 -82 c 0
 254 -83 251 -83 248 -83 c 2
 245 -83 l 1
 245 -99 l 2
 245 -100 244 -100 243 -100 c 2
 238 -100 l 2
 237 -100 237 -100 237 -99 c 2
 237 -56 l 2
 237 -55 237 -55 238 -55 c 2
218 -55 m 0
 220 -55 223 -55 225 -55 c 0
 227 -55 228 -56 230 -57 c 0
 231 -57 231 -57 231 -58 c 2
 229 -63 l 2
 229 -64 228 -64 227 -64 c 0
 226 -63 225 -62 223 -62 c 0
 221 -62 220 -62 218 -62 c 0
 216 -62 214 -62 213 -63 c 0
 212 -64 212 -65 212 -67 c 0
 212 -68 213 -69 213 -70 c 0
 213 -71 214 -71 215 -72 c 0
 216 -73 218 -73 220 -74 c 0
 222 -75 224 -76 226 -77 c 0
 228 -78 229 -79 230 -81 c 0
 231 -83 232 -85 232 -87 c 0
 232 -91 230 -95 227 -97 c 0
 224 -99 221 -100 216 -100 c 0
 214 -100 212 -100 210 -100 c 0
 208 -100 206 -99 205 -98 c 2
 204 -97 l 1
 204 -92 l 2
 204 -91 205 -91 206 -91 c 0
 207 -92 209 -92 211 -93 c 0
 213 -93 214 -93 216 -93 c 0
 219 -93 221 -93 222 -92 c 0
 223 -91 224 -90 224 -88 c 0
 224 -87 224 -86 224 -85 c 0
 224 -84 222 -84 221 -83 c 0
 220 -82 218 -81 216 -80 c 0
 212 -79 210 -77 208 -75 c 0
 206 -73 205 -69 205 -66 c 0
 205 -64 206 -62 207 -60 c 0
 208 -58 209 -57 211 -56 c 0
 213 -55 215 -55 218 -55 c 0
446 -23 m 0
 449 -23 451 -26 451 -29 c 2
 451 -114 l 2
 451 -117 449 -120 446 -120 c 0
 443 -120 440 -117 440 -114 c 2
 440 -29 l 2
 440 -26 443 -23 446 -23 c 0
160 -23 m 0
 163 -23 166 -26 166 -29 c 2
 166 -114 l 2
 166 -117 163 -120 160 -120 c 0
 157 -120 155 -117 155 -114 c 2
 155 -29 l 2
 155 -26 157 -23 160 -23 c 0
160 95 m 0
 145 95 133 82 133 67 c 0
 133 52 145 40 160 40 c 0
 175 40 188 52 188 67 c 0
 188 82 175 95 160 95 c 0
160 106 m 0
 181 106 199 88 199 67 c 0
 199 46 181 29 160 29 c 0
 139 29 122 46 122 67 c 0
 122 88 139 106 160 106 c 0
160 123 m 0
 129 123 104 98 104 67 c 0
 104 36 129 11 160 11 c 0
 191 11 216 36 216 67 c 0
 216 98 191 123 160 123 c 0
160 135 m 0
 197 135 228 104 228 67 c 0
 228 30 197 0 160 0 c 0
 123 0 93 30 93 67 c 0
 93 104 123 135 160 135 c 0
303 95 m 0
 288 95 276 82 276 67 c 0
 276 52 288 40 303 40 c 0
 318 40 330 52 330 67 c 0
 330 82 318 95 303 95 c 0
303 106 m 0
 324 106 342 88 342 67 c 0
 342 46 324 29 303 29 c 0
 282 29 264 46 264 67 c 0
 264 88 282 106 303 106 c 0
303 123 m 0
 272 123 247 98 247 67 c 0
 247 36 272 11 303 11 c 0
 334 11 359 36 359 67 c 0
 359 98 334 123 303 123 c 0
303 135 m 0
 340 135 370 104 370 67 c 0
 370 30 340 0 303 0 c 0
 266 0 236 30 236 67 c 0
 236 104 266 135 303 135 c 0
446 95 m 0
 431 95 418 82 418 67 c 0
 418 52 431 40 446 40 c 0
 461 40 473 52 473 67 c 0
 473 82 461 95 446 95 c 0
446 106 m 0
 467 106 484 88 484 67 c 0
 484 46 467 29 446 29 c 0
 425 29 407 46 407 67 c 0
 407 88 425 106 446 106 c 0
446 123 m 0
 415 123 390 98 390 67 c 0
 390 36 415 11 446 11 c 0
 477 11 502 36 502 67 c 0
 502 98 477 123 446 123 c 0
446 135 m 0
 483 135 513 104 513 67 c 0
 513 30 483 0 446 0 c 0
 409 0 378 30 378 67 c 0
 378 104 409 135 446 135 c 0
508 274 m 1
 508 211 l 1
 531 211 l 1
 531 274 l 1
 508 274 l 1
503 285 m 2
 537 285 l 2
 540 285 543 283 543 280 c 2
 543 205 l 2
 543 202 540 200 537 200 c 2
 503 200 l 2
 500 200 497 202 497 205 c 2
 497 280 l 2
 497 283 500 285 503 285 c 2
364 274 m 1
 335 211 l 1
 429 211 l 1
 429 274 l 1
 364 274 l 1
360 285 m 2
 434 285 l 2
 437 285 440 283 440 280 c 2
 440 205 l 2
 440 202 437 200 434 200 c 2
 326 200 l 2
 323 200 320 202 320 205 c 0
 320 206 321 207 321 208 c 2
 355 282 l 2
 356 284 358 285 360 285 c 2
343 303 m 2
 554 303 l 2
 557 303 560 300 560 297 c 2
 560 68 l 2
 560 65 557 63 554 63 c 2
 526 63 l 2
 523 63 520 65 520 68 c 0
 520 71 523 74 526 74 c 2
 548 74 l 1
 548 291 l 1
 347 291 l 1
 308 203 l 2
 307 201 306 200 304 200 c 2
 74 177 l 1
 69 102 l 2
 69 100 67 98 65 97 c 2
 52 93 l 1
 52 74 l 1
 75 74 l 2
 78 74 80 71 80 68 c 0
 80 65 78 63 75 63 c 2
 46 63 l 2
 43 63 40 65 40 68 c 2
 40 97 l 2
 40 100 42 101 44 102 c 2
 58 107 l 1
 63 183 l 2
 63 186 65 188 68 188 c 2
 299 211 l 1
 338 299 l 2
 339 301 341 303 343 303 c 2
EndSplineSet
Validated: 1
LCarets2: 3 0 0 0
Ligature2: "liga_Trucks" T T three S
EndChar

StartChar: T_T_four_S
Encoding: 87 -1 12
Width: 316
Flags: HMW
LayerCount: 2
Fore
SplineSet
449 -59 m 1
 449 -90 l 1
 453 -90 l 2
 458 -90 463 -89 465 -86 c 0
 467 -83 468 -79 468 -74 c 0
 468 -69 467 -65 465 -63 c 1
 463 -61 459 -59 454 -59 c 2
 449 -59 l 1
443 -52 m 2
 455 -52 l 2
 459 -52 463 -53 466 -55 c 0
 469 -57 471 -59 473 -62 c 0
 475 -65 476 -69 476 -74 c 0
 476 -81 474 -87 470 -91 c 0
 466 -95 461 -97 454 -97 c 2
 443 -97 l 2
 442 -97 442 -97 442 -96 c 2
 442 -53 l 2
 442 -52 442 -52 443 -52 c 2
419 -63 m 1
 419 -64 419 -65 419 -66 c 1
 415 -77 l 1
 424 -77 l 1
 420 -66 l 1
 420 -66 420 -65 420 -64 c 1
 419 -63 l 1
417 -52 m 1
 422 -52 l 1
 423 -53 l 1
 438 -95 l 2
 438 -96 438 -97 437 -97 c 2
 432 -97 l 1
 431 -96 l 1
 427 -84 l 1
 412 -84 l 1
 408 -96 l 1
 407 -97 l 1
 402 -97 l 2
 401 -97 401 -96 401 -95 c 2
 416 -53 l 1
 417 -52 l 1
376 -52 m 2
 398 -52 l 2
 399 -52 399 -52 399 -53 c 2
 399 -58 l 2
 399 -59 399 -59 398 -59 c 2
 382 -59 l 1
 382 -70 l 1
 397 -70 l 2
 398 -70 398 -70 398 -71 c 2
 398 -76 l 2
 398 -77 398 -77 397 -77 c 2
 382 -77 l 1
 382 -90 l 1
 398 -90 l 2
 399 -90 399 -90 399 -91 c 2
 399 -96 l 2
 399 -97 399 -97 398 -97 c 2
 376 -97 l 2
 375 -97 375 -97 375 -96 c 2
 375 -53 l 2
 375 -52 375 -52 376 -52 c 2
347 -59 m 1
 347 -73 l 1
 352 -73 l 2
 355 -73 358 -72 359 -71 c 0
 360 -70 361 -68 361 -66 c 0
 361 -63 360 -62 359 -61 c 1
 358 -60 355 -59 352 -59 c 2
 347 -59 l 1
341 -52 m 2
 352 -52 l 2
 357 -52 361 -53 364 -55 c 0
 367 -57 368 -61 368 -65 c 0
 368 -67 368 -69 367 -70 c 0
 367 -71 366 -73 365 -74 c 0
 364 -75 363 -75 362 -76 c 0
 361 -76 361 -77 360 -77 c 1
 371 -95 l 2
 371 -96 371 -97 370 -97 c 2
 364 -97 l 1
 363 -96 l 1
 354 -79 l 1
 347 -79 l 1
 347 -96 l 2
 347 -97 347 -97 346 -97 c 2
 341 -97 l 2
 340 -97 340 -97 340 -96 c 2
 340 -53 l 2
 340 -52 340 -52 341 -52 c 2
314 -59 m 1
 314 -74 l 1
 317 -74 l 2
 321 -74 323 -73 325 -72 c 1
 327 -71 327 -69 327 -66 c 0
 327 -64 326 -62 325 -61 c 1
 324 -60 321 -59 318 -59 c 2
 314 -59 l 1
308 -52 m 2
 318 -52 l 2
 323 -52 327 -54 330 -56 c 0
 333 -58 334 -62 334 -66 c 0
 334 -68 334 -69 333 -71 c 0
 332 -73 331 -75 330 -76 c 1
 329 -77 327 -78 325 -79 c 0
 323 -80 320 -80 317 -80 c 2
 314 -80 l 1
 314 -96 l 2
 314 -97 314 -97 313 -97 c 2
 308 -97 l 2
 307 -97 307 -97 307 -96 c 2
 307 -53 l 2
 307 -52 307 -52 308 -52 c 2
274 -64 m 0
 274 -60 276 -52 288 -52 c 2
 294 -52 l 2
 296 -52 297 -53 299 -54 c 0
 300 -54 300 -55 300 -56 c 2
 298 -60 l 2
 298 -61 298 -61 297 -61 c 0
 296 -60 294 -59 292 -59 c 2
 288 -59 l 2
 286 -59 284 -59 283 -60 c 1
 282 -61 281 -62 281 -64 c 0
 281 -65 282 -66 282 -67 c 0
 282 -70 296 -71 299 -78 c 1
 300 -80 301 -82 301 -84 c 0
 301 -93 291 -98 285 -98 c 0
 283 -98 281 -97 279 -97 c 0
 276 -97 274 -95 273 -94 c 1
 273 -89 l 2
 273 -88 274 -88 275 -88 c 0
 276 -89 278 -89 280 -90 c 0
 282 -90 284 -91 286 -91 c 0
 293 -91 293 -87 293 -85 c 2
 293 -82 l 2
 293 -82 288 -79 285 -77 c 1
 281 -76 274 -72 274 -64 c 0
583 -23 m 1
 586 -23 588 -26 588 -29 c 2
 588 -74 l 1
 588 -114 l 2
 588 -117 586 -120 583 -120 c 1
 580 -120 577 -117 577 -114 c 2
 577 -80 l 1
 503 -80 l 2
 500 -80 497 -77 497 -74 c 1
 497 -71 500 -68 503 -68 c 2
 577 -68 l 1
 577 -29 l 2
 577 -26 580 -23 583 -23 c 1
155 -23 m 1
 158 -23 160 -26 160 -29 c 2
 160 -68 l 1
 240 -68 l 2
 243 -68 246 -71 246 -74 c 1
 246 -77 243 -80 240 -80 c 2
 160 -80 l 1
 160 -114 l 2
 160 -117 158 -120 155 -120 c 1
 152 -120 149 -117 149 -114 c 2
 149 -74 l 1
 149 -29 l 2
 149 -26 152 -23 155 -23 c 1
155 95 m 0
 140 95 127 82 127 67 c 0
 127 52 140 40 155 40 c 0
 170 40 182 52 182 67 c 0
 182 82 170 95 155 95 c 0
155 106 m 0
 176 106 193 88 193 67 c 0
 193 46 176 29 155 29 c 0
 134 29 116 46 116 67 c 0
 116 88 134 106 155 106 c 0
155 123 m 0
 124 123 99 98 99 67 c 0
 99 36 124 11 155 11 c 0
 186 11 211 36 211 67 c 0
 211 98 186 123 155 123 c 0
155 135 m 0
 192 135 222 104 222 67 c 0
 222 30 192 0 155 0 c 0
 118 0 87 30 87 67 c 0
 87 104 118 135 155 135 c 0
297 95 m 0
 282 95 270 82 270 67 c 0
 270 52 282 40 297 40 c 0
 312 40 325 52 325 67 c 0
 325 82 312 95 297 95 c 0
297 106 m 0
 318 106 336 88 336 67 c 0
 336 46 318 29 297 29 c 0
 276 29 259 46 259 67 c 0
 259 88 276 106 297 106 c 0
297 123 m 0
 266 123 241 98 241 67 c 0
 241 36 266 11 297 11 c 0
 328 11 353 36 353 67 c 0
 353 98 328 123 297 123 c 0
297 135 m 0
 334 135 365 104 365 67 c 0
 365 30 334 0 297 0 c 0
 260 0 230 30 230 67 c 0
 230 104 260 135 297 135 c 0
440 95 m 0
 425 95 413 82 413 67 c 0
 413 52 425 40 440 40 c 0
 455 40 467 52 467 67 c 0
 467 82 455 95 440 95 c 0
440 106 m 0
 461 106 479 88 479 67 c 0
 479 46 461 29 440 29 c 0
 419 29 401 46 401 67 c 0
 401 88 419 106 440 106 c 0
440 123 m 0
 409 123 384 98 384 67 c 0
 384 36 409 11 440 11 c 0
 471 11 496 36 496 67 c 0
 496 98 471 123 440 123 c 0
440 135 m 0
 477 135 507 104 507 67 c 0
 507 30 477 0 440 0 c 0
 403 0 373 30 373 67 c 0
 373 104 403 135 440 135 c 0
583 95 m 0
 568 95 555 82 555 67 c 0
 555 52 568 40 583 40 c 0
 598 40 610 52 610 67 c 0
 610 82 598 95 583 95 c 0
583 106 m 0
 604 106 621 88 621 67 c 0
 621 46 604 29 583 29 c 0
 562 29 544 46 544 67 c 0
 544 88 562 106 583 106 c 0
583 123 m 0
 552 123 527 98 527 67 c 0
 527 36 552 11 583 11 c 0
 614 11 639 36 639 67 c 0
 639 98 614 123 583 123 c 0
583 135 m 0
 620 135 650 104 650 67 c 0
 650 30 620 0 583 0 c 0
 546 0 515 30 515 67 c 0
 515 104 546 135 583 135 c 0
623 274 m 1
 623 211 l 1
 668 211 l 1
 668 274 l 1
 623 274 l 1
617 285 m 2
 674 285 l 2
 677 285 680 283 680 280 c 2
 680 205 l 2
 680 202 677 200 674 200 c 2
 617 200 l 2
 614 200 611 202 611 205 c 2
 611 280 l 2
 611 283 614 285 617 285 c 2
370 274 m 1
 346 211 l 1
 440 211 l 1
 440 274 l 1
 370 274 l 1
366 285 m 1
 446 285 l 2
 449 285 451 283 451 280 c 2
 451 205 l 2
 451 202 449 200 446 200 c 2
 337 200 l 1
 334 200 332 202 332 205 c 0
 332 206 332 207 332 208 c 2
 360 282 l 2
 361 284 364 285 366 285 c 1
354 303 m 2
 691 303 l 2
 694 303 697 300 697 297 c 2
 697 68 l 2
 697 65 694 63 691 63 c 2
 668 63 l 2
 665 63 663 65 663 68 c 0
 663 71 665 74 668 74 c 2
 685 74 l 1
 685 291 l 1
 358 291 l 1
 320 203 l 2
 319 201 317 200 315 200 c 2
 74 177 l 1
 69 102 l 2
 69 100 67 98 65 97 c 2
 52 93 l 1
 52 74 l 1
 69 74 l 2
 72 74 75 71 75 68 c 0
 75 65 72 63 69 63 c 2
 46 63 l 2
 43 63 40 65 40 68 c 2
 40 97 l 2
 40 100 42 101 44 102 c 2
 58 107 l 1
 63 183 l 2
 63 186 65 188 68 188 c 2
 311 211 l 1
 349 299 l 2
 350 301 352 303 354 303 c 2
EndSplineSet
Validated: 1
LCarets2: 3 0 0 0
Ligature2: "liga_Trucks" T T four S
EndChar

StartChar: two_J
Encoding: 89 -1 13
Width: 326
Flags: HMW
LayerCount: 2
Fore
SplineSet
-134 240 m 2
 143 240 l 2
 144 240 145 240 146 239 c 2
 236 177 l 1
 626 177 l 2
 629 177 631 174 631 171 c 2
 631 152 l 1
 602 67 l 2
 601 65 600 63 597 63 c 2
 563 63 l 2
 561 63 558 64 557 66 c 2
 525 148 l 1
 177 148 l 2
 175 148 173 150 172 151 c 2
 128 211 l 1
 -88 211 l 1
 -88 208 -91 205 -94 205 c 2
 -117 205 l 2
 -120 205 -122 208 -122 211 c 1
 -134 211 l 2
 -137 211 -139 214 -139 217 c 2
 -139 234 l 2
 -139 237 -137 240 -134 240 c 2
-128 228 m 1
 -128 223 l 1
 131 223 l 2
 133 223 135 221 136 220 c 2
 180 160 l 1
 528 160 l 2
 530 160 533 158 534 156 c 2
 567 74 l 1
 593 74 l 1
 620 155 l 1
 620 166 l 1
 234 166 l 2
 233 166 232 166 231 167 c 2
 141 228 l 1
 -128 228 l 1
460 135 m 0
 497 135 527 104 527 67 c 0
 527 30 497 0 460 0 c 0
 423 0 393 30 393 67 c 0
 393 104 423 135 460 135 c 0
460 123 m 0
 429 123 404 98 404 67 c 0
 404 36 429 11 460 11 c 0
 491 11 516 36 516 67 c 0
 516 98 491 123 460 123 c 0
460 106 m 0
 481 106 499 88 499 67 c 0
 499 46 481 29 460 29 c 0
 439 29 421 46 421 67 c 0
 421 88 439 106 460 106 c 0
460 95 m 0
 445 95 433 82 433 67 c 0
 433 52 445 40 460 40 c 0
 475 40 487 52 487 67 c 0
 487 82 475 95 460 95 c 0
317 135 m 0
 354 135 385 104 385 67 c 0
 385 30 354 0 317 0 c 0
 280 0 250 30 250 67 c 0
 250 104 280 135 317 135 c 0
317 123 m 0
 286 123 261 98 261 67 c 0
 261 36 286 11 317 11 c 0
 348 11 373 36 373 67 c 0
 373 98 348 123 317 123 c 0
317 106 m 0
 338 106 356 88 356 67 c 0
 356 46 338 29 317 29 c 0
 296 29 279 46 279 67 c 0
 279 88 296 106 317 106 c 0
317 95 m 0
 302 95 290 82 290 67 c 0
 290 52 302 40 317 40 c 0
 332 40 345 52 345 67 c 0
 345 82 332 95 317 95 c 0
318 -24 m 0
 321 -24 323 -26 323 -29 c 2
 323 -115 l 2
 323 -118 321 -121 318 -121 c 0
 315 -121 312 -118 312 -115 c 2
 312 -81 l 1
 278 -81 l 2
 275 -81 272 -78 272 -75 c 0
 272 -72 275 -69 278 -69 c 2
 312 -69 l 1
 312 -29 l 2
 312 -26 315 -24 318 -24 c 0
460 -24 m 0
 463 -24 466 -26 466 -29 c 2
 466 -115 l 2
 466 -118 463 -121 460 -121 c 0
 457 -121 455 -118 455 -115 c 2
 455 -29 l 2
 455 -26 457 -24 460 -24 c 0
-53 -69 m 2
 -19 -69 l 2
 -16 -69 -13 -72 -13 -75 c 0
 -13 -78 -16 -81 -19 -81 c 2
 -53 -81 l 2
 -56 -81 -59 -78 -59 -75 c 0
 -59 -72 -56 -69 -53 -69 c 2
22 -67 m 0
 22 -72 41 -70 41 -85 c 0
 41 -99 27 -99 26 -99 c 0
 24 -99 21 -98 19 -98 c 0
 17 -98 15 -98 14 -97 c 1
 14 -90 l 2
 14 -89 14 -89 15 -89 c 0
 16 -90 18 -90 20 -91 c 0
 22 -91 24 -92 26 -92 c 0
 31 -92 34 -89 34 -86 c 0
 34 -85 33 -84 33 -83 c 0
 33 -78 14 -80 14 -64 c 0
 14 -57 22 -52 28 -52 c 0
 30 -52 32 -53 34 -53 c 0
 36 -53 38 -54 40 -55 c 0
 41 -55 40 -55 40 -56 c 2
 39 -61 l 2
 39 -62 38 -61 37 -61 c 0
 36 -60 35 -60 33 -60 c 0
 31 -60 30 -59 28 -59 c 0
 25 -59 21 -61 21 -64 c 0
 21 -65 22 -66 22 -67 c 0
75 -67 m 0
 75 -71 73 -81 58 -81 c 2
 55 -81 l 1
 55 -97 l 2
 55 -98 54 -98 53 -98 c 2
 48 -98 l 2
 47 -98 47 -98 47 -97 c 2
 47 -54 l 2
 47 -53 47 -53 48 -53 c 2
 59 -53 l 2
 74 -53 75 -61 75 -67 c 0
68 -67 m 0
 68 -64 67 -60 59 -60 c 2
 55 -60 l 1
 55 -74 l 1
 58 -74 l 2
 62 -74 63 -74 65 -73 c 1
 66 -73 l 1
 68 -72 68 -70 68 -67 c 0
89 -53 m 1
 96 -53 l 1
 111 -96 l 2
 111 -97 111 -98 110 -98 c 2
 105 -98 l 1
 104 -97 l 1
 99 -85 l 1
 85 -85 l 1
 80 -97 l 1
 79 -98 l 1
 74 -98 l 2
 73 -98 73 -97 73 -96 c 2
 89 -53 l 1
92 -64 m 1
 92 -66 l 1
 88 -78 l 1
 97 -78 l 1
 93 -66 l 1
 93 -65 l 1
 92 -64 l 1
131 -99 m 0
 120 -99 112 -93 112 -75 c 0
 112 -67 114 -52 132 -52 c 0
 136 -52 141 -53 144 -55 c 0
 145 -55 144 -55 144 -56 c 2
 142 -61 l 2
 142 -62 142 -62 141 -62 c 0
 140 -61 139 -60 137 -60 c 1
 132 -57 123 -62 123 -64 c 0
 121 -67 119 -70 119 -75 c 0
 119 -79 120 -92 132 -92 c 0
 134 -92 135 -91 137 -91 c 0
 139 -91 139 -90 141 -90 c 0
 142 -90 143 -90 143 -91 c 2
 143 -96 l 1
 142 -97 141 -98 137 -98 c 0
 135 -98 133 -99 131 -99 c 0
147 -53 m 2
 162 -53 l 2
 163 -53 163 -53 163 -54 c 2
 163 -57 l 2
 163 -58 163 -58 162 -58 c 2
 158 -59 l 1
 158 -92 l 1
 162 -93 l 2
 163 -93 163 -93 163 -94 c 2
 163 -97 l 2
 163 -98 163 -98 162 -98 c 2
 147 -98 l 2
 146 -98 146 -98 146 -97 c 2
 146 -94 l 2
 146 -93 146 -93 147 -93 c 2
 151 -92 l 1
 151 -59 l 1
 147 -58 l 1
 147 -58 146 -58 146 -57 c 2
 146 -54 l 2
 146 -53 146 -53 147 -53 c 2
202 -98 m 2
 195 -98 l 1
 175 -65 l 1
 175 -66 l 2
 175 -68 176 -71 176 -73 c 2
 176 -97 l 2
 176 -98 175 -98 174 -98 c 2
 170 -98 l 2
 169 -98 169 -98 169 -97 c 2
 169 -54 l 2
 169 -53 169 -53 170 -53 c 2
 177 -53 l 1
 196 -86 l 1
 196 -54 l 2
 196 -53 196 -53 197 -53 c 2
 202 -53 l 2
 203 -53 203 -53 203 -54 c 2
 203 -97 l 2
 203 -98 203 -98 202 -98 c 2
230 -99 m 0
 222 -99 210 -96 210 -75 c 0
 210 -65 213 -52 232 -52 c 0
 234 -52 236 -53 238 -53 c 0
 240 -53 242 -54 244 -55 c 0
 245 -55 245 -55 245 -56 c 2
 243 -61 l 2
 243 -62 242 -62 241 -62 c 0
 240 -61 239 -60 237 -60 c 0
 235 -60 233 -59 231 -59 c 0
 219 -59 217 -72 217 -75 c 0
 217 -78 218 -92 231 -92 c 0
 233 -92 235 -91 236 -91 c 2
 238 -91 l 1
 238 -80 l 1
 230 -80 l 2
 229 -80 229 -80 229 -79 c 2
 229 -74 l 2
 229 -73 229 -73 230 -73 c 2
 244 -73 l 2
 245 -73 245 -73 245 -74 c 2
 245 -96 l 1
 243 -97 240 -98 238 -98 c 0
 236 -98 233 -99 230 -99 c 0
336 -88 m 0
 336 -88 343 -90 348 -90 c 0
 352 -90 356 -90 356 -84 c 2
 356 -81 l 2
 356 -77 335 -78 335 -62 c 0
 335 -59 336 -50 350 -50 c 0
 352 -50 355 -51 357 -51 c 0
 359 -51 361 -52 363 -53 c 0
 364 -53 363 -53 363 -54 c 2
 361 -59 l 2
 361 -60 361 -60 360 -60 c 0
 359 -59 357 -58 355 -58 c 0
 353 -58 352 -57 350 -57 c 0
 347 -57 343 -58 343 -62 c 0
 343 -63 344 -64 344 -65 c 0
 344 -71 364 -68 364 -84 c 0
 364 -88 364 -97 347 -97 c 2
 340 -97 l 2
 339 -97 336 -96 334 -94 c 1
 334 -89 l 2
 334 -88 335 -88 336 -88 c 0
401 -65 m 0
 401 -68 400 -80 382 -80 c 2
 379 -80 l 1
 379 -96 l 2
 379 -97 378 -97 377 -97 c 2
 372 -97 l 2
 371 -97 371 -97 371 -96 c 2
 371 -52 l 2
 371 -51 371 -51 372 -51 c 2
 383 -51 l 2
 392 -51 401 -51 401 -65 c 0
393 -65 m 0
 393 -62 393 -58 383 -58 c 2
 379 -58 l 1
 379 -73 l 1
 382 -73 l 2
 386 -73 393 -72 393 -65 c 0
445 -73 m 0
 445 -86 440 -97 421 -97 c 2
 409 -97 l 2
 408 -97 408 -97 408 -96 c 2
 408 -52 l 2
 408 -51 408 -51 409 -51 c 2
 422 -51 l 2
 442 -51 445 -65 445 -73 c 0
437 -73 m 0
 437 -59 426 -58 422 -58 c 2
 416 -58 l 1
 416 -90 l 1
 420 -90 l 2
 432 -90 437 -85 437 -73 c 0
EndSplineSet
Validated: 1
LCarets2: 1 0
Ligature2: "liga_Jeeps" two J
EndChar

StartChar: three_J
Encoding: 90 -1 14
Width: 404
Flags: HMW
LayerCount: 2
Fore
SplineSet
561 -73 m 0
 561 -61 557 -58 547 -58 c 2
 542 -58 l 1
 542 -89 l 1
 546 -89 l 2
 553 -89 561 -88 561 -73 c 0
569 -73 m 0
 569 -78 567 -96 547 -96 c 2
 536 -96 l 2
 535 -96 535 -95 535 -94 c 2
 535 -52 l 2
 535 -51 535 -51 536 -51 c 2
 548 -51 l 2
 567 -51 569 -67 569 -73 c 0
512 -64 m 2
 508 -75 l 1
 517 -75 l 1
 514 -64 l 1
 514 -64 513 -64 513 -63 c 1
 512 -64 l 2
510 -51 m 1
 515 -51 l 1
 516 -52 l 1
 532 -94 l 2
 532 -95 531 -96 530 -96 c 2
 525 -96 l 1
 524 -95 l 1
 520 -82 l 1
 505 -82 l 1
 501 -95 l 1
 500 -96 l 1
 495 -96 l 2
 494 -96 494 -95 494 -94 c 2
 509 -52 l 1
 510 -51 l 1
469 -51 m 2
 492 -51 l 2
 493 -51 493 -51 493 -52 c 2
 493 -57 l 2
 493 -58 493 -58 492 -58 c 2
 475 -58 l 1
 475 -69 l 1
 491 -69 l 2
 492 -69 492 -69 492 -70 c 2
 492 -75 l 2
 492 -76 492 -76 491 -76 c 2
 475 -76 l 1
 475 -89 l 1
 492 -89 l 2
 493 -89 493 -89 493 -90 c 2
 493 -94 l 2
 493 -95 493 -96 492 -96 c 2
 469 -96 l 2
 468 -96 468 -95 468 -94 c 2
 468 -52 l 2
 468 -51 468 -51 469 -51 c 2
454 -64 m 0
 454 -58 450 -58 445 -58 c 2
 441 -58 l 1
 441 -71 l 1
 446 -71 l 2
 450 -71 454 -71 454 -64 c 0
460 -69 m 0
 460 -71 458 -73 456 -75 c 0
 455 -75 455 -76 454 -76 c 1
 464 -94 l 2
 464 -95 464 -96 463 -96 c 2
 457 -96 l 1
 456 -95 l 1
 447 -78 l 1
 441 -78 l 1
 441 -94 l 2
 441 -95 441 -96 440 -96 c 2
 435 -96 l 2
 434 -96 434 -95 434 -94 c 2
 434 -52 l 2
 434 -51 434 -51 435 -51 c 2
 446 -51 l 2
 450 -51 461 -51 461 -64 c 0
 461 -66 461 -68 460 -69 c 0
420 -65 m 0
 420 -63 419 -58 411 -58 c 2
 407 -58 l 1
 407 -72 l 1
 410 -72 l 2
 420 -72 420 -67 420 -65 c 0
427 -65 m 0
 427 -71 427 -79 410 -79 c 2
 407 -79 l 1
 407 -94 l 2
 407 -95 407 -96 406 -96 c 2
 401 -96 l 2
 400 -96 400 -95 400 -94 c 2
 400 -52 l 2
 400 -51 400 -51 401 -51 c 2
 411 -51 l 2
 427 -51 427 -58 427 -65 c 0
386 -81 m 0
 386 -77 367 -77 367 -62 c 0
 367 -55 375 -50 381 -50 c 0
 383 -50 385 -51 387 -51 c 0
 389 -51 390 -52 392 -53 c 0
 393 -53 393 -53 393 -54 c 2
 391 -59 l 2
 391 -60 391 -60 390 -60 c 0
 389 -59 388 -58 386 -58 c 0
 384 -58 383 -57 381 -57 c 0
 378 -57 374 -59 374 -62 c 0
 374 -63 375 -64 375 -65 c 0
 375 -72 394 -68 394 -83 c 0
 394 -86 394 -96 379 -96 c 2
 372 -96 l 2
 370 -96 368 -95 367 -94 c 2
 367 -88 l 2
 367 -87 367 -87 368 -87 c 0
 369 -88 371 -87 373 -88 c 0
 375 -88 377 -89 379 -89 c 0
 382 -89 387 -89 387 -84 c 0
 387 -83 386 -82 386 -81 c 0
231 -97 m 0
 222 -97 210 -94 210 -74 c 0
 210 -73 210 -50 232 -50 c 0
 234 -50 237 -51 239 -51 c 0
 241 -51 243 -52 245 -53 c 0
 246 -53 245 -54 245 -55 c 2
 243 -59 l 2
 243 -60 243 -60 242 -60 c 0
 241 -59 239 -58 237 -58 c 2
 232 -58 l 2
 227 -58 218 -58 218 -74 c 0
 218 -85 223 -90 232 -90 c 2
 236 -90 l 2
 237 -90 238 -89 239 -89 c 1
 239 -78 l 1
 231 -78 l 2
 230 -78 230 -78 230 -77 c 2
 230 -72 l 2
 230 -71 230 -71 231 -71 c 2
 245 -71 l 2
 246 -71 246 -71 246 -72 c 2
 246 -94 l 2
 246 -95 245 -95 245 -95 c 2
 243 -96 240 -96 238 -96 c 0
 236 -96 234 -97 231 -97 c 0
202 -96 m 2
 195 -96 l 1
 176 -63 l 1
 176 -95 l 2
 176 -96 176 -96 175 -96 c 2
 170 -96 l 2
 169 -96 169 -96 169 -95 c 2
 169 -52 l 2
 169 -51 169 -51 170 -51 c 2
 176 -51 l 1
 177 -52 l 1
 197 -84 l 1
 197 -83 l 2
 197 -82 196 -81 196 -80 c 2
 196 -52 l 2
 196 -51 197 -51 198 -51 c 2
 202 -51 l 2
 203 -51 203 -51 203 -52 c 2
 203 -95 l 2
 203 -96 203 -96 202 -96 c 2
148 -51 m 2
 162 -51 l 2
 163 -51 164 -51 164 -52 c 2
 164 -55 l 2
 164 -56 164 -56 163 -56 c 2
 159 -57 l 1
 159 -90 l 1
 163 -91 l 2
 164 -91 164 -91 164 -92 c 2
 164 -95 l 2
 164 -96 163 -96 162 -96 c 2
 148 -96 l 2
 147 -96 147 -96 147 -95 c 2
 147 -92 l 2
 147 -91 147 -91 148 -91 c 2
 151 -90 l 1
 151 -57 l 1
 148 -56 l 1
 148 -56 147 -56 147 -55 c 2
 147 -52 l 2
 147 -51 147 -51 148 -51 c 2
132 -97 m 2
 126 -97 112 -95 112 -74 c 0
 112 -52 129 -50 133 -50 c 0
 137 -50 141 -51 144 -53 c 0
 145 -53 145 -54 145 -55 c 2
 143 -59 l 2
 143 -60 142 -60 141 -60 c 0
 140 -59 139 -58 137 -58 c 0
 132 -55 123 -60 123 -62 c 0
 121 -65 120 -69 120 -74 c 0
 120 -78 120 -90 133 -90 c 0
 135 -90 135 -89 137 -89 c 0
 139 -89 140 -88 142 -88 c 0
 143 -88 143 -88 143 -89 c 2
 143 -95 l 2
 141 -96 140 -97 138 -97 c 2
 132 -97 l 2
92 -64 m 2
 88 -76 l 1
 98 -76 l 1
 94 -64 l 1
 94 -64 93 -64 93 -63 c 1
 92 -64 l 2
81 -96 m 1
 75 -96 l 2
 74 -96 74 -96 74 -95 c 2
 90 -52 l 1
 91 -51 l 1
 95 -51 l 1
 96 -52 l 1
 112 -95 l 2
 112 -96 112 -96 111 -96 c 2
 105 -96 l 1
 100 -83 l 1
 86 -83 l 1
 81 -96 l 1
68 -65 m 0
 68 -62 67 -58 59 -58 c 2
 55 -58 l 1
 55 -73 l 1
 58 -73 l 2
 68 -73 68 -68 68 -65 c 0
76 -65 m 0
 76 -76 64 -80 59 -80 c 2
 55 -80 l 1
 55 -95 l 2
 55 -96 55 -96 54 -96 c 2
 49 -96 l 2
 48 -96 48 -96 48 -95 c 2
 48 -52 l 2
 48 -51 48 -51 49 -51 c 2
 60 -51 l 2
 62 -51 76 -52 76 -65 c 0
23 -66 m 0
 23 -69 42 -71 42 -84 c 0
 42 -88 42 -97 26 -97 c 0
 24 -97 22 -96 20 -96 c 0
 16 -96 16 -96 14 -94 c 2
 14 -89 l 2
 14 -88 15 -87 16 -87 c 0
 17 -88 19 -88 21 -89 c 0
 23 -89 25 -90 27 -90 c 0
 32 -90 35 -87 35 -84 c 0
 35 -83 34 -82 34 -81 c 0
 34 -78 15 -76 15 -63 c 0
 15 -53 22 -50 29 -50 c 0
 31 -50 33 -51 35 -51 c 0
 37 -51 38 -52 40 -53 c 0
 41 -53 41 -53 41 -54 c 2
 39 -59 l 2
 39 -60 39 -60 38 -60 c 0
 37 -59 35 -58 33 -58 c 2
 29 -58 l 2
 27 -58 25 -58 24 -59 c 2
 23 -59 l 2
 22 -60 22 -61 22 -63 c 0
 22 -64 23 -65 23 -66 c 0
-53 -69 m 2
 -19 -69 l 2
 -16 -69 -13 -72 -13 -75 c 0
 -13 -78 -16 -81 -19 -81 c 2
 -53 -81 l 2
 -56 -81 -59 -78 -59 -75 c 0
 -59 -72 -56 -69 -53 -69 c 2
603 -24 m 0
 606 -24 609 -26 609 -29 c 2
 609 -115 l 2
 609 -118 606 -121 603 -121 c 0
 600 -121 597 -118 597 -115 c 2
 597 -29 l 2
 597 -26 600 -24 603 -24 c 0
318 -24 m 0
 321 -24 323 -26 323 -29 c 2
 323 -115 l 2
 323 -118 321 -121 318 -121 c 0
 315 -121 312 -118 312 -115 c 2
 312 -81 l 1
 278 -81 l 2
 275 -81 272 -78 272 -75 c 0
 272 -72 275 -69 278 -69 c 2
 312 -69 l 1
 312 -29 l 2
 312 -26 315 -24 318 -24 c 0
317 95 m 0
 302 95 290 82 290 67 c 0
 290 52 302 40 317 40 c 0
 332 40 345 52 345 67 c 0
 345 82 332 95 317 95 c 0
317 106 m 0
 338 106 356 88 356 67 c 0
 356 46 338 29 317 29 c 0
 296 29 279 46 279 67 c 0
 279 88 296 106 317 106 c 0
317 123 m 0
 286 123 261 98 261 67 c 0
 261 36 286 11 317 11 c 0
 348 11 373 36 373 67 c 0
 373 98 348 123 317 123 c 0
317 135 m 0
 354 135 385 104 385 67 c 0
 385 30 354 0 317 0 c 0
 280 0 250 30 250 67 c 0
 250 104 280 135 317 135 c 0
460 95 m 0
 445 95 433 82 433 67 c 0
 433 52 445 40 460 40 c 0
 475 40 487 52 487 67 c 0
 487 82 475 95 460 95 c 0
460 106 m 0
 481 106 499 88 499 67 c 0
 499 46 481 29 460 29 c 0
 439 29 421 46 421 67 c 0
 421 88 439 106 460 106 c 0
460 123 m 0
 429 123 404 98 404 67 c 0
 404 36 429 11 460 11 c 0
 491 11 516 36 516 67 c 0
 516 98 491 123 460 123 c 0
460 135 m 0
 497 135 527 104 527 67 c 0
 527 30 497 0 460 0 c 0
 423 0 393 30 393 67 c 0
 393 104 423 135 460 135 c 0
603 95 m 0
 588 95 575 82 575 67 c 0
 575 52 588 40 603 40 c 0
 618 40 630 52 630 67 c 0
 630 82 618 95 603 95 c 0
603 106 m 0
 624 106 641 88 641 67 c 0
 641 46 624 29 603 29 c 0
 582 29 564 46 564 67 c 0
 564 88 582 106 603 106 c 0
603 123 m 0
 572 123 547 98 547 67 c 0
 547 36 572 11 603 11 c 0
 634 11 659 36 659 67 c 0
 659 98 634 123 603 123 c 0
603 135 m 0
 640 135 670 104 670 67 c 0
 670 30 640 0 603 0 c 0
 566 0 535 30 535 67 c 0
 535 104 566 135 603 135 c 0
142 228 m 1
 -128 228 l 1
 -128 223 l 1
 133 223 l 2
 135 223 136 221 137 220 c 2
 181 160 l 1
 671 160 l 2
 673 160 675 158 676 156 c 2
 709 74 l 1
 736 74 l 1
 763 155 l 1
 763 166 l 1
 236 166 l 2
 235 166 233 166 232 167 c 2
 142 228 l 1
144 240 m 2
 145 240 146 240 147 239 c 2
 237 177 l 1
 768 177 l 2
 771 177 774 174 774 171 c 2
 774 152 l 1
 745 67 l 2
 744 65 743 63 740 63 c 2
 705 63 l 2
 703 63 701 65 700 67 c 2
 667 149 l 1
 178 149 l 2
 176 149 175 150 174 151 c 2
 130 211 l 1
 -88 211 l 1
 -88 208 -91 205 -94 205 c 2
 -117 205 l 2
 -120 205 -122 208 -122 211 c 1
 -134 211 l 2
 -137 211 -139 214 -139 217 c 2
 -139 234 l 2
 -139 237 -137 240 -134 240 c 2
 144 240 l 2
EndSplineSet
Validated: 1
LCarets2: 1 0
Ligature2: "liga_Jeeps" three J
EndChar

StartChar: four_J
Encoding: 91 -1 15
Width: 466
Flags: HMW
LayerCount: 2
Fore
SplineSet
621 -76 m 0
 621 -72 621 -61 607 -61 c 2
 602 -61 l 1
 602 -92 l 1
 606 -92 l 2
 613 -92 621 -91 621 -76 c 0
629 -76 m 0
 629 -81 627 -99 607 -99 c 2
 596 -99 l 2
 595 -99 595 -99 595 -98 c 2
 595 -55 l 2
 595 -54 595 -54 596 -54 c 2
 608 -54 l 2
 617 -54 629 -60 629 -76 c 0
572 -65 m 1
 572 -68 l 1
 568 -79 l 1
 577 -79 l 1
 573 -68 l 1
 573 -66 l 1
 572 -65 l 1
570 -54 m 1
 575 -54 l 1
 576 -55 l 1
 591 -97 l 2
 591 -98 591 -99 590 -99 c 2
 585 -99 l 1
 584 -98 l 1
 580 -86 l 1
 565 -86 l 1
 561 -98 l 1
 560 -99 l 1
 555 -99 l 2
 554 -99 554 -98 554 -97 c 2
 569 -55 l 1
 570 -54 l 1
529 -54 m 2
 551 -54 l 2
 552 -54 552 -54 552 -55 c 2
 552 -60 l 2
 552 -61 552 -61 551 -61 c 2
 535 -61 l 1
 535 -72 l 1
 550 -72 l 2
 551 -72 551 -72 551 -73 c 2
 551 -78 l 2
 551 -79 551 -79 550 -79 c 2
 535 -79 l 1
 535 -92 l 1
 551 -92 l 2
 552 -92 552 -92 552 -93 c 2
 552 -98 l 2
 552 -99 552 -99 551 -99 c 2
 529 -99 l 2
 528 -99 528 -99 528 -98 c 2
 528 -55 l 2
 528 -54 528 -54 529 -54 c 2
514 -68 m 0
 514 -65 513 -61 505 -61 c 2
 501 -61 l 1
 501 -75 l 1
 505 -75 l 2
 508 -75 514 -74 514 -68 c 0
505 -54 m 2
 507 -54 521 -55 521 -68 c 0
 521 -70 521 -71 520 -72 c 0
 520 -73 519 -75 518 -76 c 0
 517 -77 516 -77 515 -78 c 0
 514 -78 515 -79 514 -79 c 1
 524 -97 l 2
 524 -98 524 -99 523 -99 c 2
 517 -99 l 1
 516 -98 l 1
 507 -81 l 1
 501 -81 l 1
 501 -98 l 2
 501 -99 500 -99 499 -99 c 2
 494 -99 l 2
 493 -99 493 -99 493 -98 c 2
 493 -55 l 2
 493 -54 493 -54 494 -54 c 2
 505 -54 l 2
480 -68 m 0
 480 -66 479 -61 471 -61 c 2
 467 -61 l 1
 467 -76 l 1
 470 -76 l 2
 480 -76 480 -71 480 -68 c 0
487 -68 m 0
 487 -72 485 -82 470 -82 c 2
 467 -82 l 1
 467 -98 l 2
 467 -99 467 -99 466 -99 c 2
 461 -99 l 2
 460 -99 460 -99 460 -98 c 2
 460 -55 l 2
 460 -54 460 -54 461 -54 c 2
 471 -54 l 2
 473 -54 487 -55 487 -68 c 0
427 -66 m 0
 427 -62 429 -54 441 -54 c 2
 447 -54 l 2
 449 -54 450 -55 452 -56 c 0
 453 -56 453 -57 453 -58 c 2
 451 -62 l 2
 451 -63 451 -63 450 -63 c 0
 449 -62 447 -61 445 -61 c 2
 441 -61 l 2
 439 -61 434 -61 434 -66 c 0
 434 -67 435 -68 435 -69 c 0
 435 -72 454 -74 454 -86 c 0
 454 -95 444 -100 438 -100 c 0
 436 -100 434 -99 432 -99 c 0
 429 -99 427 -97 426 -96 c 1
 426 -91 l 2
 426 -90 427 -90 428 -90 c 0
 429 -91 431 -91 433 -92 c 0
 435 -92 437 -93 439 -93 c 0
 444 -93 447 -90 447 -87 c 0
 447 -86 446 -85 446 -84 c 0
 446 -81 427 -79 427 -66 c 0
212 -75 m 0
 212 -65 215 -52 234 -52 c 2
 241 -52 l 2
 243 -52 244 -53 246 -54 c 0
 247 -54 247 -55 247 -56 c 2
 245 -61 l 2
 245 -62 245 -61 244 -61 c 0
 243 -60 241 -60 239 -60 c 1
 239 -59 l 1
 234 -59 l 2
 221 -59 219 -70 219 -75 c 0
 219 -81 221 -91 234 -91 c 2
 238 -91 l 2
 239 -91 239 -90 240 -90 c 1
 240 -80 l 1
 233 -80 l 2
 232 -80 231 -79 231 -78 c 2
 231 -74 l 2
 231 -73 232 -73 233 -73 c 2
 247 -73 l 2
 248 -73 248 -73 248 -74 c 2
 248 -95 l 2
 248 -96 247 -96 247 -96 c 2
 245 -97 242 -98 240 -98 c 2
 232 -98 l 2
 226 -98 212 -96 212 -75 c 0
172 -52 m 2
 178 -52 l 1
 179 -53 l 1
 198 -85 l 1
 198 -53 l 2
 198 -52 198 -52 199 -52 c 2
 204 -52 l 2
 205 -52 205 -52 205 -53 c 2
 205 -96 l 2
 205 -97 205 -98 204 -98 c 2
 198 -98 l 1
 197 -97 l 1
 178 -65 l 1
 178 -96 l 2
 178 -97 178 -98 177 -98 c 2
 172 -98 l 2
 171 -98 171 -97 171 -96 c 2
 171 -53 l 2
 171 -52 171 -52 172 -52 c 2
149 -58 m 1
 149 -53 l 2
 149 -52 149 -52 150 -52 c 2
 164 -52 l 2
 165 -52 165 -52 165 -53 c 2
 165 -57 l 2
 165 -58 165 -58 164 -58 c 2
 161 -59 l 1
 161 -91 l 1
 164 -92 l 2
 165 -92 165 -92 165 -93 c 2
 165 -96 l 2
 165 -97 165 -98 164 -98 c 2
 150 -98 l 2
 149 -98 149 -97 149 -96 c 2
 149 -93 l 2
 149 -92 148 -92 149 -92 c 2
 153 -91 l 1
 153 -59 l 1
 149 -58 l 1
114 -75 m 0
 114 -67 116 -52 134 -52 c 0
 138 -52 143 -52 146 -54 c 0
 147 -54 147 -55 147 -56 c 2
 145 -60 l 2
 145 -61 144 -61 143 -61 c 0
 142 -60 141 -59 139 -59 c 0
 134 -56 125 -61 125 -63 c 0
 123 -66 122 -70 122 -75 c 0
 122 -79 122 -91 134 -91 c 2
 139 -91 l 2
 141 -91 142 -89 144 -89 c 0
 145 -89 145 -90 145 -91 c 2
 145 -95 l 2
 144 -96 142 -98 140 -98 c 2
 134 -98 l 2
 128 -98 114 -96 114 -75 c 0
95 -64 m 1
 95 -65 94 -65 94 -66 c 2
 90 -77 l 1
 99 -77 l 1
 95 -66 l 1
 95 -64 l 1
92 -52 m 1
 97 -52 l 1
 98 -53 l 1
 114 -96 l 2
 114 -97 114 -98 113 -98 c 2
 107 -98 l 1
 106 -97 l 1
 102 -84 l 1
 87 -84 l 1
 83 -97 l 1
 82 -98 l 1
 77 -98 l 2
 76 -98 76 -97 76 -96 c 2
 91 -53 l 1
 92 -52 l 1
70 -66 m 0
 70 -63 69 -59 61 -59 c 2
 57 -59 l 1
 57 -74 l 1
 60 -74 l 2
 70 -74 70 -69 70 -66 c 0
78 -66 m 0
 78 -70 77 -81 60 -81 c 2
 57 -81 l 1
 57 -96 l 2
 57 -97 57 -98 56 -98 c 2
 51 -98 l 2
 50 -98 50 -97 50 -96 c 2
 50 -53 l 2
 50 -52 50 -52 51 -52 c 2
 61 -52 l 2
 65 -52 78 -53 78 -66 c 0
16 -64 m 0
 16 -60 18 -52 30 -52 c 2
 37 -52 l 2
 39 -52 40 -53 42 -54 c 0
 43 -54 43 -55 43 -56 c 2
 41 -60 l 2
 41 -61 41 -61 40 -61 c 0
 39 -60 37 -59 35 -59 c 2
 30 -59 l 2
 25 -59 24 -60 24 -64 c 2
 24 -67 l 2
 24 -69 44 -72 44 -85 c 0
 44 -89 42 -98 28 -98 c 2
 22 -98 l 2
 19 -98 17 -96 16 -95 c 1
 16 -90 l 2
 16 -89 16 -89 17 -89 c 0
 18 -90 20 -89 22 -90 c 0
 24 -90 26 -91 28 -91 c 0
 33 -91 36 -88 36 -85 c 2
 36 -82 l 2
 36 -79 16 -78 16 -64 c 0
-53 -69 m 2
 -20 -70 l 2
 -17 -70 -15 -72 -15 -75 c 0
 -15 -78 -17 -81 -20 -81 c 2
 -53 -81 l 2
 -56 -81 -59 -78 -59 -75 c 0
 -59 -72 -56 -69 -53 -69 c 2
740 -24 m 0
 743 -24 746 -26 746 -29 c 2
 746 -115 l 2
 746 -118 743 -121 740 -121 c 0
 737 -121 734 -118 734 -115 c 2
 734 -81 l 1
 660 -81 l 2
 657 -81 654 -78 654 -75 c 0
 654 -72 657 -69 660 -69 c 2
 734 -69 l 1
 734 -29 l 2
 734 -26 737 -24 740 -24 c 0
312 -24 m 0
 315 -24 318 -26 318 -29 c 2
 318 -69 l 1
 398 -69 l 2
 401 -69 403 -72 403 -75 c 0
 403 -78 401 -81 398 -81 c 2
 318 -81 l 1
 318 -115 l 2
 318 -118 315 -121 312 -121 c 0
 309 -121 306 -118 306 -115 c 2
 306 -81 l 1
 277 -81 l 2
 274 -81 271 -78 271 -75 c 0
 271 -72 273 -70 276 -70 c 2
 306 -69 l 1
 306 -29 l 2
 306 -26 309 -24 312 -24 c 0
312 95 m 0
 297 95 284 82 284 67 c 0
 284 52 297 40 312 40 c 0
 327 40 339 52 339 67 c 0
 339 82 327 95 312 95 c 0
312 106 m 0
 333 106 350 88 350 67 c 0
 350 46 333 29 312 29 c 0
 291 29 273 46 273 67 c 0
 273 88 291 106 312 106 c 0
312 123 m 0
 281 123 256 98 256 67 c 0
 256 36 281 11 312 11 c 0
 343 11 368 36 368 67 c 0
 368 98 343 123 312 123 c 0
312 135 m 0
 349 135 379 104 379 67 c 0
 379 30 349 0 312 0 c 0
 275 0 244 30 244 67 c 0
 244 104 275 135 312 135 c 0
454 95 m 0
 439 95 427 82 427 67 c 0
 427 52 439 40 454 40 c 0
 469 40 482 52 482 67 c 0
 482 82 469 95 454 95 c 0
454 106 m 0
 475 106 493 88 493 67 c 0
 493 46 475 29 454 29 c 0
 433 29 416 46 416 67 c 0
 416 88 433 106 454 106 c 0
454 123 m 0
 423 123 398 98 398 67 c 0
 398 36 423 11 454 11 c 0
 485 11 510 36 510 67 c 0
 510 98 485 123 454 123 c 0
454 135 m 0
 491 135 522 104 522 67 c 0
 522 30 491 0 454 0 c 0
 417 0 387 30 387 67 c 0
 387 104 417 135 454 135 c 0
597 95 m 0
 582 95 570 82 570 67 c 0
 570 52 582 40 597 40 c 0
 612 40 624 52 624 67 c 0
 624 82 612 95 597 95 c 0
597 106 m 0
 618 106 636 88 636 67 c 0
 636 46 618 29 597 29 c 0
 576 29 558 46 558 67 c 0
 558 88 576 106 597 106 c 0
597 123 m 0
 566 123 541 98 541 67 c 0
 541 36 566 11 597 11 c 0
 628 11 653 36 653 67 c 0
 653 98 628 123 597 123 c 0
597 135 m 0
 634 135 664 104 664 67 c 0
 664 30 634 0 597 0 c 0
 560 0 530 30 530 67 c 0
 530 104 560 135 597 135 c 0
740 95 m 0
 725 95 712 82 712 67 c 0
 712 52 725 40 740 40 c 0
 755 40 767 52 767 67 c 0
 767 82 755 95 740 95 c 0
740 106 m 0
 761 106 778 88 778 67 c 0
 778 46 761 29 740 29 c 0
 719 29 701 46 701 67 c 0
 701 88 719 106 740 106 c 0
740 123 m 0
 709 123 684 98 684 67 c 0
 684 36 709 11 740 11 c 0
 771 11 796 36 796 67 c 0
 796 98 771 123 740 123 c 0
740 135 m 0
 777 135 807 104 807 67 c 0
 807 30 777 0 740 0 c 0
 703 0 672 30 672 67 c 0
 672 104 703 135 740 135 c 0
139 228 m 1
 -127 228 l 1
 -127 223 l 1
 130 223 l 2
 132 223 133 221 134 220 c 2
 178 160 l 1
 808 160 l 2
 810 160 812 158 813 156 c 2
 846 74 l 1
 873 74 l 1
 900 155 l 1
 900 166 l 1
 232 166 l 2
 231 166 230 166 229 167 c 2
 139 228 l 1
141 240 m 2
 142 240 143 240 144 239 c 2
 234 177 l 1
 905 177 l 2
 908 177 911 174 911 171 c 2
 911 154 l 2
 911 153 911 153 911 152 c 2
 882 67 l 2
 881 65 880 63 877 63 c 2
 842 63 l 2
 840 63 838 64 837 66 c 2
 804 148 l 1
 175 148 l 2
 173 148 172 150 171 151 c 2
 127 211 l 1
 -87 211 l 1
 -87 208 -90 205 -93 205 c 2
 -116 205 l 2
 -119 205 -122 208 -122 211 c 1
 -133 211 l 2
 -136 211 -139 214 -139 217 c 2
 -139 234 l 2
 -139 237 -136 240 -133 240 c 2
 141 240 l 2
EndSplineSet
Validated: 1
LCarets2: 1 0
Ligature2: "liga_Jeeps" four J
EndChar

StartChar: one_B
Encoding: 100 -1 16
Width: 314
Flags: HMW
LayerCount: 2
Fore
SplineSet
247 -75 m 0
 247 -70 248 -52 269 -52 c 2
 276 -52 l 2
 278 -52 280 -53 282 -54 c 0
 283 -54 282 -55 282 -56 c 2
 281 -60 l 2
 281 -61 280 -61 279 -61 c 0
 278 -60 276 -59 274 -59 c 2
 269 -59 l 2
 256 -59 255 -72 255 -75 c 0
 255 -86 260 -91 269 -91 c 2
 273 -91 l 2
 274 -91 275 -90 276 -90 c 1
 276 -80 l 1
 268 -80 l 2
 267 -80 267 -79 267 -78 c 2
 267 -74 l 2
 267 -73 267 -72 268 -72 c 2
 282 -72 l 2
 283 -72 283 -73 283 -74 c 2
 283 -95 l 2
 283 -96 282 -96 282 -96 c 2
 280 -97 278 -98 276 -98 c 2
 268 -98 l 2
 253 -98 247 -85 247 -75 c 0
239 -97 m 2
 233 -97 l 1
 213 -65 l 1
 213 -96 l 2
 213 -97 213 -97 212 -97 c 2
 207 -97 l 2
 206 -97 206 -97 206 -96 c 2
 206 -53 l 2
 206 -52 206 -52 207 -52 c 2
 213 -52 l 1
 214 -53 l 1
 234 -85 l 1
 234 -53 l 2
 234 -52 234 -52 235 -52 c 2
 239 -52 l 2
 240 -52 241 -52 241 -53 c 2
 241 -96 l 2
 241 -97 240 -97 239 -97 c 2
185 -52 m 2
 200 -52 l 2
 201 -52 201 -52 201 -53 c 2
 201 -56 l 2
 201 -57 201 -58 200 -58 c 2
 196 -59 l 1
 196 -91 l 1
 200 -92 l 2
 201 -92 201 -92 201 -93 c 2
 201 -96 l 2
 201 -97 201 -97 200 -97 c 2
 185 -97 l 2
 184 -97 184 -97 184 -96 c 2
 184 -93 l 2
 184 -92 184 -92 185 -92 c 2
 189 -91 l 1
 189 -59 l 1
 185 -58 l 1
 185 -58 184 -57 184 -56 c 2
 184 -53 l 2
 184 -52 184 -52 185 -52 c 2
149 -75 m 0
 149 -65 155 -52 170 -52 c 0
 174 -52 179 -52 182 -54 c 0
 183 -54 182 -55 182 -56 c 2
 180 -60 l 2
 180 -61 180 -61 179 -61 c 0
 178 -60 176 -59 174 -59 c 0
 169 -55 160 -62 160 -63 c 0
 158 -66 157 -70 157 -75 c 0
 157 -79 157 -91 170 -91 c 2
 175 -91 l 2
 177 -91 177 -89 179 -89 c 0
 180 -89 181 -89 181 -90 c 2
 181 -95 l 2
 181 -95 178 -98 175 -98 c 2
 169 -98 l 2
 163 -98 149 -96 149 -75 c 0
130 -64 m 1
 130 -65 129 -65 129 -66 c 2
 125 -77 l 1
 135 -77 l 1
 131 -66 l 1
 131 -66 130 -65 130 -64 c 1
118 -97 m 1
 112 -97 l 2
 111 -97 111 -97 111 -96 c 2
 127 -53 l 1
 128 -52 l 1
 132 -52 l 1
 133 -53 l 1
 149 -96 l 2
 149 -97 149 -97 148 -97 c 2
 142 -97 l 1
 137 -84 l 1
 123 -84 l 1
 118 -97 l 1
106 -66 m 0
 106 -62 102 -59 96 -59 c 2
 92 -59 l 1
 92 -74 l 1
 95 -74 l 2
 99 -74 106 -73 106 -66 c 0
112 -72 m 1
 108 -81 100 -81 96 -81 c 2
 92 -81 l 1
 92 -96 l 2
 92 -97 92 -97 91 -97 c 2
 86 -97 l 2
 85 -97 85 -97 85 -96 c 2
 85 -53 l 2
 85 -52 85 -52 86 -52 c 2
 97 -52 l 2
 99 -52 113 -53 113 -66 c 0
 113 -68 113 -69 112 -71 c 1
 112 -72 l 1
52 -64 m 0
 52 -60 54 -52 66 -52 c 2
 72 -52 l 2
 74 -52 75 -53 77 -54 c 0
 78 -54 78 -55 78 -56 c 2
 76 -60 l 2
 76 -61 76 -61 75 -61 c 0
 74 -60 73 -59 71 -59 c 2
 66 -59 l 2
 64 -59 59 -59 59 -64 c 0
 59 -65 60 -66 60 -67 c 0
 60 -72 79 -69 79 -85 c 0
 79 -89 79 -98 63 -98 c 2
 57 -98 l 2
 54 -98 52 -96 51 -95 c 1
 51 -90 l 2
 51 -89 52 -89 53 -89 c 0
 54 -90 56 -89 58 -90 c 0
 60 -90 62 -91 64 -91 c 0
 69 -91 72 -88 72 -85 c 0
 72 -84 71 -83 71 -82 c 0
 71 -79 52 -78 52 -64 c 0
-55 -69 m 2
 7 -69 l 2
 10 -69 13 -72 13 -75 c 0
 13 -78 10 -81 7 -81 c 2
 -55 -81 l 2
 -58 -81 -61 -78 -61 -75 c 0
 -61 -72 -58 -69 -55 -69 c 2
373 -24 m 0
 376 -24 379 -26 379 -29 c 2
 379 -115 l 2
 379 -118 376 -121 373 -121 c 0
 370 -121 367 -118 367 -115 c 2
 367 -81 l 1
 321 -81 l 2
 318 -81 316 -78 316 -75 c 0
 316 -72 318 -69 321 -69 c 2
 367 -69 l 1
 367 -29 l 2
 367 -26 370 -24 373 -24 c 0
139 166 m 1
 139 160 l 1
 441 160 l 2
 443 160 446 158 447 156 c 2
 480 74 l 1
 506 74 l 1
 533 155 l 1
 533 166 l 1
 139 166 l 1
133 177 m 2
 539 177 l 2
 542 177 544 174 544 171 c 2
 544 152 l 1
 515 67 l 2
 514 65 513 63 510 63 c 2
 476 63 l 2
 474 63 471 64 470 66 c 2
 438 148 l 1
 133 148 l 2
 130 148 128 151 128 154 c 2
 128 171 l 2
 128 174 130 177 133 177 c 2
373 95 m 0
 358 95 346 82 346 67 c 0
 346 52 358 40 373 40 c 0
 388 40 400 52 400 67 c 0
 400 82 388 95 373 95 c 0
373 106 m 0
 394 106 412 88 412 67 c 0
 412 46 394 29 373 29 c 0
 352 29 334 46 334 67 c 0
 334 88 352 106 373 106 c 0
373 123 m 0
 342 123 317 98 317 67 c 0
 317 36 342 11 373 11 c 0
 404 11 429 36 429 67 c 0
 429 98 404 123 373 123 c 0
373 135 m 0
 410 135 440 104 440 67 c 0
 440 30 410 0 373 0 c 0
 336 0 306 30 306 67 c 0
 306 104 336 135 373 135 c 0
EndSplineSet
Validated: 1
LCarets2: 1 0
Ligature2: "liga_Boosters" one B
EndChar

StartChar: two_B
Encoding: 101 -1 17
Width: 381
Flags: HMW
LayerCount: 2
Fore
SplineSet
492 -76 m 0
 492 -67 488 -60 476 -60 c 2
 471 -60 l 1
 471 -92 l 1
 475 -92 l 2
 488 -92 492 -86 492 -76 c 0
500 -75 m 0
 500 -88 495 -99 476 -99 c 2
 464 -99 l 2
 463 -99 463 -99 463 -98 c 2
 463 -54 l 2
 463 -53 463 -53 464 -53 c 2
 477 -53 l 2
 497 -53 500 -67 500 -75 c 0
448 -67 m 0
 448 -64 448 -60 438 -60 c 2
 433 -60 l 1
 433 -75 l 1
 437 -75 l 2
 441 -75 448 -74 448 -67 c 0
456 -67 m 0
 456 -70 455 -82 437 -82 c 2
 433 -82 l 1
 433 -98 l 2
 433 -99 433 -99 432 -99 c 2
 427 -99 l 2
 426 -99 426 -99 426 -98 c 2
 426 -54 l 2
 426 -53 426 -53 427 -53 c 2
 438 -53 l 2
 447 -53 456 -53 456 -67 c 0
390 -64 m 0
 390 -57 398 -52 405 -52 c 0
 407 -52 410 -53 412 -53 c 0
 414 -53 415 -54 417 -55 c 0
 418 -55 418 -55 418 -56 c 2
 416 -61 l 2
 416 -62 416 -62 415 -62 c 0
 414 -61 412 -60 410 -60 c 0
 408 -60 407 -59 405 -59 c 0
 402 -59 400 -60 399 -61 c 0
 398 -62 398 -63 398 -65 c 2
 398 -68 l 2
 398 -70 406 -71 413 -75 c 0
 415 -76 417 -78 418 -80 c 0
 419 -82 419 -84 419 -86 c 0
 419 -89 418 -99 402 -99 c 2
 395 -99 l 2
 394 -99 391 -98 389 -96 c 2
 389 -91 l 2
 389 -90 390 -90 391 -90 c 0
 392 -91 394 -91 396 -92 c 0
 398 -93 401 -92 403 -92 c 0
 407 -92 411 -92 411 -86 c 2
 411 -83 l 2
 411 -79 390 -81 390 -64 c 0
247 -75 m 0
 247 -59 254 -51 269 -51 c 0
 271 -51 273 -52 275 -52 c 0
 277 -52 279 -53 281 -54 c 0
 282 -54 282 -54 282 -55 c 2
 280 -60 l 2
 280 -61 280 -61 279 -61 c 0
 278 -60 276 -59 274 -59 c 0
 272 -59 271 -58 269 -58 c 0
 254 -58 254 -75 254 -75 c 1
 254 -75 254 -91 268 -91 c 0
 270 -91 272 -90 273 -90 c 2
 275 -90 l 1
 275 -79 l 1
 268 -79 l 2
 267 -79 266 -79 266 -78 c 2
 266 -73 l 2
 266 -72 267 -72 268 -72 c 2
 281 -72 l 2
 282 -72 283 -72 283 -73 c 2
 283 -94 l 2
 283 -95 282 -96 282 -96 c 2
 280 -97 277 -97 275 -97 c 0
 273 -97 270 -98 267 -98 c 0
 263 -98 259 -97 256 -95 c 0
 253 -93 251 -90 249 -87 c 0
 247 -83 247 -80 247 -75 c 0
239 -97 m 2
 232 -97 l 1
 213 -64 l 1
 213 -96 l 2
 213 -97 213 -97 212 -97 c 2
 207 -97 l 2
 206 -97 206 -97 206 -96 c 2
 206 -53 l 2
 206 -52 206 -52 207 -52 c 2
 214 -52 l 1
 233 -85 l 1
 233 -53 l 2
 233 -52 233 -52 234 -52 c 2
 239 -52 l 2
 240 -52 240 -52 240 -53 c 2
 240 -96 l 2
 240 -97 240 -97 239 -97 c 2
185 -52 m 2
 199 -52 l 2
 200 -52 200 -52 200 -53 c 2
 200 -56 l 2
 200 -57 200 -57 199 -57 c 2
 196 -58 l 1
 196 -91 l 1
 199 -92 l 2
 200 -92 200 -92 200 -93 c 2
 200 -96 l 2
 200 -97 200 -97 199 -97 c 2
 185 -97 l 2
 184 -97 183 -97 183 -96 c 2
 183 -93 l 2
 183 -92 183 -92 184 -92 c 2
 188 -91 l 1
 188 -58 l 1
 184 -57 l 1
 184 -57 183 -57 183 -56 c 2
 183 -53 l 2
 183 -52 184 -52 185 -52 c 2
151 -63 m 0
 153 -59 157 -51 169 -51 c 0
 173 -51 178 -52 181 -54 c 0
 182 -54 182 -54 182 -55 c 2
 179 -60 l 2
 179 -61 179 -61 178 -61 c 0
 177 -60 176 -59 174 -59 c 0
 169 -56 160 -61 160 -63 c 0
 158 -66 156 -70 156 -75 c 0
 156 -80 158 -83 160 -86 c 2
 160 -87 l 2
 162 -90 165 -91 169 -91 c 0
 171 -91 172 -90 174 -90 c 0
 176 -90 177 -89 179 -89 c 0
 180 -89 180 -89 180 -90 c 2
 180 -95 l 2
 179 -96 178 -97 174 -97 c 0
 172 -97 171 -98 169 -98 c 0
 160 -98 152 -92 151 -87 c 0
 150 -83 149 -79 149 -74 c 0
 149 -70 149 -66 151 -63 c 0
130 -64 m 1
 129 -65 l 1
 125 -77 l 1
 134 -77 l 1
 130 -65 l 1
 130 -64 l 1
126 -52 m 1
 133 -52 l 1
 149 -96 l 2
 149 -97 149 -97 148 -97 c 2
 142 -97 l 1
 141 -96 l 1
 137 -84 l 1
 122 -84 l 1
 118 -96 l 1
 117 -97 l 1
 111 -97 l 2
 110 -97 110 -97 110 -96 c 2
 126 -52 l 1
105 -66 m 0
 105 -63 104 -59 96 -59 c 2
 92 -59 l 1
 92 -73 l 1
 95 -73 l 2
 104 -73 105 -72 105 -66 c 0
113 -66 m 0
 113 -70 111 -80 95 -80 c 2
 92 -80 l 1
 92 -96 l 2
 92 -97 92 -97 91 -97 c 2
 86 -97 l 2
 85 -97 84 -97 84 -96 c 2
 84 -53 l 2
 84 -52 85 -52 86 -52 c 2
 96 -52 l 2
 112 -52 113 -60 113 -66 c 0
51 -63 m 0
 51 -56 59 -51 65 -51 c 0
 67 -51 70 -52 72 -52 c 0
 74 -52 75 -53 77 -54 c 0
 78 -54 78 -54 78 -55 c 2
 76 -60 l 2
 76 -61 75 -61 74 -61 c 0
 73 -60 72 -59 70 -59 c 0
 68 -59 67 -58 65 -58 c 0
 63 -58 61 -59 60 -60 c 0
 59 -61 59 -61 59 -63 c 2
 59 -66 l 2
 59 -67 59 -67 67 -71 c 0
 76 -75 76 -75 77 -78 c 0
 78 -80 79 -83 79 -85 c 0
 79 -94 69 -98 63 -98 c 0
 61 -98 59 -97 57 -97 c 0
 55 -97 52 -97 51 -96 c 2
 51 -89 l 2
 51 -88 51 -88 52 -88 c 0
 53 -89 55 -89 57 -90 c 0
 59 -90 61 -91 63 -91 c 0
 68 -91 71 -88 71 -85 c 2
 71 -82 l 2
 71 -78 51 -79 51 -63 c 0
-55 -69 m 2
 7 -69 l 2
 10 -69 13 -72 13 -75 c 0
 13 -78 10 -81 7 -81 c 2
 -55 -81 l 2
 -58 -81 -61 -78 -61 -75 c 0
 -61 -72 -58 -69 -55 -69 c 2
516 -24 m 0
 519 -24 521 -26 521 -29 c 2
 521 -115 l 2
 521 -118 519 -121 516 -121 c 0
 513 -121 510 -118 510 -115 c 2
 510 -29 l 2
 510 -26 513 -24 516 -24 c 0
373 -24 m 0
 376 -24 379 -26 379 -29 c 2
 379 -115 l 2
 379 -118 376 -121 373 -121 c 0
 370 -121 367 -118 367 -115 c 2
 367 -81 l 1
 321 -81 l 2
 318 -81 316 -78 316 -75 c 0
 316 -72 318 -69 321 -69 c 2
 367 -69 l 1
 367 -29 l 2
 367 -26 370 -24 373 -24 c 0
372 95 m 0
 357 95 345 82 345 67 c 0
 345 52 357 40 372 40 c 0
 387 40 400 52 400 67 c 0
 400 82 387 95 372 95 c 0
372 106 m 0
 393 106 411 88 411 67 c 0
 411 46 393 29 372 29 c 0
 351 29 334 46 334 67 c 0
 334 88 351 106 372 106 c 0
372 123 m 0
 341 123 316 98 316 67 c 0
 316 36 341 11 372 11 c 0
 403 11 428 36 428 67 c 0
 428 98 403 123 372 123 c 0
372 135 m 0
 409 135 440 104 440 67 c 0
 440 30 409 0 372 0 c 0
 335 0 305 30 305 67 c 0
 305 104 335 135 372 135 c 0
515 95 m 0
 500 95 488 82 488 67 c 0
 488 52 500 40 515 40 c 0
 530 40 542 52 542 67 c 0
 542 82 530 95 515 95 c 0
515 106 m 0
 536 106 554 88 554 67 c 0
 554 46 536 29 515 29 c 0
 494 29 476 46 476 67 c 0
 476 88 494 106 515 106 c 0
515 123 m 0
 484 123 459 98 459 67 c 0
 459 36 484 11 515 11 c 0
 546 11 571 36 571 67 c 0
 571 98 546 123 515 123 c 0
515 135 m 0
 552 135 582 104 582 67 c 0
 582 30 552 0 515 0 c 0
 478 0 448 30 448 67 c 0
 448 104 478 135 515 135 c 0
138 166 m 1
 138 160 l 1
 583 160 l 2
 585 160 588 158 589 156 c 2
 622 74 l 1
 648 74 l 1
 675 155 l 1
 675 166 l 1
 138 166 l 1
133 177 m 2
 681 177 l 2
 684 177 686 174 686 171 c 2
 686 152 l 1
 657 67 l 2
 656 65 655 63 652 63 c 2
 618 63 l 2
 616 63 613 64 612 66 c 2
 580 148 l 1
 133 148 l 2
 130 148 127 151 127 154 c 2
 127 171 l 2
 127 174 130 177 133 177 c 2
EndSplineSet
Validated: 1
LCarets2: 1 0
Ligature2: "liga_Boosters" two B
EndChar

StartChar: three_B
Encoding: 102 -1 18
Width: 459
Flags: HMW
LayerCount: 2
Fore
SplineSet
608 -76 m 0
 608 -64 604 -61 594 -61 c 2
 589 -61 l 1
 589 -91 l 1
 593 -91 l 2
 598 -91 608 -91 608 -76 c 0
616 -76 m 0
 616 -81 616 -98 594 -98 c 2
 583 -98 l 2
 582 -98 582 -98 582 -97 c 2
 582 -55 l 2
 582 -54 582 -54 583 -54 c 2
 595 -54 l 2
 614 -54 616 -70 616 -76 c 0
559 -64 m 1
 559 -67 l 1
 555 -78 l 1
 564 -78 l 1
 560 -67 l 1
 560 -66 l 1
 559 -64 l 1
548 -98 m 1
 542 -98 l 2
 541 -98 541 -98 541 -97 c 2
 556 -54 l 1
 557 -53 l 1
 562 -53 l 1
 563 -54 l 1
 578 -97 l 2
 578 -98 578 -98 577 -98 c 2
 571 -98 l 1
 566 -85 l 1
 552 -85 l 1
 548 -98 l 1
516 -54 m 2
 538 -54 l 2
 539 -54 539 -54 539 -55 c 2
 539 -59 l 2
 539 -60 539 -61 538 -61 c 2
 522 -61 l 1
 522 -72 l 1
 537 -72 l 2
 538 -72 538 -72 538 -73 c 2
 538 -77 l 2
 538 -78 538 -78 537 -78 c 2
 522 -78 l 1
 522 -91 l 1
 538 -91 l 2
 539 -91 539 -91 539 -92 c 2
 539 -97 l 2
 539 -98 539 -98 538 -98 c 2
 516 -98 l 2
 515 -98 515 -98 515 -97 c 2
 515 -55 l 2
 515 -54 515 -54 516 -54 c 2
500 -67 m 0
 500 -61 500 -61 492 -61 c 2
 487 -61 l 1
 487 -74 l 1
 492 -74 l 2
 500 -74 500 -70 500 -67 c 0
510 -98 m 2
 503 -98 l 1
 494 -81 l 1
 487 -81 l 1
 487 -97 l 2
 487 -98 487 -98 486 -98 c 2
 481 -98 l 2
 480 -98 480 -98 480 -97 c 2
 480 -55 l 2
 480 -54 480 -54 481 -54 c 2
 492 -54 l 2
 496 -54 508 -54 508 -67 c 0
 508 -69 508 -71 507 -72 c 0
 507 -73 507 -73 502 -78 c 0
 501 -78 501 -79 500 -79 c 1
 511 -97 l 2
 511 -98 511 -98 510 -98 c 2
467 -67 m 0
 467 -61 463 -61 458 -61 c 2
 454 -61 l 1
 454 -75 l 1
 457 -75 l 2
 459 -75 467 -74 467 -67 c 0
474 -67 m 0
 474 -71 473 -82 457 -82 c 2
 454 -82 l 1
 454 -97 l 2
 454 -98 454 -98 453 -98 c 2
 448 -98 l 2
 447 -98 446 -98 446 -97 c 2
 446 -55 l 2
 446 -54 447 -54 448 -54 c 2
 458 -54 l 2
 462 -54 474 -54 474 -67 c 0
433 -83 m 1
 414 -74 414 -73 414 -65 c 0
 414 -64 414 -53 428 -53 c 0
 430 -53 432 -54 434 -54 c 0
 436 -54 437 -55 439 -56 c 0
 440 -56 440 -56 440 -57 c 2
 438 -62 l 2
 438 -63 438 -62 437 -62 c 0
 436 -61 434 -61 432 -61 c 0
 430 -61 429 -60 427 -60 c 0
 425 -60 424 -60 423 -61 c 1
 423 -62 l 1
 422 -63 421 -63 421 -65 c 0
 421 -66 422 -67 422 -68 c 0
 422 -71 441 -75 441 -86 c 0
 441 -95 431 -99 425 -99 c 0
 423 -99 421 -98 419 -98 c 0
 415 -98 415 -98 413 -96 c 1
 413 -91 l 2
 413 -90 414 -90 415 -90 c 0
 416 -91 418 -90 420 -91 c 0
 422 -91 424 -92 426 -92 c 0
 433 -92 433 -88 433 -86 c 2
 433 -83 l 1
270 -98 m 2
 264 -98 250 -96 250 -75 c 0
 250 -66 253 -52 272 -52 c 2
 279 -52 l 2
 281 -52 283 -53 285 -54 c 0
 286 -54 285 -55 285 -56 c 2
 283 -60 l 2
 283 -61 283 -61 282 -61 c 0
 281 -60 279 -59 277 -59 c 2
 272 -59 l 2
 267 -59 258 -59 258 -75 c 0
 258 -80 258 -91 272 -91 c 2
 276 -91 l 2
 277 -91 277 -90 278 -90 c 1
 278 -80 l 1
 271 -80 l 2
 270 -80 270 -79 270 -78 c 2
 270 -74 l 2
 270 -73 270 -72 271 -72 c 2
 285 -72 l 2
 286 -72 286 -73 286 -74 c 2
 286 -95 l 2
 286 -96 285 -96 285 -96 c 2
 283 -97 280 -98 278 -98 c 2
 270 -98 l 2
242 -97 m 2
 235 -97 l 1
 216 -65 l 1
 216 -96 l 2
 216 -97 216 -97 215 -97 c 2
 210 -97 l 2
 209 -97 209 -97 209 -96 c 2
 209 -53 l 2
 209 -52 209 -52 210 -52 c 2
 216 -52 l 1
 217 -53 l 1
 236 -84 l 1
 236 -53 l 2
 236 -52 236 -52 237 -52 c 2
 242 -52 l 2
 243 -52 243 -52 243 -53 c 2
 243 -96 l 2
 243 -97 243 -97 242 -97 c 2
187 -58 m 1
 187 -53 l 2
 187 -52 187 -52 188 -52 c 2
 202 -52 l 2
 203 -52 203 -52 203 -53 c 2
 203 -56 l 2
 203 -57 204 -58 203 -58 c 2
 199 -59 l 1
 199 -91 l 1
 203 -92 l 2
 204 -92 203 -92 203 -93 c 2
 203 -96 l 2
 203 -97 203 -97 202 -97 c 2
 188 -97 l 2
 187 -97 187 -97 187 -96 c 2
 187 -93 l 2
 187 -92 186 -92 187 -92 c 2
 191 -91 l 1
 191 -59 l 1
 187 -58 l 1
152 -75 m 0
 152 -63 156 -52 173 -52 c 0
 177 -52 181 -52 184 -54 c 0
 185 -54 185 -55 185 -56 c 2
 183 -60 l 2
 183 -61 182 -61 181 -61 c 0
 180 -60 179 -59 177 -59 c 0
 172 -56 163 -61 163 -63 c 0
 161 -66 160 -70 160 -75 c 0
 160 -79 160 -91 172 -91 c 2
 177 -91 l 2
 179 -91 180 -89 182 -89 c 0
 183 -89 183 -89 183 -90 c 2
 183 -96 l 1
 181 -97 180 -98 178 -98 c 2
 172 -98 l 2
 166 -98 152 -96 152 -75 c 0
133 -64 m 1
 133 -65 132 -65 132 -66 c 2
 128 -77 l 1
 138 -77 l 1
 134 -66 l 1
 134 -66 133 -65 133 -64 c 1
121 -97 m 1
 115 -97 l 2
 114 -97 114 -97 114 -96 c 2
 129 -53 l 1
 130 -52 l 1
 135 -52 l 1
 136 -53 l 1
 152 -96 l 2
 152 -97 152 -97 151 -97 c 2
 144 -97 l 1
 140 -84 l 1
 125 -84 l 1
 121 -97 l 1
108 -66 m 0
 108 -63 107 -59 99 -59 c 2
 95 -59 l 1
 95 -74 l 1
 98 -74 l 2
 108 -74 108 -69 108 -66 c 0
115 -72 m 1
 111 -81 101 -81 98 -81 c 2
 95 -81 l 1
 95 -96 l 2
 95 -97 95 -97 94 -97 c 2
 89 -97 l 2
 88 -97 88 -97 88 -96 c 2
 88 -53 l 2
 88 -52 88 -52 89 -52 c 2
 99 -52 l 2
 103 -52 116 -53 116 -66 c 0
 116 -68 116 -69 115 -71 c 1
 115 -72 l 1
63 -67 m 0
 63 -69 82 -73 82 -85 c 0
 82 -89 80 -98 66 -98 c 2
 60 -98 l 2
 57 -98 55 -96 54 -95 c 1
 54 -90 l 2
 54 -89 55 -89 56 -89 c 0
 57 -90 58 -89 60 -90 c 0
 62 -90 64 -91 66 -91 c 0
 74 -91 74 -87 74 -85 c 2
 74 -82 l 2
 74 -79 54 -78 54 -64 c 0
 54 -60 56 -52 68 -52 c 2
 75 -52 l 2
 77 -52 78 -53 80 -54 c 0
 81 -54 81 -55 81 -56 c 2
 79 -60 l 2
 79 -61 79 -61 78 -61 c 0
 77 -60 75 -59 73 -59 c 2
 68 -59 l 2
 63 -59 62 -60 62 -64 c 0
 62 -65 63 -66 63 -67 c 0
-55 -69 m 2
 7 -69 l 2
 10 -69 13 -72 13 -75 c 0
 13 -78 10 -81 7 -81 c 2
 -55 -81 l 2
 -58 -81 -61 -78 -61 -75 c 0
 -61 -72 -58 -69 -55 -69 c 2
658 -24 m 0
 661 -24 664 -26 664 -29 c 2
 664 -115 l 2
 664 -118 661 -121 658 -121 c 0
 655 -121 652 -118 652 -115 c 2
 652 -29 l 2
 652 -26 655 -24 658 -24 c 0
373 -24 m 0
 376 -24 379 -26 379 -29 c 2
 379 -115 l 2
 379 -118 376 -121 373 -121 c 0
 370 -121 367 -118 367 -115 c 2
 367 -81 l 1
 321 -81 l 2
 318 -81 316 -78 316 -75 c 0
 316 -72 318 -69 321 -69 c 2
 367 -69 l 1
 367 -29 l 2
 367 -26 370 -24 373 -24 c 0
372 95 m 0
 357 95 345 82 345 67 c 0
 345 52 357 40 372 40 c 0
 387 40 400 52 400 67 c 0
 400 82 387 95 372 95 c 0
372 106 m 0
 393 106 411 88 411 67 c 0
 411 46 393 29 372 29 c 0
 351 29 334 46 334 67 c 0
 334 88 351 106 372 106 c 0
372 123 m 0
 341 123 316 98 316 67 c 0
 316 36 341 11 372 11 c 0
 403 11 428 36 428 67 c 0
 428 98 403 123 372 123 c 0
372 135 m 0
 409 135 440 104 440 67 c 0
 440 30 409 0 372 0 c 0
 335 0 305 30 305 67 c 0
 305 104 335 135 372 135 c 0
515 95 m 0
 500 95 488 82 488 67 c 0
 488 52 500 40 515 40 c 0
 530 40 542 52 542 67 c 0
 542 82 530 95 515 95 c 0
515 106 m 0
 536 106 554 88 554 67 c 0
 554 46 536 29 515 29 c 0
 494 29 476 46 476 67 c 0
 476 88 494 106 515 106 c 0
515 123 m 0
 484 123 459 98 459 67 c 0
 459 36 484 11 515 11 c 0
 546 11 571 36 571 67 c 0
 571 98 546 123 515 123 c 0
515 135 m 0
 552 135 582 104 582 67 c 0
 582 30 552 0 515 0 c 0
 478 0 448 30 448 67 c 0
 448 104 478 135 515 135 c 0
658 95 m 0
 643 95 630 82 630 67 c 0
 630 52 643 40 658 40 c 0
 673 40 685 52 685 67 c 0
 685 82 673 95 658 95 c 0
658 106 m 0
 679 106 696 88 696 67 c 0
 696 46 679 29 658 29 c 0
 637 29 619 46 619 67 c 0
 619 88 637 106 658 106 c 0
658 123 m 0
 627 123 602 98 602 67 c 0
 602 36 627 11 658 11 c 0
 689 11 714 36 714 67 c 0
 714 98 689 123 658 123 c 0
658 135 m 0
 695 135 725 104 725 67 c 0
 725 30 695 0 658 0 c 0
 621 0 590 30 590 67 c 0
 590 104 621 135 658 135 c 0
138 166 m 1
 138 160 l 1
 726 160 l 2
 728 160 730 158 731 156 c 2
 764 74 l 1
 791 74 l 1
 818 155 l 1
 818 166 l 1
 138 166 l 1
133 177 m 2
 823 177 l 2
 826 177 829 174 829 171 c 2
 829 152 l 1
 800 67 l 2
 799 65 798 63 795 63 c 2
 760 63 l 2
 758 63 756 64 755 66 c 2
 722 148 l 1
 133 148 l 2
 130 148 127 151 127 154 c 2
 127 171 l 2
 127 174 130 177 133 177 c 2
EndSplineSet
Validated: 1
LCarets2: 1 0
Ligature2: "liga_Boosters" three B
EndChar

StartChar: four_B
Encoding: 103 -1 19
Width: 522
Flags: HMW
LayerCount: 2
Fore
SplineSet
679 -76 m 0
 679 -74 678 -60 665 -60 c 2
 660 -60 l 1
 660 -91 l 1
 664 -91 l 2
 678 -91 679 -80 679 -76 c 0
687 -75 m 0
 687 -80 685 -98 665 -98 c 2
 654 -98 l 2
 653 -98 652 -98 652 -97 c 2
 652 -55 l 2
 652 -54 653 -53 654 -53 c 2
 666 -53 l 2
 675 -53 687 -59 687 -75 c 0
631 -67 m 1
 631 -65 l 1
 630 -64 l 1
 630 -67 l 1
 626 -78 l 1
 635 -78 l 1
 631 -67 l 1
628 -53 m 1
 633 -53 l 1
 634 -54 l 1
 649 -97 l 2
 649 -98 649 -98 648 -98 c 2
 643 -98 l 1
 642 -97 l 1
 637 -85 l 1
 623 -85 l 1
 619 -97 l 1
 618 -98 l 1
 613 -98 l 2
 612 -98 612 -98 612 -97 c 2
 627 -54 l 1
 628 -53 l 1
587 -53 m 2
 609 -53 l 2
 610 -53 610 -54 610 -55 c 2
 610 -59 l 2
 610 -60 610 -60 609 -60 c 2
 593 -60 l 1
 593 -71 l 1
 608 -71 l 2
 609 -71 609 -72 609 -73 c 2
 609 -77 l 2
 609 -78 609 -78 608 -78 c 2
 593 -78 l 1
 593 -91 l 1
 609 -91 l 2
 610 -91 610 -91 610 -92 c 2
 610 -97 l 2
 610 -98 610 -98 609 -98 c 2
 587 -98 l 2
 586 -98 586 -98 586 -97 c 2
 586 -55 l 2
 586 -54 586 -53 587 -53 c 2
571 -67 m 0
 571 -63 571 -60 563 -60 c 2
 558 -60 l 1
 558 -74 l 1
 563 -74 l 2
 571 -74 571 -70 571 -67 c 0
581 -98 m 2
 574 -98 l 1
 565 -81 l 1
 558 -81 l 1
 558 -97 l 2
 558 -98 558 -98 557 -98 c 2
 552 -98 l 2
 551 -98 551 -98 551 -97 c 2
 551 -55 l 2
 551 -54 551 -53 552 -53 c 2
 563 -53 l 2
 565 -53 579 -54 579 -67 c 0
 579 -69 579 -71 578 -72 c 0
 578 -73 578 -73 573 -78 c 1
 571 -78 l 1
 582 -96 l 2
 582 -97 582 -98 581 -98 c 2
538 -67 m 0
 538 -65 537 -60 529 -60 c 2
 525 -60 l 1
 525 -75 l 1
 528 -75 l 2
 530 -75 538 -74 538 -67 c 0
545 -67 m 0
 545 -82 528 -82 528 -82 c 2
 525 -82 l 1
 525 -97 l 2
 525 -98 525 -98 524 -98 c 2
 519 -98 l 2
 518 -98 517 -98 517 -97 c 2
 517 -55 l 2
 517 -54 518 -53 519 -53 c 2
 529 -53 l 2
 531 -53 545 -54 545 -67 c 0
485 -65 m 0
 485 -53 495 -53 499 -53 c 0
 501 -53 503 -54 505 -54 c 0
 507 -54 508 -54 510 -55 c 0
 511 -55 511 -56 511 -57 c 2
 509 -61 l 2
 509 -62 509 -62 508 -62 c 0
 507 -61 505 -61 503 -61 c 0
 501 -61 500 -60 498 -60 c 0
 493 -60 492 -63 492 -65 c 0
 492 -66 493 -67 493 -68 c 0
 493 -71 512 -73 512 -86 c 0
 512 -95 502 -99 496 -99 c 0
 494 -99 492 -98 490 -98 c 0
 486 -98 486 -98 484 -96 c 1
 484 -90 l 2
 484 -89 485 -89 486 -89 c 0
 487 -90 489 -90 491 -91 c 0
 493 -91 495 -92 497 -92 c 0
 504 -92 504 -88 504 -86 c 2
 504 -83 l 2
 504 -80 485 -78 485 -65 c 0
238 -76 m 0
 238 -66 241 -53 260 -53 c 0
 262 -53 264 -54 266 -54 c 0
 268 -54 270 -55 272 -56 c 0
 273 -56 273 -56 273 -57 c 2
 271 -62 l 2
 271 -63 270 -63 269 -63 c 0
 268 -62 267 -61 265 -61 c 0
 263 -61 261 -60 259 -60 c 0
 247 -60 245 -73 245 -76 c 0
 245 -79 246 -93 259 -93 c 0
 261 -93 263 -92 264 -92 c 2
 266 -92 l 1
 266 -81 l 1
 258 -81 l 2
 257 -81 257 -81 257 -80 c 2
 257 -75 l 2
 257 -74 257 -74 258 -74 c 2
 272 -74 l 2
 273 -74 273 -74 273 -75 c 2
 273 -97 l 1
 271 -98 268 -99 266 -99 c 0
 264 -99 261 -100 258 -100 c 0
 250 -100 238 -97 238 -76 c 0
230 -99 m 2
 223 -99 l 1
 203 -66 l 1
 203 -67 l 2
 203 -69 204 -72 204 -74 c 2
 204 -98 l 2
 204 -99 203 -99 202 -99 c 2
 198 -99 l 2
 197 -99 197 -99 197 -98 c 2
 197 -55 l 2
 197 -54 197 -54 198 -54 c 2
 205 -54 l 1
 224 -87 l 1
 224 -55 l 2
 224 -54 224 -54 225 -54 c 2
 230 -54 l 2
 231 -54 231 -54 231 -55 c 2
 231 -98 l 2
 231 -99 231 -99 230 -99 c 2
175 -54 m 2
 190 -54 l 2
 191 -54 191 -54 191 -55 c 2
 191 -58 l 2
 191 -59 191 -59 190 -59 c 2
 186 -60 l 1
 186 -93 l 1
 190 -94 l 2
 191 -94 191 -94 191 -95 c 2
 191 -98 l 2
 191 -99 191 -99 190 -99 c 2
 175 -99 l 2
 174 -99 174 -99 174 -98 c 2
 174 -95 l 2
 174 -94 174 -94 175 -94 c 2
 179 -93 l 1
 179 -60 l 1
 175 -59 l 1
 175 -59 174 -59 174 -58 c 2
 174 -55 l 2
 174 -54 174 -54 175 -54 c 2
140 -76 m 0
 140 -68 142 -53 160 -53 c 0
 164 -53 169 -54 172 -56 c 0
 173 -56 172 -56 172 -57 c 2
 170 -62 l 2
 170 -63 170 -63 169 -63 c 0
 168 -62 167 -61 165 -61 c 0
 160 -58 151 -63 151 -65 c 0
 149 -68 147 -71 147 -76 c 0
 147 -80 148 -93 160 -93 c 0
 162 -93 163 -92 165 -92 c 0
 167 -92 167 -91 169 -91 c 0
 170 -91 171 -91 171 -92 c 2
 171 -97 l 1
 170 -98 169 -99 165 -99 c 0
 163 -99 161 -100 159 -100 c 0
 148 -100 140 -94 140 -76 c 0
120 -65 m 1
 120 -67 l 1
 116 -79 l 1
 125 -79 l 1
 121 -67 l 1
 121 -66 l 1
 120 -65 l 1
117 -54 m 1
 124 -54 l 1
 139 -97 l 2
 139 -98 139 -99 138 -99 c 2
 133 -99 l 1
 132 -98 l 1
 127 -86 l 1
 113 -86 l 1
 108 -98 l 1
 107 -99 l 1
 102 -99 l 2
 101 -99 101 -98 101 -97 c 2
 117 -54 l 1
96 -68 m 0
 96 -65 95 -61 87 -61 c 2
 83 -61 l 1
 83 -75 l 1
 86 -75 l 2
 95 -75 96 -74 96 -68 c 0
103 -68 m 0
 103 -72 101 -82 86 -82 c 2
 83 -82 l 1
 83 -98 l 2
 83 -99 82 -99 81 -99 c 2
 76 -99 l 2
 75 -99 75 -99 75 -98 c 2
 75 -55 l 2
 75 -54 75 -54 76 -54 c 2
 87 -54 l 2
 102 -54 103 -62 103 -68 c 0
42 -65 m 0
 42 -58 50 -53 56 -53 c 0
 58 -53 60 -54 62 -54 c 0
 64 -54 66 -55 68 -56 c 0
 69 -56 68 -56 68 -57 c 2
 67 -62 l 2
 67 -63 66 -62 65 -62 c 0
 64 -61 63 -61 61 -61 c 0
 59 -61 58 -60 56 -60 c 0
 53 -60 49 -62 49 -65 c 0
 49 -66 50 -67 50 -68 c 0
 50 -74 69 -70 69 -86 c 0
 69 -100 55 -100 54 -100 c 0
 52 -100 49 -99 47 -99 c 0
 45 -99 43 -99 42 -98 c 1
 42 -91 l 2
 42 -90 42 -90 43 -90 c 0
 44 -91 46 -91 48 -92 c 0
 50 -92 52 -93 54 -93 c 0
 59 -93 62 -90 62 -87 c 0
 62 -86 61 -85 61 -84 c 0
 61 -79 42 -81 42 -65 c 0
-55 -69 m 2
 1 -69 l 2
 4 -69 7 -72 7 -75 c 0
 7 -78 4 -81 1 -81 c 2
 -55 -81 l 2
 -58 -81 -61 -78 -61 -75 c 0
 -61 -72 -58 -69 -55 -69 c 2
795 -24 m 0
 798 -24 801 -26 801 -29 c 2
 801 -115 l 2
 801 -118 798 -121 795 -121 c 0
 792 -121 789 -118 789 -115 c 2
 789 -81 l 1
 715 -81 l 2
 712 -81 710 -78 710 -75 c 0
 710 -72 712 -69 715 -69 c 2
 789 -69 l 1
 789 -29 l 2
 789 -26 792 -24 795 -24 c 0
367 -24 m 0
 370 -24 373 -26 373 -29 c 2
 373 -69 l 1
 453 -69 l 2
 456 -69 458 -72 458 -75 c 0
 458 -78 456 -81 453 -81 c 2
 373 -81 l 1
 373 -115 l 2
 373 -118 370 -121 367 -121 c 0
 364 -121 361 -118 361 -115 c 2
 361 -81 l 1
 315 -81 l 2
 312 -81 310 -78 310 -75 c 0
 310 -72 312 -69 315 -69 c 2
 361 -69 l 1
 361 -29 l 2
 361 -26 364 -24 367 -24 c 0
368 95 m 0
 353 95 340 82 340 67 c 0
 340 52 353 40 368 40 c 0
 383 40 395 52 395 67 c 0
 395 82 383 95 368 95 c 0
368 106 m 0
 389 106 406 88 406 67 c 0
 406 46 389 29 368 29 c 0
 347 29 329 46 329 67 c 0
 329 88 347 106 368 106 c 0
368 123 m 0
 337 123 312 98 312 67 c 0
 312 36 337 11 368 11 c 0
 399 11 424 36 424 67 c 0
 424 98 399 123 368 123 c 0
368 135 m 0
 405 135 435 104 435 67 c 0
 435 30 405 0 368 0 c 0
 331 0 300 30 300 67 c 0
 300 104 331 135 368 135 c 0
510 95 m 0
 495 95 483 82 483 67 c 0
 483 52 495 40 510 40 c 0
 525 40 538 52 538 67 c 0
 538 82 525 95 510 95 c 0
510 106 m 0
 531 106 549 88 549 67 c 0
 549 46 531 29 510 29 c 0
 489 29 472 46 472 67 c 0
 472 88 489 106 510 106 c 0
510 123 m 0
 479 123 454 98 454 67 c 0
 454 36 479 11 510 11 c 0
 541 11 566 36 566 67 c 0
 566 98 541 123 510 123 c 0
510 135 m 0
 547 135 578 104 578 67 c 0
 578 30 547 0 510 0 c 0
 473 0 443 30 443 67 c 0
 443 104 473 135 510 135 c 0
653 95 m 0
 638 95 626 82 626 67 c 0
 626 52 638 40 653 40 c 0
 668 40 680 52 680 67 c 0
 680 82 668 95 653 95 c 0
653 106 m 0
 674 106 692 88 692 67 c 0
 692 46 674 29 653 29 c 0
 632 29 614 46 614 67 c 0
 614 88 632 106 653 106 c 0
653 123 m 0
 622 123 597 98 597 67 c 0
 597 36 622 11 653 11 c 0
 684 11 709 36 709 67 c 0
 709 98 684 123 653 123 c 0
653 135 m 0
 690 135 720 104 720 67 c 0
 720 30 690 0 653 0 c 0
 616 0 586 30 586 67 c 0
 586 104 616 135 653 135 c 0
796 95 m 0
 781 95 768 82 768 67 c 0
 768 52 781 40 796 40 c 0
 811 40 823 52 823 67 c 0
 823 82 811 95 796 95 c 0
796 106 m 0
 817 106 834 88 834 67 c 0
 834 46 817 29 796 29 c 0
 775 29 757 46 757 67 c 0
 757 88 775 106 796 106 c 0
796 123 m 0
 765 123 740 98 740 67 c 0
 740 36 765 11 796 11 c 0
 827 11 852 36 852 67 c 0
 852 98 827 123 796 123 c 0
796 135 m 0
 833 135 863 104 863 67 c 0
 863 30 833 0 796 0 c 0
 759 0 728 30 728 67 c 0
 728 104 759 135 796 135 c 0
139 166 m 1
 139 160 l 1
 864 160 l 2
 866 160 868 158 869 156 c 2
 902 74 l 1
 929 74 l 1
 956 155 l 1
 956 166 l 1
 139 166 l 1
134 177 m 2
 961 177 l 2
 964 177 967 174 967 171 c 2
 967 152 l 1
 938 67 l 2
 937 65 936 63 933 63 c 2
 898 63 l 2
 896 63 894 64 893 66 c 2
 860 148 l 1
 134 148 l 2
 131 148 128 151 128 154 c 2
 128 171 l 2
 128 174 131 177 134 177 c 2
EndSplineSet
Validated: 1
LCarets2: 1 0
Ligature2: "liga_Boosters" four B
EndChar

StartChar: M_C_one_S
Encoding: 104 -1 20
Width: 249
Flags: HMW
LayerCount: 2
Fore
SplineSet
308 -23 m 0
 311 -23 314 -26 314 -29 c 2
 314 -114 l 2
 314 -117 311 -120 308 -120 c 0
 305 -120 302 -117 302 -114 c 2
 302 -29 l 2
 302 -26 305 -23 308 -23 c 0
308 95 m 0
 293 95 281 82 281 67 c 0
 281 52 293 40 308 40 c 0
 323 40 335 52 335 67 c 0
 335 82 323 95 308 95 c 0
308 106 m 0
 329 106 347 88 347 67 c 0
 347 46 329 29 308 29 c 0
 287 29 269 46 269 67 c 0
 269 88 287 106 308 106 c 0
308 123 m 0
 277 123 252 98 252 67 c 0
 252 36 277 11 308 11 c 0
 339 11 364 36 364 67 c 0
 364 98 339 123 308 123 c 0
308 135 m 0
 345 135 375 104 375 67 c 0
 375 30 345 0 308 0 c 0
 271 0 241 30 241 67 c 0
 241 104 271 135 308 135 c 0
205 274 m 1
 205 211 l 1
 222 211 l 1
 222 274 l 1
 205 274 l 1
200 285 m 2
 228 285 l 2
 231 285 234 283 234 280 c 2
 234 205 l 2
 234 202 231 200 228 200 c 2
 200 200 l 2
 197 200 194 202 194 205 c 2
 194 280 l 2
 194 283 197 285 200 285 c 2
106 274 m 1
 77 211 l 1
 171 211 l 1
 171 274 l 1
 106 274 l 1
103 285 m 2
 177 285 l 2
 180 285 182 283 182 280 c 2
 182 205 l 2
 182 202 180 200 177 200 c 2
 68 200 l 2
 65 200 63 202 63 205 c 0
 63 206 63 207 63 208 c 2
 97 282 l 2
 98 284 101 285 103 285 c 2
187 71 m 1
 108 71 l 1
 187 57 l 1
 187 71 l 1
95 291 m 1
 51 199 l 1
 51 80 l 1
 189 83 l 1
 190 84 l 1
 240 139 l 1
 240 291 l 1
 95 291 l 1
91 303 m 2
 245 303 l 2
 248 303 251 300 251 297 c 2
 251 137 l 2
 251 136 250 134 249 133 c 2
 198 76 l 1
 198 50 l 2
 198 47 196 45 193 45 c 2
 192 45 l 1
 45 69 l 1
 44 69 l 1
 43 69 l 1
 42 70 l 1
 41 71 l 1
 40 72 l 1
 40 73 l 1
 40 74 l 1
 40 200 l 2
 40 201 40 201 40 202 c 2
 86 299 l 2
 87 301 89 303 91 303 c 2
268 166 m 1
 268 160 l 1
 376 160 l 2
 378 160 381 158 382 156 c 2
 415 74 l 1
 441 74 l 1
 468 155 l 1
 468 166 l 1
 445 166 l 1
 411 166 l 1
 268 166 l 1
268 291 m 1
 268 177 l 1
 403 177 l 1
 372 291 l 1
 268 291 l 1
262 303 m 2
 376 303 l 2
 379 303 381 300 382 298 c 2
 415 177 l 1
 445 177 l 1
 474 177 l 2
 477 177 479 174 479 171 c 2
 479 154 l 2
 479 153 479 153 479 152 c 2
 450 67 l 2
 449 65 448 63 445 63 c 2
 411 63 l 2
 409 63 406 64 405 66 c 2
 373 148 l 1
 262 148 l 2
 259 148 257 151 257 154 c 2
 257 171 l 1
 257 297 l 2
 257 300 259 303 262 303 c 2
EndSplineSet
Validated: 1
LCarets2: 3 0 0 0
Ligature2: "liga_Cranes" M C one S
EndChar

StartChar: M_C_two_S
Encoding: 105 -1 21
Width: 311
Flags: HMW
LayerCount: 2
Fore
SplineSet
418 -75 m 0
 418 -61 409 -59 403 -59 c 2
 397 -59 l 1
 397 -91 l 1
 402 -91 l 2
 413 -91 418 -86 418 -75 c 0
426 -75 m 0
 426 -85 422 -98 402 -98 c 2
 390 -98 l 2
 389 -98 389 -98 389 -97 c 2
 389 -53 l 2
 389 -52 389 -52 390 -52 c 2
 404 -52 l 2
 426 -52 426 -70 426 -75 c 0
374 -66 m 0
 374 -63 374 -59 364 -59 c 2
 360 -59 l 1
 360 -74 l 1
 363 -74 l 2
 374 -74 374 -70 374 -66 c 0
382 -66 m 0
 382 -73 378 -81 364 -81 c 2
 360 -81 l 1
 360 -97 l 2
 360 -98 360 -98 359 -98 c 2
 353 -98 l 2
 352 -98 352 -98 352 -97 c 2
 352 -53 l 2
 352 -52 352 -52 353 -52 c 2
 365 -52 l 2
 371 -52 382 -53 382 -66 c 0
316 -64 m 0
 316 -52 331 -51 331 -51 c 0
 333 -51 336 -52 338 -52 c 0
 340 -52 342 -53 344 -54 c 2
 345 -55 l 1
 343 -60 l 1
 343 -60 343 -61 342 -61 c 2
 341 -61 l 1
 340 -60 338 -59 336 -59 c 2
 331 -59 l 2
 329 -59 324 -59 324 -64 c 0
 324 -65 325 -66 325 -67 c 0
 325 -70 346 -72 346 -85 c 0
 346 -95 335 -99 329 -99 c 0
 326 -99 324 -98 322 -98 c 0
 320 -98 318 -97 316 -96 c 1
 316 -90 l 2
 316 -89 316 -89 317 -89 c 0
 319 -91 323 -91 329 -91 c 0
 333 -91 338 -91 338 -86 c 0
 338 -85 337 -84 337 -83 c 0
 337 -77 316 -81 316 -64 c 0
445 -23 m 0
 448 -23 450 -26 450 -29 c 2
 450 -114 l 2
 450 -117 448 -120 445 -120 c 0
 442 -120 439 -117 439 -114 c 2
 439 -29 l 2
 439 -26 442 -23 445 -23 c 0
302 -23 m 0
 305 -23 308 -26 308 -29 c 2
 308 -114 l 2
 308 -117 305 -120 302 -120 c 0
 299 -120 296 -117 296 -114 c 2
 296 -29 l 2
 296 -26 299 -23 302 -23 c 0
302 95 m 0
 287 95 275 82 275 67 c 0
 275 52 287 40 302 40 c 0
 317 40 329 52 329 67 c 0
 329 82 317 95 302 95 c 0
302 106 m 0
 323 106 341 88 341 67 c 0
 341 46 323 29 302 29 c 0
 281 29 263 46 263 67 c 0
 263 88 281 106 302 106 c 0
302 123 m 0
 271 123 246 98 246 67 c 0
 246 36 271 11 302 11 c 0
 333 11 358 36 358 67 c 0
 358 98 333 123 302 123 c 0
302 135 m 0
 339 135 369 104 369 67 c 0
 369 30 339 0 302 0 c 0
 265 0 235 30 235 67 c 0
 235 104 265 135 302 135 c 0
445 95 m 0
 430 95 417 82 417 67 c 0
 417 52 430 40 445 40 c 0
 460 40 472 52 472 67 c 0
 472 82 460 95 445 95 c 0
445 106 m 0
 466 106 483 88 483 67 c 0
 483 46 466 29 445 29 c 0
 424 29 406 46 406 67 c 0
 406 88 424 106 445 106 c 0
445 123 m 0
 414 123 389 98 389 67 c 0
 389 36 414 11 445 11 c 0
 476 11 501 36 501 67 c 0
 501 98 476 123 445 123 c 0
445 135 m 0
 482 135 512 104 512 67 c 0
 512 30 482 0 445 0 c 0
 408 0 377 30 377 67 c 0
 377 104 408 135 445 135 c 0
268 166 m 1
 268 160 l 1
 513 160 l 2
 515 160 517 158 518 156 c 2
 551 74 l 1
 578 74 l 1
 605 155 l 1
 605 166 l 1
 268 166 l 1
382 290 m 1
 269 290 l 1
 269 177 l 1
 420 177 l 1
 382 290 l 1
386 301 m 2
 389 301 391 299 392 297 c 2
 432 177 l 1
 610 177 l 2
 613 177 616 174 616 171 c 2
 616 152 l 1
 587 67 l 2
 586 65 585 63 582 63 c 2
 547 63 l 2
 545 63 543 64 542 66 c 2
 509 148 l 1
 262 148 l 2
 259 148 256 151 256 154 c 2
 257 172 l 1
 257 295 l 2
 257 298 260 301 263 301 c 2
 386 301 l 2
206 272 m 1
 206 209 l 1
 223 209 l 1
 223 272 l 1
 206 272 l 1
200 283 m 2
 229 283 l 2
 232 283 234 281 234 278 c 2
 234 204 l 2
 234 201 232 198 229 198 c 2
 200 198 l 2
 197 198 194 201 194 204 c 2
 194 278 l 2
 194 281 197 283 200 283 c 2
107 272 m 1
 78 209 l 1
 172 209 l 1
 172 272 l 1
 107 272 l 1
103 283 m 2
 177 283 l 2
 180 283 183 281 183 278 c 2
 183 204 l 2
 183 201 180 198 177 198 c 2
 69 198 l 2
 66 198 63 201 63 204 c 0
 63 205 64 205 64 206 c 2
 98 280 l 2
 99 282 101 283 103 283 c 2
188 69 m 1
 109 69 l 1
 188 55 l 1
 188 69 l 1
95 289 m 1
 52 197 l 1
 52 81 l 1
 188 81 l 1
 188 82 l 1
 240 137 l 1
 240 289 l 1
 95 289 l 1
45 67 m 1
 43 67 l 1
 43 68 l 1
 41 69 l 1
 41 70 l 1
 40 71 l 1
 40 198 l 2
 40 199 41 199 41 200 c 2
 86 297 l 2
 87 299 90 301 92 301 c 2
 246 301 l 2
 249 301 251 298 251 295 c 2
 251 135 l 2
 251 133 251 132 250 131 c 2
 199 76 l 1
 199 48 l 2
 199 45 196 43 193 43 c 2
 192 43 l 1
 45 67 l 1
EndSplineSet
Validated: 1
LCarets2: 3 0 0 0
Ligature2: "liga_Cranes" M C two S
EndChar

